<svg width="10580" height="10580" viewBox="0 0 10580 10580" fill="none" xmlns="http://www.w3.org/2000/svg">
<g filter="url(#filter0_b_213_2)">
<path fill-rule="evenodd" clip-rule="evenodd" d="M5222.87 5747.63C5223.91 5748.02 5224.95 5748.41 5225.99 5748.8L5226.53 5749C5225.31 5748.54 5224.09 5748.09 5222.87 5747.63Z" fill="white"/>
<path fill-rule="evenodd" clip-rule="evenodd" d="M10579.6 5289.78C10579.6 8211.07 8211.47 10579.2 5290.18 10579.2C2368.89 10579.2 0.714844 8211.07 0.714844 5289.78C0.714844 2368.5 2368.89 0.335938 5290.18 0.335938C8211.47 0.335938 10579.6 2368.5 10579.6 5289.78ZM1694.83 6949.68C1719.68 6930.67 1734.15 6919.78 1766.91 6897.3C1642.69 6419.03 1550.57 5986.56 1487.61 5593.01C1452.94 5376.28 1427.1 5171.35 1409.62 4977.08L1409.58 4976.54C1398.95 4858.33 1391.41 4744.06 1386.85 4633.49C1378.77 4437.25 1380.08 4252.63 1390.15 4078.19C1397.04 3958.91 1408.04 3844.39 1422.93 3734.16C1430.14 3680.8 1438.26 3628.44 1447.28 3577.04C1552.25 2978.64 1778.11 2509.53 2089.42 2087.06C2094.96 2079.55 2100.52 2072.06 2106.1 2064.58C2175.01 1972.33 2247.98 1882.25 2324.66 1793.47C2352.75 1760.95 2381.34 1728.59 2410.41 1696.37L2410.5 1696.27L2416.19 1689.97L2422.89 1682.58L2422.9 1682.57L2423 1682.46L2424.48 1680.83L2424.9 1680.37L2426.12 1679.02C1934.3 3652.94 3257.34 4845.3 4646.66 5504.05C4730.8 5543.95 4815.18 5581.88 4899.42 5617.92C4952.65 5640.69 5005.82 5662.7 5058.83 5683.96L5064.42 5686.21L5067.21 5687.32L5070.84 5688.77C5120.38 5708.55 5169.79 5727.68 5218.97 5746.16L5220.42 5746.71L5222.87 5747.63L5225.99 5748.8L5226.53 5749C5334.95 5789.63 5442.27 5827.16 5547.62 5861.69L5551.33 5862.91L5560.67 5865.96L5560.75 5865.98C5731.98 5921.8 5897.92 5969.72 6054.84 6010.27C6069.56 6014.07 6084.2 6017.81 6098.76 6021.48C6103.08 6022.57 6107.4 6023.66 6111.71 6024.74C6124.64 6027.98 6137.5 6031.16 6150.3 6034.3L6151.91 6034.7L6152.38 6034.81C6417.99 6099.87 6654.12 6143.04 6841.34 6167.05C8170.38 6337.53 8744.66 6473.13 9045.57 6979.97C9047.58 6983.4 9049.46 6986.37 9051.26 6989.21C9055.16 6995.38 9058.67 7000.92 9062.27 7009.17C9071.71 7030.73 9076.44 7073.59 9076.96 7119.84C9090.57 7343.07 8956 7534.79 8720.62 7742.21C8652.92 7801.87 8576.87 7862.83 8493.61 7926.22C8375.63 8016.03 8243.17 8110.71 8099.43 8213.45C8042.94 8253.82 7984.71 8295.45 7924.94 8338.51L7916.2 8344.8C7895.01 8357.84 7873.83 8370.7 7852.65 8383.39L7848.99 8386.06C7427.41 8695.68 7024.85 8866.76 6481.04 8948.98C5258.34 9215.78 4063.03 8814.47 2936.38 7585.2C2922.32 7569.86 2909.24 7561.58 2880.63 7549.58C2645.94 7449.52 2449 7383.94 2237.29 7351.17L2235.34 7350.87L2233.94 7350.65C1993.12 7313.8 1732.85 7319.31 1375.98 7364.73L1376.47 7362.81C1384.2 7332.64 1392.63 7305.03 1404.16 7277.76C1429.12 7218.77 1468.64 7161.39 1547.23 7083.18C1582.39 7048.19 1625.38 7009.02 1678.38 6963.67C1681.74 6960.8 1685.14 6957.91 1688.57 6954.99L1692.41 6951.73L1693.62 6950.7L1694.15 6950.25L1694.83 6949.68ZM4556.51 1554.99C4721.35 1584.32 5013.65 1661.34 5001.54 1672.29C4998.1 1675.4 4930.77 1666.54 4851.93 1652.61C4579.2 1604.44 4499.65 1596.29 4306.25 1596.55C4066.76 1596.87 3832.85 1635.7 3703.83 1696.55C3658.52 1717.89 3680.07 1717.54 3834.62 1694.34C4116.02 1652.13 4374.22 1670.17 4633.53 1750.24C5283.58 1950.92 5862.63 2329.36 6095.2 2705.46C6099.5 2712.42 6103.52 2718.98 6107.31 2725.16L6107.48 2725.43L6107.75 2725.87L6107.75 2725.88C6135.03 2770.4 6150.14 2795.06 6172.05 2809.16C6199.24 2826.66 6236.91 2827.89 6321.33 2830.64L6321.37 2830.64C6331.12 2830.96 6341.5 2831.3 6352.56 2831.68C6540.34 2838.23 6574.65 2847.7 6632.28 2908.87L6669.46 2948.34L6642.4 2843.3C6627.52 2785.5 6600.29 2703.7 6581.93 2661.52C6563.57 2619.32 6525.46 2528.4 6497.27 2459.44C6437.75 2313.93 6393.93 2232.47 6305.22 2102.72C6186.68 1929.29 6238.7 1908.81 6368.93 2077.66C6519.43 2272.85 6621.7 2435.85 6673.33 2562.84C6763 2783.48 6787.61 2814.45 7000.47 2974.91C7090.31 3042.63 7181.97 3115.16 7204.13 3136.05C7226.29 3156.91 7240.35 3165.55 7235.35 3155.21C7230.37 3144.85 7222.21 3125.78 7217.24 3112.79C7197.74 3061.89 7084.28 2860.21 7018.62 2759.73C6980.55 2701.54 6911.19 2573.49 6864.42 2475.19C6741.8 2217.45 6628.59 2007.37 6563.28 1916.36C6510.05 1842.16 6467.79 1755.44 6479.65 1744.72C6482.53 1742.12 6544.04 1753.26 6616.3 1769.5C7608.97 1992.29 8194.42 2625.68 8343.32 3637.86L8344.34 3644.83L8346.11 3656.9C8362.7 3770.21 8371.25 3828.56 8399.53 3874.83C8429.56 3923.94 8481.82 3959.45 8589.56 4032.65L8590.71 4033.43L8606.64 4044.26C8747.19 4139.83 8776.35 4178.53 8862.21 4383.13C8936.86 4561.05 8978.55 4619.59 9051.21 4648.63C9300.96 4748.47 9302.56 4936.64 9055.33 5138.37C8909.76 5257.15 8875.32 5302.14 8730.79 5562.19C8585.04 5824.33 8560.33 5858.54 8425.1 5984.92C8309.08 6093.33 8260.25 6166.86 8245.59 6255.21L8235.75 6314.36H8154.64H8073.5L8122.86 6210.96C8186.99 6076.45 8197.79 6051.1 8190.93 6051.1C8163.2 6051.1 8103.01 6085.47 8039.09 6137.78C7889.79 6259.96 7825.16 6258.84 7371.92 6126.26C7280.38 6099.46 7146.18 6062.85 7073.7 6044.87L7059.33 6041.31C6853.25 5990.21 6807.48 5978.87 6807.42 5967.27C6807.4 5963.97 6811.11 5960.64 6815.87 5956.36L6815.94 5956.3L6817.05 5955.3C6858.88 5917.5 6848.02 5770.09 6795.74 5665.79C6670.49 5416.01 6071.41 5042.22 5506.17 4861.22C5246.75 4778.13 4904.99 4720.01 5131.62 4797.51C5235.28 4832.94 5864.62 5122.23 5950.06 5173.67C6311.5 5391.43 6560.41 5659.88 6560.41 5832C6560.41 5861.65 6381.89 5858.41 6371.77 5828.6C6355.15 5779.53 6307.17 5694.19 6274.43 5655.42C6217.02 5587.37 5912.82 5386.21 5796.49 5332.08C5787.61 5327.95 5779.83 5324.67 5773.33 5322.38C5751.18 5312.75 5737.57 5305.46 5721.12 5294.7C5688.82 5272.73 5627.96 5236.92 5557.09 5198.84C5369.77 5098.16 5215.47 5007.37 5074.06 4914.68C4987.91 4858.2 4887.69 4819.21 4853.78 4828.93C4739.14 4861.79 3875.99 4661.92 3591.86 4536.66C3414.69 4458.58 3238.06 4300.97 3110.5 4107.06C3102.75 4095.28 3095.51 4084.33 3088.77 4074.13L3088.75 4074.09L3088.68 4074C3034.63 3992.21 3012.87 3959.3 3021.71 3942.22C3027.66 3930.71 3047.49 3926.39 3080.67 3919.16C3086.83 3917.82 3093.48 3916.37 3100.56 3914.76C3257.27 3879.2 3310.89 3841.39 3360.54 3731.51C3425.99 3586.58 3462.92 3533.85 3558.91 3448.06C3652.55 3364.43 3905.68 3169.46 4026.81 3087.72C4219.36 2957.78 4140.88 2473.72 3885.33 2214.98C3861.5 2190.85 3841.9 2167.26 3841.76 2162.57C3841.12 2137.51 3608.66 1989.4 3521.37 1958.46C3158.51 1829.8 3351.2 1597.09 3869 1538.62C3934.02 1531.27 4005.93 1522.96 4028.8 1520.1C4121.17 1508.65 4399.26 1527.03 4556.51 1554.99Z" fill="white"/>
<path fill-rule="evenodd" clip-rule="evenodd" d="M1694.15 6950.25L1693.62 6950.7C1693.21 6951.04 1692.81 6951.39 1692.41 6951.73C1692.99 6951.23 1693.57 6950.74 1694.15 6950.25Z" fill="#011329"/>
<path d="M1766.91 6897.3C1734.15 6919.78 1719.68 6930.67 1694.83 6949.68L1694.15 6950.25L1693.62 6950.7L1692.41 6951.73L1688.57 6954.99C1685.14 6957.91 1681.74 6960.8 1678.38 6963.67C1625.38 7009.02 1582.39 7048.19 1547.23 7083.18C1468.64 7161.39 1429.12 7218.77 1404.16 7277.76C1392.63 7305.03 1384.2 7332.64 1376.47 7362.81L1375.98 7364.73C1732.85 7319.31 1993.12 7313.8 2233.94 7350.65L2235.34 7350.87L2237.29 7351.17C2449 7383.94 2645.94 7449.52 2880.63 7549.58C2909.24 7561.58 2922.32 7569.86 2936.38 7585.2C4063.03 8814.47 5258.34 9215.78 6481.04 8948.98C7024.85 8866.76 7427.41 8695.68 7848.99 8386.06C7850.21 8385.17 7851.43 8384.27 7852.65 8383.39C7873.83 8370.7 7895.01 8357.84 7916.2 8344.8L7924.94 8338.51C7984.71 8295.45 8042.94 8253.82 8099.43 8213.45C8243.17 8110.71 8375.63 8016.03 8493.61 7926.22C8576.87 7862.83 8652.92 7801.87 8720.62 7742.21C8956 7534.79 9090.57 7343.07 9076.96 7119.84C9076.44 7073.59 9071.71 7030.73 9062.27 7009.17C9058.67 7000.92 9055.16 6995.38 9051.26 6989.21C9049.46 6986.37 9047.58 6983.4 9045.57 6979.97C8744.66 6473.13 8170.38 6337.53 6841.34 6167.05C6654.12 6143.04 6417.99 6099.87 6152.38 6034.81L6151.91 6034.7L6150.3 6034.3C6137.5 6031.16 6124.64 6027.98 6111.71 6024.74C6107.4 6023.66 6103.08 6022.57 6098.76 6021.48C6084.2 6017.81 6069.56 6014.07 6054.84 6010.27C5897.92 5969.72 5731.98 5921.8 5560.75 5865.98L5560.67 5865.96L5551.33 5862.91L5547.62 5861.69C5442.27 5827.16 5334.95 5789.63 5226.53 5749L5225.99 5748.8L5222.87 5747.63L5220.42 5746.71L5218.97 5746.16C5169.79 5727.68 5120.38 5708.55 5070.84 5688.77L5067.21 5687.32L5064.42 5686.21L5058.83 5683.96C5005.82 5662.7 4952.65 5640.69 4899.42 5617.92C4815.18 5581.88 4730.8 5543.95 4646.66 5504.05C3257.34 4845.3 1934.3 3652.94 2426.12 1679.02L2424.9 1680.37L2424.48 1680.83L2423 1682.46L2422.9 1682.57L2422.89 1682.58C2420.65 1685.04 2418.42 1687.51 2416.19 1689.97C2414.29 1692.07 2412.4 1694.17 2410.5 1696.27L2410.41 1696.37C2381.34 1728.59 2352.75 1760.95 2324.66 1793.47C2247.98 1882.25 2175.01 1972.33 2106.1 2064.58C2100.52 2072.06 2094.96 2079.55 2089.42 2087.06C1778.11 2509.53 1552.25 2978.64 1447.28 3577.04C1438.26 3628.44 1430.14 3680.8 1422.93 3734.16C1408.04 3844.39 1397.04 3958.91 1390.15 4078.19C1380.08 4252.63 1378.77 4437.25 1386.85 4633.49C1391.41 4744.06 1398.95 4858.33 1409.58 4976.54L1409.62 4977.08C1427.1 5171.35 1452.94 5376.28 1487.61 5593.01C1550.57 5986.56 1642.69 6419.03 1766.91 6897.3Z" fill="black"/>
<path d="M5001.54 1672.29C5013.65 1661.34 4721.35 1584.32 4556.51 1554.99C4399.26 1527.03 4121.17 1508.65 4028.8 1520.1C4005.93 1522.96 3934.02 1531.27 3869 1538.62C3351.2 1597.09 3158.51 1829.8 3521.37 1958.46C3608.66 1989.4 3841.12 2137.51 3841.76 2162.57C3841.9 2167.26 3861.5 2190.85 3885.33 2214.98C4140.88 2473.72 4219.36 2957.78 4026.81 3087.72C3905.68 3169.46 3652.55 3364.43 3558.91 3448.06C3462.92 3533.85 3425.99 3586.58 3360.54 3731.51C3310.89 3841.39 3257.27 3879.2 3100.56 3914.76C3093.48 3916.37 3086.83 3917.82 3080.67 3919.16C3047.49 3926.39 3027.66 3930.71 3021.71 3942.22C3012.87 3959.3 3034.63 3992.21 3088.68 4074L3088.75 4074.09L3088.77 4074.13C3095.51 4084.33 3102.75 4095.28 3110.5 4107.06C3238.06 4300.97 3414.69 4458.58 3591.86 4536.66C3875.99 4661.92 4739.14 4861.79 4853.78 4828.93C4887.69 4819.21 4987.91 4858.2 5074.06 4914.68C5215.47 5007.37 5369.77 5098.16 5557.09 5198.84C5627.96 5236.92 5688.82 5272.73 5721.12 5294.7C5737.57 5305.46 5751.18 5312.75 5773.33 5322.38C5779.83 5324.67 5787.61 5327.95 5796.49 5332.08C5912.82 5386.21 6217.02 5587.37 6274.43 5655.42C6307.17 5694.19 6355.15 5779.53 6371.77 5828.6C6381.89 5858.41 6560.41 5861.65 6560.41 5832C6560.41 5659.88 6311.5 5391.43 5950.06 5173.67C5864.62 5122.23 5235.28 4832.94 5131.62 4797.51C4904.99 4720.01 5246.75 4778.13 5506.17 4861.22C6071.41 5042.22 6670.49 5416.01 6795.74 5665.79C6848.02 5770.09 6858.88 5917.5 6817.05 5955.3L6815.94 5956.3L6815.87 5956.36C6811.11 5960.64 6807.4 5963.97 6807.42 5967.27C6807.48 5978.87 6853.25 5990.21 7059.33 6041.31L7073.7 6044.87C7146.18 6062.85 7280.38 6099.46 7371.92 6126.26C7825.16 6258.84 7889.79 6259.96 8039.09 6137.78C8103.01 6085.47 8163.2 6051.1 8190.93 6051.1C8197.79 6051.1 8186.99 6076.45 8122.86 6210.96L8073.5 6314.36H8154.64H8235.75L8245.59 6255.21C8260.25 6166.86 8309.08 6093.33 8425.1 5984.92C8560.33 5858.54 8585.04 5824.33 8730.79 5562.19C8875.32 5302.14 8909.76 5257.15 9055.33 5138.37C9302.56 4936.64 9300.96 4748.47 9051.21 4648.63C8978.55 4619.59 8936.86 4561.05 8862.21 4383.13C8776.35 4178.53 8747.19 4139.83 8606.64 4044.26C8601.2 4040.56 8595.89 4036.95 8590.71 4033.43L8589.56 4032.65C8481.82 3959.45 8429.56 3923.94 8399.53 3874.83C8371.25 3828.56 8362.7 3770.21 8346.11 3656.9L8344.34 3644.83L8343.32 3637.86C8194.42 2625.68 7608.97 1992.29 6616.3 1769.5C6544.04 1753.26 6482.53 1742.12 6479.65 1744.72C6467.79 1755.44 6510.05 1842.16 6563.28 1916.36C6628.59 2007.37 6741.8 2217.45 6864.42 2475.19C6911.19 2573.49 6980.55 2701.54 7018.62 2759.73C7084.28 2860.21 7197.74 3061.89 7217.24 3112.79C7222.21 3125.78 7230.37 3144.85 7235.35 3155.21C7240.35 3165.55 7226.29 3156.91 7204.13 3136.05C7181.97 3115.16 7090.31 3042.63 7000.47 2974.91C6787.61 2814.45 6763 2783.48 6673.33 2562.84C6621.7 2435.85 6519.43 2272.85 6368.93 2077.66C6238.7 1908.81 6186.68 1929.29 6305.22 2102.72C6393.93 2232.47 6437.75 2313.93 6497.27 2459.44C6525.46 2528.4 6563.57 2619.32 6581.93 2661.52C6600.29 2703.7 6627.52 2785.5 6642.4 2843.3L6669.46 2948.34L6632.28 2908.87C6574.65 2847.7 6540.34 2838.23 6352.56 2831.68C6341.5 2831.3 6331.12 2830.96 6321.37 2830.64L6321.33 2830.64C6236.91 2827.89 6199.24 2826.66 6172.05 2809.16C6150.14 2795.06 6135.03 2770.4 6107.75 2725.88L6107.75 2725.87L6107.48 2725.43L6107.31 2725.16C6103.52 2718.98 6099.5 2712.42 6095.2 2705.46C5862.63 2329.36 5283.58 1950.92 4633.53 1750.24C4374.22 1670.17 4116.02 1652.13 3834.62 1694.34C3680.07 1717.54 3658.52 1717.89 3703.83 1696.55C3832.85 1635.7 4066.76 1596.87 4306.25 1596.55C4499.65 1596.29 4579.2 1604.44 4851.93 1652.61C4930.77 1666.54 4998.1 1675.4 5001.54 1672.29Z" fill="black"/>
</g>
<defs>
<filter id="filter0_b_213_2" x="-249.285" y="-249.664" width="11078.9" height="11078.9" filterUnits="userSpaceOnUse" color-interpolation-filters="sRGB">
<feFlood flood-opacity="0" result="BackgroundImageFix"/>
<feGaussianBlur in="BackgroundImageFix" stdDeviation="125"/>
<feComposite in2="SourceAlpha" operator="in" result="effect1_backgroundBlur_213_2"/>
<feBlend mode="normal" in="SourceGraphic" in2="effect1_backgroundBlur_213_2" result="shape"/>
</filter>
</defs>
</svg>
