<svg xmlns="http://www.w3.org/2000/svg" width="219" height="107" viewBox="0 0 219 107" fill="none"><path d="M218.72 106.593V101.193C218.784 100.326 218.509 99.4672 217.952 98.799C217.688 98.5279 217.371 98.3156 217.019 98.1761C216.668 98.0367 216.291 97.9733 215.913 97.99C215.377 97.9417 214.839 98.0619 214.374 98.3341C213.909 98.6062 213.541 99.0166 213.321 99.508C213.327 99.0671 213.305 98.6262 213.255 98.188H211.67C211.681 98.6173 211.687 99.3217 211.686 100.301V106.591H213.321V102.1C213.321 100.273 214.014 99.3597 215.401 99.359C216.534 99.359 217.101 100.036 217.101 101.39V106.59L218.72 106.593ZM215.055 90.624C215.78 89.7303 216.155 88.6038 216.112 87.454C216.169 86.2985 215.789 85.1639 215.047 84.276C214.693 83.8794 214.256 83.566 213.766 83.3585C213.277 83.1511 212.747 83.0546 212.216 83.076C211.665 83.0491 211.114 83.1465 210.605 83.361C210.097 83.5754 209.643 83.9015 209.277 84.315C208.584 85.2239 208.207 86.3346 208.204 87.4776C208.201 88.6207 208.572 89.7334 209.26 90.646C209.613 91.0531 210.053 91.3751 210.548 91.5881C211.042 91.8011 211.579 91.8995 212.117 91.876C212.67 91.9047 213.222 91.8065 213.731 91.589C214.241 91.3715 214.693 91.0404 215.055 90.621V90.624ZM214.461 87.484C214.504 88.272 214.294 89.053 213.861 89.713C213.673 89.9795 213.421 90.1947 213.129 90.3389C212.836 90.4832 212.512 90.552 212.186 90.539C211.857 90.548 211.531 90.4751 211.237 90.3267C210.943 90.1783 210.69 89.9592 210.502 89.689C210.058 89.0362 209.837 88.2568 209.874 87.468C209.828 86.6767 210.034 85.8911 210.46 85.223C210.652 84.9574 210.908 84.7442 211.203 84.6029C211.499 84.4615 211.826 84.3966 212.153 84.414C212.484 84.3984 212.813 84.4657 213.112 84.6098C213.41 84.7539 213.668 84.9701 213.861 85.239C214.295 85.9045 214.505 86.6909 214.461 87.484ZM208.294 99.184C207.94 98.7872 207.502 98.4738 207.013 98.2663C206.523 98.0588 205.993 97.9624 205.462 97.984C204.911 97.9571 204.36 98.0543 203.852 98.2686C203.343 98.4829 202.889 98.8087 202.523 99.222C201.83 100.131 201.453 101.242 201.45 102.385C201.447 103.528 201.818 104.641 202.507 105.553C202.859 105.96 203.299 106.282 203.794 106.495C204.289 106.708 204.825 106.807 205.363 106.783C205.916 106.812 206.468 106.714 206.978 106.496C207.487 106.279 207.94 105.948 208.302 105.529C209.026 104.635 209.402 103.509 209.359 102.359C209.416 101.203 209.036 100.069 208.294 99.181V99.184ZM207.708 102.392C207.75 103.18 207.54 103.961 207.108 104.621C206.919 104.887 206.667 105.102 206.375 105.246C206.082 105.39 205.758 105.459 205.432 105.446C205.103 105.455 204.777 105.382 204.483 105.234C204.189 105.085 203.936 104.866 203.748 104.596C203.304 103.943 203.084 103.164 203.121 102.375C203.075 101.584 203.28 100.798 203.707 100.13C203.899 99.8645 204.154 99.6514 204.45 99.5101C204.746 99.3688 205.072 99.3038 205.399 99.321C205.73 99.3055 206.06 99.3729 206.358 99.5169C206.656 99.661 206.914 99.8772 207.108 100.146C207.542 100.812 207.752 101.599 207.708 102.392ZM204.341 91.673H205.909C205.898 91.1337 205.892 90.3467 205.892 89.312V79.579H204.274V84.1C203.933 83.418 203.162 83.0767 201.963 83.076C201.437 83.0558 200.914 83.1588 200.436 83.3767C199.957 83.5946 199.536 83.9214 199.206 84.331C198.494 85.2554 198.131 86.4014 198.182 87.567C198.129 88.6855 198.465 89.7879 199.132 90.687C199.433 91.0727 199.821 91.3817 200.264 91.5883C200.707 91.795 201.193 91.8936 201.682 91.876C202.198 91.9369 202.721 91.8421 203.182 91.6039C203.644 91.3656 204.024 90.9948 204.274 90.539C204.269 90.9198 204.292 91.3004 204.341 91.678V91.673ZM204.324 87.369C204.329 87.7809 204.298 88.1924 204.233 88.599C204.174 88.9413 204.063 89.2725 203.903 89.581C203.75 89.8825 203.504 90.1275 203.203 90.281C202.843 90.452 202.447 90.534 202.048 90.52C201.741 90.5263 201.436 90.4575 201.161 90.3195C200.887 90.1815 200.65 89.9784 200.471 89.728C200.034 89.076 199.823 88.2985 199.871 87.515C199.821 86.7109 200.032 85.9122 200.471 85.237C200.665 84.9734 200.921 84.7617 201.216 84.6206C201.511 84.4794 201.836 84.4133 202.163 84.428C202.488 84.3864 202.818 84.4318 203.12 84.5595C203.421 84.6872 203.684 84.8927 203.88 85.155C204.222 85.8398 204.376 86.6032 204.326 87.367L204.324 87.369ZM199.126 94.486H197.508V96.352H199.126V94.486ZM194.256 91.676H195.874V86.276C195.938 85.4086 195.662 84.5504 195.106 83.882C194.842 83.611 194.524 83.3988 194.173 83.2593C193.822 83.1199 193.445 83.0564 193.067 83.073C192.531 83.0249 191.993 83.1454 191.528 83.4177C191.063 83.69 190.695 84.1005 190.475 84.592C190.481 84.1507 190.459 83.7095 190.409 83.271H188.824C188.835 83.701 188.841 84.4057 188.841 85.385V91.675H190.475V87.19C190.475 85.3627 191.168 84.4493 192.555 84.45C193.688 84.45 194.255 85.1267 194.255 86.48L194.256 91.676ZM188.906 100.76C188.906 98.9113 187.827 97.987 185.67 97.987C184.795 97.9019 183.92 98.1557 183.226 98.696C182.715 99.1688 182.402 99.8183 182.351 100.513H183.92C183.981 100.159 184.142 99.8298 184.382 99.563C184.736 99.2958 185.179 99.1748 185.62 99.225C186.753 99.225 187.32 99.7423 187.32 100.777V101.454H185.933C184.905 101.392 183.881 101.63 182.986 102.139C182.647 102.364 182.374 102.673 182.193 103.037C182.012 103.401 181.929 103.805 181.954 104.211C181.948 104.546 182.009 104.879 182.132 105.19C182.255 105.502 182.439 105.786 182.672 106.027C182.953 106.294 183.287 106.5 183.653 106.631C184.018 106.761 184.407 106.814 184.794 106.786C185.292 106.848 185.798 106.764 186.249 106.544C186.7 106.325 187.078 105.978 187.336 105.548C187.353 105.899 187.402 106.247 187.485 106.588H189.02C188.924 105.959 188.886 105.324 188.905 104.688L188.906 100.76ZM187.337 102.807C187.342 103.158 187.317 103.509 187.263 103.856C187.212 104.153 187.114 104.439 186.974 104.706C186.828 104.985 186.592 105.206 186.305 105.334C185.943 105.489 185.551 105.562 185.158 105.548C184.951 105.559 184.744 105.53 184.549 105.461C184.353 105.393 184.173 105.286 184.019 105.148C183.881 105.013 183.773 104.851 183.702 104.672C183.631 104.493 183.598 104.301 183.606 104.108C183.606 103.062 184.421 102.539 186.05 102.539H187.337V102.807ZM185.748 52.661C187.245 49.2113 188.005 45.4866 187.977 41.726C187.995 38.0099 187.236 34.3311 185.748 30.926C182.887 24.2637 177.575 18.9557 170.91 16.1C167.505 14.612 163.826 13.8531 160.11 13.872C156.351 13.8446 152.628 14.6035 149.179 16.1C142.514 18.9585 137.203 24.2698 134.344 30.935C132.855 34.3398 132.096 38.0189 132.116 41.735C132.087 45.4956 132.846 49.2205 134.344 52.67C137.204 59.3333 142.515 64.6427 149.179 67.5C152.628 68.9988 156.353 69.7582 160.114 69.729C163.83 69.7491 167.509 68.9897 170.914 67.5C177.579 64.6415 182.89 59.3302 185.749 52.665L185.748 52.661ZM133.449 83.276H132.029V84.564H133.449V89.664C133.402 90.239 133.567 90.8113 133.911 91.274C134.107 91.4618 134.341 91.6055 134.598 91.6952C134.854 91.7849 135.127 91.8186 135.397 91.794C135.835 91.8116 136.274 91.7613 136.697 91.645V90.443C136.47 90.4961 136.237 90.5183 136.004 90.509C135.867 90.5259 135.729 90.51 135.599 90.4625C135.47 90.415 135.354 90.3373 135.261 90.236C135.105 89.9629 135.036 89.6493 135.061 89.336V84.565H136.877V83.277H135.061V80.834H133.443L133.449 83.276ZM131.6 14.164H127.136H117.67L108.2 50.538L98.588 14.138H84.659L101.322 76.956L98.449 87.992H112.24L131.6 14.164ZM88.856 62.564L81.575 34.957L76.307 14.257H62.377L65.787 27.183H46.65V0.04H32.581V62.565H46.65V41.392H69.356L74.928 62.565L88.856 62.564ZM28.792 25.752V23.587H20.253V19.987H18.02V23.587H10.773V19.987H8.539V23.587H0V25.752H28.792ZM5.881 10.252C5.45081 10.9827 5.22395 11.8151 5.22395 12.663C5.22395 13.5109 5.45081 14.3433 5.881 15.074C6.30909 15.7969 6.9123 16.4005 7.635 16.829C8.36312 17.2651 9.19732 17.492 10.046 17.485H18.746C19.5947 17.492 20.4289 17.2651 21.157 16.829C21.8798 16.4002 22.4832 15.7968 22.912 15.074C23.3415 14.3431 23.5679 13.5107 23.5679 12.663C23.5679 11.8153 23.3415 10.9829 22.912 10.252C22.4828 9.53034 21.8794 8.92794 21.157 8.5C20.4291 8.06346 19.5947 7.83644 18.746 7.844H10.046C9.19725 7.83644 8.36291 8.06346 7.635 8.5C6.9123 8.9285 6.30909 9.53205 5.881 10.255V10.252ZM7.993 12.744C7.993 12.3686 8.06696 11.9969 8.21065 11.6501C8.35434 11.3032 8.56495 10.9881 8.83044 10.7227C9.09594 10.4573 9.41112 10.2468 9.75798 10.1033C10.1048 9.9597 10.4766 9.88587 10.852 9.886H17.844C18.3461 9.88324 18.8396 10.0155 19.273 10.269C19.7082 10.5188 20.0692 10.8798 20.319 11.315C20.5705 11.7494 20.703 12.2425 20.703 12.7445C20.703 13.2465 20.5705 13.7396 20.319 14.174C20.069 14.609 19.708 14.97 19.273 15.22C18.8394 15.4731 18.346 15.6053 17.844 15.603H10.852C10.0939 15.6025 9.36702 15.3011 8.83097 14.765C8.29492 14.229 7.99353 13.5021 7.993 12.744ZM2.625 5.91H26.167V3.744H2.625V5.91ZM8.925 2.166H19.867V0H8.925V2.166ZM132.489 104.216C132.478 104.893 132.737 105.546 133.207 106.032C133.488 106.299 133.822 106.505 134.188 106.636C134.553 106.766 134.942 106.819 135.329 106.791C135.827 106.853 136.333 106.769 136.784 106.549C137.235 106.33 137.613 105.983 137.871 105.553C137.888 105.904 137.937 106.252 138.02 106.593H139.555C139.459 105.964 139.421 105.329 139.44 104.693V100.763C139.44 98.9143 138.361 97.99 136.204 97.99C135.329 97.9049 134.454 98.1587 133.76 98.699C133.249 99.1718 132.936 99.8213 132.885 100.516H134.454C134.515 100.162 134.676 99.8328 134.916 99.566C135.27 99.2988 135.713 99.1778 136.154 99.228C137.287 99.228 137.854 99.7453 137.854 100.78V101.457H136.467C135.439 101.395 134.415 101.633 133.52 102.142C133.181 102.367 132.908 102.676 132.727 103.04C132.546 103.404 132.463 103.808 132.488 104.214L132.489 104.216ZM134.139 104.114C134.139 103.068 134.954 102.545 136.583 102.545H137.87V102.809C137.875 103.16 137.85 103.511 137.796 103.858C137.745 104.155 137.647 104.442 137.507 104.708C137.361 104.986 137.126 105.208 136.839 105.336C136.477 105.49 136.085 105.564 135.691 105.55C135.484 105.561 135.277 105.532 135.082 105.463C134.886 105.395 134.706 105.288 134.552 105.15C134.414 105.015 134.306 104.853 134.235 104.674C134.164 104.495 134.131 104.303 134.139 104.11V104.114ZM139.051 91.11C139.332 91.3773 139.666 91.5828 140.031 91.7135C140.397 91.8442 140.785 91.8972 141.172 91.869C141.67 91.9311 142.176 91.8472 142.627 91.6274C143.079 91.4076 143.457 91.0615 143.715 90.631C143.731 90.9817 143.781 91.3299 143.864 91.671H145.4C145.304 91.0425 145.265 90.4065 145.284 89.771V85.853C145.284 84.0043 144.206 83.0797 142.049 83.079C141.173 82.9941 140.299 83.2482 139.605 83.789C139.094 84.2616 138.781 84.9107 138.73 85.605H140.3C140.362 85.2513 140.522 84.9222 140.763 84.656C141.117 84.389 141.56 84.268 142 84.318C143.133 84.318 143.7 84.835 143.7 85.869V86.546H142.313C141.285 86.4841 140.261 86.7225 139.366 87.232C139.027 87.4566 138.754 87.7662 138.573 88.1299C138.392 88.4936 138.309 88.8985 138.334 89.304C138.328 89.639 138.389 89.9719 138.512 90.2835C138.635 90.5951 138.819 90.8793 139.052 91.12L139.051 91.11ZM139.985 89.205C139.985 88.159 140.799 87.636 142.428 87.636H143.716V87.9C143.72 88.2511 143.695 88.6019 143.642 88.949C143.59 89.2456 143.493 89.5324 143.353 89.799C143.207 90.0772 142.971 90.298 142.684 90.426C142.322 90.5809 141.93 90.6543 141.537 90.641C141.33 90.6524 141.123 90.623 140.928 90.5544C140.732 90.4857 140.552 90.3793 140.398 90.241C140.26 90.1063 140.152 89.9441 140.081 89.7649C140.01 89.5857 139.977 89.3936 139.985 89.201V89.205ZM143.155 104.162H141.537C141.618 104.913 141.991 105.601 142.577 106.077C143.296 106.592 144.17 106.843 145.053 106.787C145.935 106.844 146.809 106.59 147.522 106.069C147.8 105.847 148.023 105.564 148.173 105.242C148.323 104.92 148.397 104.567 148.388 104.212C148.401 103.907 148.352 103.603 148.244 103.318C148.136 103.033 147.972 102.773 147.761 102.553C147.047 101.992 146.199 101.625 145.301 101.488C144.786 101.395 144.29 101.22 143.832 100.968C143.715 100.889 143.62 100.782 143.557 100.656C143.493 100.53 143.462 100.39 143.468 100.249C143.466 100.108 143.495 99.9677 143.553 99.8392C143.612 99.7106 143.699 99.5968 143.807 99.506C144.126 99.2781 144.516 99.1718 144.907 99.206C145.297 99.1511 145.693 99.247 146.015 99.474C146.337 99.701 146.561 100.042 146.64 100.428H148.192C148.139 99.7602 147.825 99.1402 147.317 98.703C146.627 98.2379 145.815 97.988 144.984 97.9849C144.152 97.9819 143.338 98.2259 142.645 98.686C142.4 98.8943 142.203 99.1538 142.069 99.4463C141.935 99.7389 141.867 100.057 141.869 100.379C141.857 100.66 141.904 100.94 142.008 101.202C142.111 101.463 142.268 101.7 142.469 101.897C143.161 102.414 143.968 102.754 144.821 102.888C145.357 102.988 145.869 103.187 146.332 103.474C146.461 103.577 146.563 103.71 146.631 103.861C146.698 104.011 146.729 104.176 146.72 104.341C146.72 105.133 146.187 105.529 145.12 105.53C144.68 105.591 144.234 105.483 143.87 105.229C143.506 104.975 143.251 104.593 143.156 104.159L143.155 104.162ZM147.63 87.559C147.597 88.6544 147.931 89.7294 148.579 90.613C148.911 91.035 149.341 91.3698 149.831 91.5885C150.322 91.8072 150.858 91.9031 151.394 91.868C151.908 91.8755 152.419 91.7947 152.905 91.629C153.304 91.5008 153.67 91.286 153.977 91C154.224 90.7595 154.438 90.4875 154.613 90.191C154.769 89.9159 154.896 89.6254 154.992 89.324H153.358C153.222 89.6731 152.997 89.9806 152.706 90.216C152.333 90.4623 151.889 90.5783 151.443 90.546C151.136 90.5577 150.831 90.4937 150.555 90.3598C150.278 90.2259 150.039 90.0261 149.858 89.778C149.449 89.1971 149.238 88.4994 149.258 87.789H155.103C155.129 87.5586 155.14 87.3268 155.136 87.095C155.138 86.6152 155.074 86.1375 154.946 85.675C154.818 85.222 154.618 84.7927 154.352 84.404C154.06 83.9894 153.664 83.6593 153.204 83.447C152.667 83.1956 152.08 83.0711 151.487 83.083C150.944 83.0516 150.402 83.149 149.905 83.3671C149.407 83.5852 148.968 83.9179 148.623 84.338C147.926 85.2689 147.573 86.4122 147.623 87.574L147.63 87.559ZM149.307 86.682C149.461 85.12 150.182 84.3387 151.47 84.338C151.754 84.3205 152.038 84.3705 152.298 84.4838C152.559 84.5971 152.789 84.7706 152.97 84.99C153.329 85.4798 153.515 86.075 153.498 86.682H149.307ZM151.684 104.17H150.066C150.147 104.92 150.521 105.609 151.106 106.085C151.825 106.6 152.7 106.851 153.583 106.795C154.464 106.852 155.338 106.598 156.051 106.077C156.329 105.856 156.552 105.573 156.703 105.25C156.853 104.928 156.927 104.575 156.918 104.22C156.931 103.915 156.882 103.611 156.774 103.326C156.666 103.041 156.501 102.781 156.29 102.561C155.576 102 154.728 101.633 153.83 101.496C153.316 101.403 152.819 101.227 152.361 100.976C152.244 100.897 152.15 100.789 152.086 100.664C152.023 100.538 151.992 100.398 151.998 100.257C151.996 100.116 152.025 99.9759 152.083 99.8474C152.142 99.7189 152.228 99.605 152.336 99.514C152.655 99.2865 153.045 99.1801 153.436 99.214C153.826 99.1594 154.223 99.2552 154.545 99.4822C154.867 99.7092 155.09 100.05 155.17 100.436H156.722C156.669 99.7683 156.354 99.1485 155.847 98.711C155.157 98.2457 154.345 97.9956 153.513 97.9926C152.681 97.9896 151.867 98.2337 151.174 98.694C150.929 98.9023 150.732 99.1618 150.598 99.4543C150.464 99.7469 150.396 100.065 150.398 100.387C150.386 100.668 150.433 100.948 150.537 101.21C150.64 101.471 150.797 101.708 150.998 101.905C151.69 102.422 152.498 102.762 153.351 102.896C153.886 102.996 154.398 103.195 154.861 103.482C154.99 103.585 155.092 103.718 155.16 103.869C155.227 104.019 155.258 104.184 155.249 104.349C155.249 105.141 154.716 105.537 153.649 105.538C153.209 105.599 152.762 105.491 152.398 105.237C152.034 104.983 151.779 104.601 151.684 104.167V104.17ZM159.1 79.579H157.482V91.679H159.1V88.759L160.322 87.57L163.013 91.681H164.9L161.433 86.53L164.553 83.277H162.638C162.418 83.5197 161.84 84.153 160.905 85.177C159.97 86.201 159.37 86.8723 159.105 87.191L159.1 79.579ZM159.76 99.23C159.067 100.139 158.69 101.25 158.687 102.393C158.684 103.536 159.055 104.649 159.744 105.561C160.096 105.968 160.536 106.29 161.031 106.503C161.526 106.716 162.062 106.815 162.6 106.791C163.153 106.82 163.705 106.722 164.215 106.504C164.724 106.287 165.177 105.956 165.539 105.537C166.263 104.643 166.638 103.517 166.595 102.367C166.652 101.211 166.272 100.077 165.53 99.189C165.176 98.7924 164.739 98.479 164.249 98.2715C163.76 98.0641 163.23 97.9676 162.699 97.989C162.148 97.9621 161.597 98.0593 161.089 98.2736C160.58 98.4879 160.126 98.8137 159.76 99.227V99.23ZM160.36 102.38C160.314 101.589 160.519 100.803 160.946 100.135C161.138 99.8695 161.393 99.6563 161.689 99.515C161.985 99.3737 162.311 99.3087 162.638 99.326C162.969 99.3105 163.299 99.3779 163.597 99.5219C163.895 99.666 164.153 99.8822 164.347 100.151C164.741 100.831 164.949 101.603 164.949 102.388C164.949 103.174 164.741 103.946 164.347 104.626C164.158 104.892 163.906 105.107 163.614 105.251C163.321 105.395 162.997 105.464 162.671 105.451C162.342 105.46 162.016 105.387 161.722 105.239C161.428 105.09 161.175 104.871 160.987 104.601C160.543 103.948 160.323 103.169 160.36 102.38ZM165.26 83.274L167.687 91.674H169.487C170.566 87.7887 171.149 85.5707 171.237 85.02H171.254C171.264 85.098 171.831 87.316 172.954 91.674H174.704L177.28 83.274H175.645C174.677 86.83 174.088 89.0867 173.879 90.044H173.862C173.774 89.57 173.191 87.3133 172.112 83.274H170.544C169.487 87.028 168.871 89.334 168.695 90.192H168.678C168.579 89.576 168.013 87.27 166.978 83.274H165.26ZM169.5 99.271C168.791 100.169 168.423 101.289 168.46 102.433C168.399 103.579 168.757 104.709 169.467 105.611C169.81 106.005 170.238 106.316 170.718 106.52C171.199 106.724 171.719 106.817 172.241 106.791C173.107 106.845 173.961 106.564 174.626 106.007C175.204 105.47 175.605 104.77 175.778 104H174.178C174.081 104.427 173.838 104.808 173.492 105.076C173.145 105.344 172.716 105.483 172.278 105.47C171.964 105.481 171.652 105.41 171.374 105.264C171.096 105.118 170.861 104.901 170.693 104.636C170.286 103.957 170.09 103.173 170.131 102.382C170.09 101.597 170.292 100.819 170.709 100.153C170.886 99.8889 171.128 99.6745 171.411 99.5301C171.694 99.3857 172.009 99.3161 172.327 99.328C172.769 99.2915 173.208 99.4272 173.553 99.7067C173.897 99.9861 174.121 100.388 174.176 100.828H175.776C175.74 100.518 175.659 100.215 175.536 99.928C175.394 99.5997 175.205 99.2939 174.975 99.02C174.688 98.69 174.326 98.435 173.918 98.277C173.422 98.0778 172.892 97.9799 172.358 97.989C171.815 97.9644 171.274 98.0673 170.778 98.2894C170.282 98.5115 169.845 98.8466 169.502 99.268L169.5 99.271ZM179.702 94.488H178.084V96.354H179.702V94.488ZM179.653 90.646C180.006 91.053 180.446 91.3751 180.94 91.5881C181.435 91.8011 181.971 91.8995 182.509 91.876C183.062 91.9048 183.615 91.8066 184.124 91.5891C184.633 91.3716 185.086 91.0404 185.448 90.621C186.172 89.7271 186.548 88.6008 186.505 87.451C186.562 86.2955 186.182 85.1609 185.44 84.273C185.086 83.8762 184.648 83.5628 184.159 83.3553C183.669 83.1478 183.139 83.0514 182.608 83.073C182.057 83.0463 181.507 83.1437 180.998 83.3582C180.489 83.5726 180.036 83.8986 179.67 84.312C178.977 85.2209 178.6 86.3316 178.597 87.4746C178.594 88.6177 178.965 89.7304 179.653 90.643V90.646ZM180.264 87.465C180.218 86.6736 180.423 85.8879 180.85 85.22C181.042 84.9545 181.297 84.7413 181.593 84.6C181.889 84.4587 182.215 84.3937 182.542 84.411C182.873 84.3954 183.203 84.4627 183.501 84.6068C183.8 84.7509 184.057 84.9671 184.251 85.236C184.646 85.9154 184.854 86.6872 184.854 87.473C184.854 88.2588 184.646 89.0306 184.251 89.71C184.063 89.9765 183.811 90.1917 183.518 90.3359C183.225 90.4802 182.901 90.549 182.575 90.536C182.246 90.5449 181.92 90.4718 181.626 90.3235C181.332 90.1751 181.079 89.956 180.891 89.686C180.447 89.0329 180.227 88.2536 180.264 87.465ZM179.702 98.184H178.084V106.584H179.702V98.184ZM192.084 98.184H190.664V99.471H192.084V104.571C192.037 105.146 192.202 105.718 192.546 106.181C192.742 106.369 192.976 106.512 193.233 106.602C193.489 106.692 193.762 106.726 194.032 106.701C194.47 106.718 194.909 106.668 195.332 106.552V105.352C195.105 105.405 194.871 105.427 194.638 105.418C194.501 105.435 194.363 105.419 194.234 105.372C194.105 105.324 193.988 105.247 193.895 105.146C193.74 104.873 193.67 104.559 193.695 104.246V99.477H195.511V98.19H193.695V95.746H192.077L192.084 98.184ZM199.118 98.184H197.5V106.584H199.118V98.184Z" fill="black"></path></svg>