<svg width="3278" height="551" viewBox="0 0 3278 551" fill="none" xmlns="http://www.w3.org/2000/svg">
<path d="M169.587 46.6582C68.5755 53.74 8.10274 108.078 8.10274 191.759C8.10274 262.562 44.2962 300.548 145.513 335.974C220.819 362.326 242.229 379.189 240.556 410.834C238.744 445.3 214.169 457.984 152.081 456.512C106.392 455.423 78.8825 449.235 41.9593 431.738C36.0391 428.924 30.9307 426.884 30.6191 427.193C30.2993 427.51 23.5182 446.048 15.5481 468.399C7.57796 490.742 0.616421 510.037 0.0834407 511.273C-2.17967 516.492 42.0741 534.331 74.2989 541.186C140.175 555.195 213.694 553.26 263.72 536.209C326.07 514.956 358.115 466.269 354.737 397.922C350.85 319.314 316.19 285.954 193.662 242.877C137.149 223.014 120.275 208.378 121.627 180.368C122.833 155.325 140.233 143.389 179.952 140.349C215.58 137.617 250.764 144.203 286.982 160.358C293.304 163.18 298.856 165.578 299.315 165.692C299.774 165.806 306.203 149.561 313.599 129.592C320.987 109.631 328.178 90.2389 329.563 86.515L332.089 79.734L320.798 74.449C276.602 53.7563 219.089 43.1864 169.587 46.6582Z" fill="black"/>
<path fill-rule="evenodd" clip-rule="evenodd" d="M1612.68 11.7042C1629.1 9.08607 1652.68 5.29715 1665.09 3.28073C1677.5 1.27244 1688 -0.191094 1688.41 0.0203046C1688.83 0.239834 1689.16 39.6007 1689.16 87.4988V174.587L1691.42 173.904C1727.7 162.968 1776.48 163.033 1810.97 174.05C1855.66 188.328 1883.34 217.94 1894.75 263.692C1902.53 294.963 1902.8 300.329 1902.81 428.713V540.356H1797.6L1797.19 429.217L1797.18 424.283C1796.83 327.727 1796.77 313.82 1793.6 300.655C1793.06 298.441 1792.44 296.248 1791.71 293.686L1791.49 292.881C1781.18 256.545 1751 246.674 1693.86 260.935L1689.16 262.114V540.356H1582.85V16.4769L1612.68 11.7042ZM1268.4 82.409L1318.54 74.2945C1346.13 69.8389 1369.71 66.1313 1370.96 66.0662L1373.21 65.9443V173.359H1498.59V260.879H1373.21V329.047C1373.21 418.696 1374.91 431.534 1388.77 446.755C1403.53 462.943 1447.16 465.147 1488.95 451.821C1493.96 450.227 1498.34 449.243 1498.7 449.633C1499.86 450.934 1513.72 529.729 1512.92 530.51C1509.65 533.665 1470.44 544.405 1453.45 546.788C1360.32 559.87 1294.55 528.648 1275.89 462.513C1268.06 434.746 1267.76 426.014 1268.09 243.007L1268.4 82.409ZM860.116 438.267C854.844 412.443 854.672 407.663 854.664 285.994L854.655 173.359H959.882L960.251 284.498L960.279 293.136V293.141C960.59 387.427 960.639 402.012 964.453 415.553C965.148 418.023 965.969 420.458 966.939 423.335L966.944 423.348L966.947 423.357L966.951 423.368L967.222 424.172L967.426 424.778C977.61 455.122 1003 464.513 1057.01 457.927L1068.3 456.545V173.359H1173.62V528.347L1169.85 529.347C1116.36 543.543 1039.36 551.91 994.665 548.381C916.899 542.242 874.22 507.313 860.116 438.267Z" fill="black"/>
<path d="M2307.03 47.1216C2204.06 54.8702 2141.7 119.566 2151.48 208.508C2158.19 269.611 2195.58 304.289 2289.47 336.47C2359.32 360.415 2382.03 377.181 2383.09 405.597C2384.45 441.885 2361.11 456.813 2303.02 456.805C2255.81 456.805 2222.92 449.853 2184.4 431.73C2178.46 428.941 2173.44 426.843 2173.22 427.063C2171.83 428.526 2142.55 512.728 2143.11 513.639C2144.61 516.045 2171.43 527.819 2186.94 532.884C2256.9 555.707 2355.79 556.317 2412.1 534.274C2469.42 511.825 2497.04 470.302 2497.01 406.589C2496.97 321.404 2462.39 286.677 2332.6 241.527C2284.67 224.851 2265.77 209.663 2264.17 186.523C2262.19 157.748 2280.04 143.593 2322.41 140.349C2359.95 137.47 2401.37 145.869 2436.57 163.489C2439.91 165.164 2442.73 166.383 2442.85 166.212C2442.97 166.042 2449.93 147.227 2458.31 124.412C2466.7 101.598 2473.83 82.2301 2474.16 81.3845C2475.31 78.4006 2442.5 64.6433 2416.35 57.1387C2384.59 48.0323 2344.19 44.3328 2307.03 47.1216Z" fill="black"/>
<path fill-rule="evenodd" clip-rule="evenodd" d="M2707.15 165.871C2611.91 181.262 2554.39 258.431 2557.07 367.228C2560.53 507.858 2661.65 573.318 2828.38 542.869C2858.72 537.331 2882.43 529.802 2882.09 525.835C2881.82 522.46 2868.5 443.397 2868.16 443.023C2867.97 442.828 2863.88 444.072 2859.08 445.796C2808.19 464.057 2740.24 465.366 2706.96 448.723C2684.04 437.267 2665.11 412.476 2665.11 393.93C2665.11 392.255 2670.89 392.165 2783.35 392.165H2901.59L2902.24 389.93C2905.14 380.164 2903.81 323.249 2900.19 301.662C2887.9 228.299 2842.87 180.636 2773.17 167.245C2759.47 164.611 2720.02 163.789 2707.15 165.871ZM2801.76 314.834C2798.36 283.051 2779.3 258.553 2753.27 252.463C2709.89 242.324 2673.49 268.44 2665.63 315.338L2664.93 319.558H2802.27L2801.76 314.834Z" fill="black"/>
<path fill-rule="evenodd" clip-rule="evenodd" d="M3076.34 166.326C3039.07 170.44 2994.09 179.23 2994.09 182.401C2994.09 184.149 3007.17 265.228 3007.51 265.562C3007.68 265.733 3009.8 265.18 3012.23 264.334C3028.29 258.716 3056.99 253.821 3085.45 251.853C3146.85 247.601 3173.15 263.009 3176.86 305.419C3176.95 306.52 3177.05 307.53 3177.13 308.457V308.46C3177.68 314.543 3177.91 317.013 3176.87 317.75C3176.17 318.254 3174.88 317.949 3172.7 317.436C3172.22 317.322 3171.69 317.198 3171.12 317.07C3150.11 312.37 3099.21 311.281 3075.84 315.029C2996.16 327.827 2959.98 363.22 2959.99 428.347C2960.02 518.704 3021.38 555.406 3159.09 547.414C3190.66 545.584 3259.03 535.876 3276.23 530.786C3278.94 529.981 3278.38 288.645 3275.62 273.806C3263.68 209.419 3230.2 177.88 3162.1 166.83C3146.26 164.261 3097.66 163.977 3076.34 166.326ZM3177.14 386.693L3169.62 385.417C3150.98 382.246 3109.93 383.214 3095.43 387.165C3056.75 397.694 3052.29 449.65 3088.99 462.025C3106.35 467.879 3152.27 469.554 3174.51 465.147L3177.67 464.521L3177.14 386.693Z" fill="black"/>
<path fill-rule="evenodd" clip-rule="evenodd" d="M466.167 418.43L465.624 418.888C465.802 418.737 465.983 418.584 466.167 418.43Z" fill="black"/>
<path fill-rule="evenodd" clip-rule="evenodd" d="M618.742 282.879C618.793 282.881 618.845 282.882 618.897 282.884C618.909 282.884 618.921 282.885 618.933 282.885L618.897 282.884L618.742 282.879ZM601.06 364.594C601.002 364.57 600.946 364.546 600.891 364.523C600.87 364.514 600.849 364.505 600.828 364.497C600.768 364.471 600.71 364.447 600.654 364.422C600.868 364.497 601.125 364.604 601.418 364.74C601.347 364.711 601.279 364.683 601.213 364.656C601.184 364.644 601.155 364.633 601.127 364.621C601.105 364.612 601.082 364.603 601.06 364.594Z" fill="black"/>
<path fill-rule="evenodd" clip-rule="evenodd" d="M466.167 418.43C465.983 418.584 465.802 418.737 465.624 418.888L466.167 418.43ZM601.418 364.74C601.125 364.604 600.868 364.497 600.654 364.422C600.71 364.447 600.768 364.471 600.828 364.497C600.849 364.505 600.87 364.514 600.891 364.523C600.946 364.546 601.002 364.57 601.06 364.594C601.082 364.603 601.105 364.612 601.127 364.621C601.155 364.633 601.184 364.644 601.213 364.656C601.279 364.683 601.347 364.711 601.418 364.74Z" fill="black"/>
<path fill-rule="evenodd" clip-rule="evenodd" d="M569.074 165.695C465.303 180.673 401.442 274.306 416.795 388.98C430.241 489.369 499.214 551.049 597.98 551C715.831 550.935 790.812 459.967 778.328 332.197C767.43 220.701 678.452 149.902 569.074 165.695ZM466.167 418.43C466.987 417.808 467.465 417.451 468.546 416.715C464.446 401.064 461.405 386.911 459.327 374.032C458.183 366.939 457.33 360.233 456.753 353.875L456.751 353.858C456.4 349.989 456.152 346.25 456.001 342.631C455.734 336.209 455.778 330.167 456.11 324.459C456.338 320.555 456.7 316.807 457.192 313.2C457.43 311.454 457.698 309.74 457.996 308.058C461.504 288.232 469.102 272.744 479.576 258.784C479.631 258.71 479.687 258.636 479.743 258.562C482.017 255.543 484.426 252.596 486.957 249.69C487.884 248.626 488.831 247.564 489.791 246.509L490.766 246.008C475.085 311.378 514.831 369.986 636.507 392.881C680.376 398.46 698.872 402.834 708.805 419.421C709.015 419.776 709.182 419.982 709.356 420.376C709.668 421.082 709.824 422.484 709.841 423.998C710.29 431.303 705.848 437.578 698.079 444.366C695.844 446.318 693.334 448.313 690.586 450.387C686.692 453.326 682.319 456.425 677.575 459.786L677.574 459.787C675.71 461.108 673.788 462.47 671.814 463.88L671.526 464.086C670.827 464.512 670.128 464.933 669.428 465.348C669.388 465.377 669.348 465.407 669.307 465.436C655.392 475.568 642.104 481.167 624.153 483.858C583.794 492.589 544.338 479.456 507.149 439.227C506.685 438.725 506.253 438.454 505.309 438.062C497.562 434.787 491.061 432.641 484.073 431.569L483.962 431.552C476.013 430.345 467.422 430.526 455.642 432.013L455.658 431.95C455.914 430.962 456.192 430.059 456.573 429.166C457.396 427.236 458.701 425.358 461.295 422.799C462.456 421.653 463.875 420.372 465.624 418.888C465.802 418.737 465.983 418.584 466.167 418.43ZM560.488 241.133C565.929 242.093 575.578 244.613 575.178 244.971C575.064 245.073 572.842 244.783 570.239 244.327C561.237 242.751 558.611 242.484 552.227 242.493C544.322 242.503 536.601 243.774 532.342 245.765C530.847 246.464 531.558 246.452 536.659 245.693C545.948 244.312 554.471 244.902 563.03 247.522C584.488 254.09 603.601 266.474 611.278 278.782C611.324 278.856 611.369 278.928 611.413 278.999C611.443 279.047 611.472 279.095 611.502 279.142L611.603 279.306L611.668 279.411L611.678 279.427L611.692 279.45C612.593 280.907 613.092 281.715 613.815 282.176C614.712 282.749 615.956 282.789 618.742 282.879L618.897 282.884L618.933 282.885L619.074 282.89L619.275 282.896L619.464 282.903L619.773 282.913C625.972 283.127 627.104 283.437 629.006 285.439L630.234 286.731L629.341 283.293C628.849 281.402 627.95 278.725 627.344 277.345C626.738 275.963 625.48 272.988 624.55 270.731C622.585 265.969 621.139 263.304 618.21 259.057C614.298 253.382 616.015 252.712 620.313 258.237C625.281 264.625 628.657 269.959 630.361 274.115C633.321 281.336 634.134 282.349 641.16 287.6C644.125 289.816 647.151 292.19 647.882 292.874C648.614 293.556 649.078 293.839 648.913 293.501C648.749 293.161 648.479 292.538 648.315 292.112C647.671 290.447 643.926 283.847 641.759 280.558C640.502 278.654 638.213 274.464 636.669 271.247C632.622 262.812 628.885 255.937 626.729 252.959C624.972 250.53 623.577 247.693 623.968 247.342C624.063 247.257 626.094 247.621 628.479 248.153C661.245 255.443 680.57 276.171 685.485 309.296L685.519 309.524L685.577 309.919C686.125 313.626 686.407 315.536 687.341 317.05C688.332 318.658 690.057 319.82 693.614 322.215L693.651 322.241C693.823 322.356 693.998 322.474 694.177 322.595C698.817 325.723 699.779 326.989 702.613 333.685C705.077 339.507 706.454 341.423 708.852 342.374C717.096 345.641 717.149 351.799 708.988 358.401C704.183 362.288 703.046 363.76 698.275 372.27C693.464 380.849 692.649 381.968 688.185 386.104C684.355 389.652 682.743 392.058 682.259 394.95L681.935 396.885H676.579L678.208 393.501C680.325 389.1 680.682 388.27 680.455 388.27C679.54 388.27 677.553 389.395 675.443 391.107C670.515 395.105 668.382 395.068 653.421 390.73C650.399 389.853 645.969 388.654 643.577 388.066L643.103 387.95L643.101 387.949L643.099 387.949C636.3 386.277 634.79 385.906 634.787 385.527C634.787 385.419 634.909 385.31 635.067 385.17L635.079 385.158L635.105 385.135C636.486 383.898 636.128 379.074 634.402 375.661C630.268 367.486 610.493 355.254 591.835 349.331C583.272 346.611 571.991 344.709 579.472 347.246C582.893 348.405 603.667 357.872 606.487 359.556C618.418 366.682 626.634 375.467 626.634 381.1C626.634 382.07 620.741 381.964 620.407 380.989C619.859 379.383 618.275 376.59 617.194 375.321C615.299 373.094 605.258 366.511 601.418 364.74C601.347 364.711 601.279 364.683 601.213 364.656C601.184 364.644 601.155 364.633 601.127 364.621L601.06 364.594C601.002 364.57 600.946 364.546 600.891 364.523L600.828 364.497C600.768 364.471 600.71 364.447 600.654 364.422C599.922 364.107 599.473 363.869 598.93 363.516C597.864 362.797 595.855 361.626 593.516 360.379C587.332 357.085 582.239 354.113 577.572 351.08C574.728 349.232 571.42 347.956 570.3 348.274C566.517 349.349 538.025 342.808 528.646 338.709C522.798 336.154 516.968 330.996 512.757 324.65L512.045 323.581L512.044 323.578L512.037 323.568C510.253 320.892 509.535 319.815 509.826 319.256C510.023 318.879 510.677 318.738 511.772 318.501L511.774 318.501C511.977 318.457 512.196 318.41 512.429 318.357C517.602 317.194 519.372 315.956 521.011 312.36C523.171 307.617 524.39 305.892 527.559 303.084C530.65 300.347 539.005 293.967 543.003 291.292C549.359 287.04 546.768 271.198 538.333 262.731C537.547 261.941 536.9 261.169 536.895 261.016C536.874 260.196 529.201 255.349 526.32 254.336C514.342 250.126 520.702 242.51 537.794 240.597C539.94 240.356 542.314 240.084 543.069 239.991C546.118 239.616 555.297 240.218 560.488 241.133Z" fill="black"/>
</svg>
