<svg xmlns="http://www.w3.org/2000/svg" id="Layer_1" data-name="Layer 1" viewBox="0 0 191.7 54.16"><defs><style>.cls-1,.cls-4{fill:#be001a;}.cls-1,.cls-2{fill-rule:evenodd;}.cls-2,.cls-3{fill:#000f2e;}</style></defs><title>victory-logo-1</title><g id="Group_207" data-name="Group 207"><g id="Home_Logo" data-name="Home Logo"><path id="Path_342" data-name="Path 342" class="cls-1" d="M49.41,11.77l-5.13,10.4A17.7,17.7,0,0,1,45,27.08,17.89,17.89,0,0,1,33.66,43.71l-3.85,7.8a3,3,0,0,1-5.46,0c-1-1.78-2.24-4.08-3.74-6.75-.24-.42-.49-.88-.74-1.31A17.9,17.9,0,0,1,9.18,27.07a18.53,18.53,0,0,1,.27-3c-1.12-2.22-2.21-4.46-3.24-6.67a6.38,6.38,0,0,1-.11-5.22c.1-.31.68-.39.85-.4H7l.06,0,6,4.14A18,18,0,0,1,23.13,9.63a6.13,6.13,0,0,1,7.92,0,17.84,17.84,0,0,1,8.08,4.22l6.58-6.41A27.05,27.05,0,0,0,0,27.07H0A27.08,27.08,0,1,0,49.41,11.77Z" transform="translate(0 0)"></path><path id="Path_343" data-name="Path 343" class="cls-2" d="M27.08,8.79a5.66,5.66,0,1,1-5.66,5.66h0a5.65,5.65,0,0,1,5.66-5.66h0" transform="translate(0 0)"></path><path id="Path_344" data-name="Path 344" class="cls-2" d="M28.92,51,51.19,6.07c-1.25-.21-2.55-.2-4.65,1.93L27.05,27.77,6.87,13.09A6.31,6.31,0,0,0,7.61,18c5.49,10.57,12.2,22.93,17.63,33a2.19,2.19,0,0,0,1.84,1.27A2.2,2.2,0,0,0,28.92,51" transform="translate(0 0)"></path><path id="Path_345" data-name="Path 345" class="cls-3" d="M175.84,31.14l1.41-6.68a2.46,2.46,0,0,0-1.79-3,2.7,2.7,0,0,0-.57-.08H171l-2.37,11.14a3.26,3.26,0,0,0,2.25,4,3,3,0,0,0,1,.12h9.64l-2.62,11.74,8.37-6.17,4.45-20.86h-6.95l-2.36,11.14h-5.47a1.08,1.08,0,0,1-1.13-1,1,1,0,0,1,.05-.38" transform="translate(0 0)"></path><path id="Path_346" data-name="Path 346" class="cls-3" d="M81.07,36.68h7l3.26-15.29H87.76a4.4,4.4,0,0,0-4.07,3Z" transform="translate(0 0)"></path><path id="Path_347" data-name="Path 347" class="cls-3" d="M98.46,31.13,99.32,27a1.76,1.76,0,0,1,1.7-1.4h10.11l.89-4.16H97.74a5.41,5.41,0,0,0-5.07,4.18l-1.47,7a3.26,3.26,0,0,0,2.25,4,3,3,0,0,0,1,.12h14.28l.89-4.16H99.54a1.07,1.07,0,0,1-1.13-1,1,1,0,0,1,0-.39" transform="translate(0 0)"></path><path id="Path_348" data-name="Path 348" class="cls-3" d="M126.19,21.39H121l1.16-5.56h-7l-3.54,16.7a3.27,3.27,0,0,0,2.24,4,3.12,3.12,0,0,0,1,.12h11.12l.89-4.15h-7a1.07,1.07,0,0,1-1.09-1.4l1.18-5.58h5.17Z" transform="translate(0 0)"></path><path id="Path_349" data-name="Path 349" class="cls-3" d="M128.25,32.53a3.25,3.25,0,0,0,2.24,4,3.06,3.06,0,0,0,1,.12h13.91a5.44,5.44,0,0,0,5.06-4.17l1.47-7a3.25,3.25,0,0,0-2.23-4,3.36,3.36,0,0,0-1.05-.13h-13.9a5.44,5.44,0,0,0-5.06,4.18Zm7.26-1.4.86-4.19a1.82,1.82,0,0,1,1.7-1.4h5.56a1.07,1.07,0,0,1,1.09,1.4l-.86,4.19a1.83,1.83,0,0,1-1.7,1.4h-5.57a1.07,1.07,0,0,1-1.13-1,1.1,1.1,0,0,1,0-.4Z" transform="translate(0 0)"></path><path id="Path_350" data-name="Path 350" class="cls-3" d="M160.82,26.94a1.78,1.78,0,0,1,1.7-1.39h4.39l3.45-4.16H159.24a5.47,5.47,0,0,0-5.07,4.17l-2.36,11.12h7Z" transform="translate(0 0)"></path><path id="Path_351" data-name="Path 351" class="cls-4" d="M171.21,42.11h5.12l.32-1.53H170a1.67,1.67,0,0,0-.62.12,2.12,2.12,0,0,0-.56.33,2,2,0,0,0-.43.49,1.58,1.58,0,0,0-.24.6l-.33,1.53a1.52,1.52,0,0,0,0,.6,1.23,1.23,0,0,0,.23.49,1.14,1.14,0,0,0,.42.33,1.39,1.39,0,0,0,.57.12h3.58a.4.4,0,0,1,.34.15.42.42,0,0,1,.06.36l-.1.52a.61.61,0,0,1-.23.36.58.58,0,0,1-.39.15h-5.12l-.33,1.53h6.65a1.68,1.68,0,0,0,.63-.12,2.12,2.12,0,0,0,.56-.33,2.46,2.46,0,0,0,.43-.48,2.24,2.24,0,0,0,.25-.6l.32-1.54a1.22,1.22,0,0,0,0-.6,1.14,1.14,0,0,0-.22-.49,1.07,1.07,0,0,0-.41-.32,1.13,1.13,0,0,0-.57-.12h-3.59a.43.43,0,0,1-.33-.15.41.41,0,0,1-.07-.37l.11-.51a.61.61,0,0,1,.23-.37.59.59,0,0,1,.4-.15m-10.79,6.15H163l1.31-6.15h2.81l.32-1.53h-8.18l-.32,1.53h2.8Zm-11.61,0h2.56l1.31-6.15h2.56a.4.4,0,0,1,.33.15.4.4,0,0,1,.06.37l-.11.51a.71.71,0,0,1-.22.37.63.63,0,0,1-.39.15h-2.06l-.33,1.52h2.06a.4.4,0,0,1,.4.52l-.54,2.56H157l.58-2.69a1.43,1.43,0,0,0,0-.65,1.06,1.06,0,0,0-.27-.5,2,2,0,0,0,.77-1.16l.24-1.14a1.51,1.51,0,0,0,0-.6,1.06,1.06,0,0,0-.22-.48,1.12,1.12,0,0,0-.42-.33,1.25,1.25,0,0,0-.57-.13h-6.65Zm-5.88-3.08h2.55l-.65,3.08h2.56l1.31-6.15a1.51,1.51,0,0,0,0-.6,1.19,1.19,0,0,0-.23-.48,1,1,0,0,0-.42-.33,1.13,1.13,0,0,0-.57-.12h-5.12a1.67,1.67,0,0,0-.62.12,2.12,2.12,0,0,0-.56.33,2.18,2.18,0,0,0-.43.48,1.65,1.65,0,0,0-.24.6l-1.31,6.14h2.56l1.2-5.63a.61.61,0,0,1,.23-.36.58.58,0,0,1,.39-.15h2a.36.36,0,0,1,.33.15.39.39,0,0,1,.07.36l-.22,1h-2.56Zm-11.8-4.6h-2.56l-1.3,6.15a1.35,1.35,0,0,0,0,.6,1.17,1.17,0,0,0,.22.48,1.27,1.27,0,0,0,.43.33,1.22,1.22,0,0,0,.57.12h4.09l.33-1.53h-2.56a.4.4,0,0,1-.4-.51Zm-9.8,4.6h2.55l-.65,3.08h2.56l1.31-6.15a1.51,1.51,0,0,0,0-.6,1.19,1.19,0,0,0-.23-.48,1,1,0,0,0-.42-.33,1.13,1.13,0,0,0-.57-.12h-5.11a1.68,1.68,0,0,0-.63.12,2.12,2.12,0,0,0-.56.33,2.18,2.18,0,0,0-.43.48,1.84,1.84,0,0,0-.24.6l-1.31,6.14h2.56l1.2-5.63a.72.72,0,0,1,.23-.36.59.59,0,0,1,.4-.15h2a.36.36,0,0,1,.33.15.37.37,0,0,1,.07.36l-.21,1h-2.56Zm-7.7,3.08h2.56l1.62-7.68h-2.56Zm-6.41,0h2.57l1.31-6.15h2.81l.32-1.53h-8.18l-.32,1.53h2.8Zm-11.61,0h2.56l1.3-6.15H102a.39.39,0,0,1,.4.52l-.11.51a.71.71,0,0,1-.22.37.7.7,0,0,1-.39.15H99.66l-.33,1.52h2.06a.4.4,0,0,1,.4.52l-.54,2.56h2.55l.58-2.69a1.58,1.58,0,0,0,0-.65,1.16,1.16,0,0,0-.27-.5,2.16,2.16,0,0,0,.49-.51,2.21,2.21,0,0,0,.28-.65l.24-1.14a1.51,1.51,0,0,0,0-.6,1.06,1.06,0,0,0-.22-.48,1.21,1.21,0,0,0-.42-.33,1.28,1.28,0,0,0-.57-.13H97.25Zm-5.75-3.08h2.56l-.66,3.08h2.56l1.31-6.15a1.51,1.51,0,0,0,0-.6,1.19,1.19,0,0,0-.23-.48A1,1,0,0,0,95,40.7a1.11,1.11,0,0,0-.57-.12H89.31a1.68,1.68,0,0,0-.63.12,2.12,2.12,0,0,0-.56.33,2.46,2.46,0,0,0-.43.48,2.09,2.09,0,0,0-.24.6l-1.31,6.14H88.7l1.2-5.63a.72.72,0,0,1,.23-.36.54.54,0,0,1,.4-.15h2a.37.37,0,0,1,.33.15.39.39,0,0,1,.06.36l-.21,1H90.2ZM76.8,48.26h2.56l1.2-5.64a.61.61,0,0,1,.23-.36.58.58,0,0,1,.39-.15h2a.39.39,0,0,1,.33.15.39.39,0,0,1,.07.36l-1.2,5.64H85l1.31-6.14a1.51,1.51,0,0,0,0-.6,1.23,1.23,0,0,0-.23-.49,1.14,1.14,0,0,0-.42-.33,1.39,1.39,0,0,0-.57-.12H80.61a1.69,1.69,0,0,0-.5.08,1.92,1.92,0,0,0-.46.21,1,1,0,0,0-.37-.21,1.48,1.48,0,0,0-.46-.08H74.34a1.68,1.68,0,0,0-.63.12,2.12,2.12,0,0,0-.56.33,2.26,2.26,0,0,0-.43.49,1.76,1.76,0,0,0-.24.6l-1.31,6.14h2.56l1.2-5.64a.72.72,0,0,1,.23-.36.59.59,0,0,1,.4-.15h2a.39.39,0,0,1,.39.51Z" transform="translate(0 0)"></path><path id="Path_352" data-name="Path 352" class="cls-2" d="M73.88,36.2,87,9.74c-.74-.12-1.5-.11-2.74,1.14L72.78,22.51,60.9,13.88a3.71,3.71,0,0,0,.43,2.87C64.57,23,68.51,30.25,71.71,36.2a1.3,1.3,0,0,0,1.08.75,1.32,1.32,0,0,0,1.09-.75" transform="translate(0 0)"></path></g></g></svg>