<svg width="150" height="37" viewBox="0 0 150 37" fill="none" xmlns="http://www.w3.org/2000/svg">
<path d="M55.3401 2.2017L53.5859 0.121094L44.2786 6.88506L45.0589 8.09988L55.3401 2.2017Z" fill="#ACACAC"/>
<path fill-rule="evenodd" clip-rule="evenodd" d="M43.0073 36.5172C41.2396 36.5172 39.5564 36.2007 37.933 35.5512C36.3457 34.866 34.9028 33.8918 33.6041 32.6294C32.3415 31.3305 31.3675 29.8875 30.6821 28.3003C30.0327 26.677 29.708 24.9815 29.708 23.2139C29.708 21.4462 30.0327 19.7507 30.6821 18.1274C31.3675 16.504 32.3415 15.061 33.6041 13.7984C34.9028 12.5358 36.3457 11.5799 37.933 10.9305C39.5564 10.2451 41.2519 9.90239 43.0195 9.90239C44.7872 9.90239 46.4827 10.2451 48.106 10.9305C49.6933 11.5799 51.1363 12.5358 52.435 13.7984C53.6976 15.061 54.6716 16.504 55.357 18.1274C56.0063 19.7507 56.331 21.4462 56.331 23.2139C56.331 23.5508 56.3192 23.8852 56.2956 24.2169H33.2911C33.3244 25.8871 33.4288 27.3797 33.6041 28.6948C34.0505 32.043 37.5899 34.0744 40.8396 34.9962C41.6617 35.2294 42.4247 35.3807 43.0073 35.3807C44.6306 35.3807 46.1818 35.0742 47.6608 34.4609C49.176 33.8476 50.4927 32.9638 51.611 31.8094C52.08 31.3405 52.4948 30.8714 52.8556 30.4025L53.7213 31.106C53.1442 31.8273 52.7113 32.3326 52.4227 32.6212C52.0446 32.9992 51.6505 33.3513 51.2401 33.6775C50.2668 34.4448 49.2221 35.0694 48.106 35.5512C46.4827 36.2007 44.7749 36.5172 43.0073 36.5172ZM52.7596 23.0132C52.7596 20.8487 52.6929 18.9487 52.435 17.3315C51.922 14.115 48.2321 10.9829 43.0195 11.0387C37.807 11.0946 34.0363 14.0899 33.6041 17.3315C33.3877 18.9548 33.2794 20.8487 33.2794 23.0132L33.2794 23.0806H52.7596L52.7596 23.0132Z" fill="#ACACAC"/>
<path fill-rule="evenodd" clip-rule="evenodd" d="M87.2387 36.5172C85.471 36.5172 83.7877 36.2007 82.1644 35.5512C80.5771 34.866 79.1342 33.8918 77.8355 32.6294C76.5729 31.3305 75.5989 29.8875 74.9135 28.3003C74.2641 26.677 73.9394 24.9815 73.9394 23.2139C73.9394 21.4462 74.2641 19.7507 74.9135 18.1274C75.5989 16.504 76.5729 15.061 77.8355 13.7984C79.1342 12.5358 80.5771 11.5799 82.1644 10.9305C83.7877 10.2451 85.4833 9.90239 87.2509 9.90239C89.0186 9.90239 90.7141 10.2451 92.3374 10.9305C93.9247 11.5799 95.3677 12.5358 96.6664 13.7984C97.929 15.061 98.903 16.504 99.5884 18.1274C100.238 19.7507 100.562 21.4462 100.562 23.2139C100.562 23.5508 100.551 23.8852 100.527 24.2169H77.5225C77.5558 25.8871 77.6602 27.3797 77.8355 28.6948C78.2819 32.043 81.8213 34.0744 85.071 34.9962C85.8931 35.2294 86.6561 35.3807 87.2387 35.3807C88.862 35.3807 90.4132 35.0742 91.8922 34.4609C93.4074 33.8476 94.7241 32.9638 95.8424 31.8094C96.3114 31.3405 96.7262 30.8714 97.087 30.4025L97.9527 31.106C97.3756 31.8273 96.9427 32.3326 96.6541 32.6212C96.276 32.9992 95.8819 33.3513 95.4715 33.6775C94.4982 34.4448 93.4535 35.0694 92.3374 35.5512C90.7141 36.2007 89.0063 36.5172 87.2387 36.5172ZM96.991 23.0132C96.991 20.8487 96.9243 18.9487 96.6664 17.3315C96.1534 14.115 92.4635 10.9829 87.2509 11.0387C82.0384 11.0946 78.2677 14.0899 77.8355 17.3315C77.6191 18.9548 77.5108 20.8487 77.5108 23.0132L77.5108 23.0806H96.991L96.991 23.0132Z" fill="#ACACAC"/>
<path fill-rule="evenodd" clip-rule="evenodd" d="M136.676 36.5172C134.909 36.5172 133.225 36.2007 131.602 35.5512C130.015 34.866 128.572 33.8918 127.273 32.6294C126.01 31.3305 125.036 29.8875 124.351 28.3003C123.702 26.677 123.377 24.9815 123.377 23.2139C123.377 21.4462 123.702 19.7507 124.351 18.1274C125.036 16.504 126.01 15.061 127.273 13.7984C128.572 12.5358 130.015 11.5799 131.602 10.9305C133.225 10.2451 134.921 9.90239 136.689 9.90239C138.456 9.90239 140.152 10.2451 141.775 10.9305C143.362 11.5799 144.805 12.5358 146.104 13.7984C147.367 15.061 148.341 16.504 149.026 18.1274C149.675 19.7507 150 21.4462 150 23.2139C150 23.5508 149.988 23.8852 149.965 24.2169H126.96C126.993 25.8871 127.098 27.3797 127.273 28.6948C127.719 32.043 131.259 34.0744 134.509 34.9962C135.331 35.2294 136.094 35.3807 136.676 35.3807C138.3 35.3807 139.851 35.0742 141.33 34.4609C142.845 33.8476 144.162 32.9638 145.28 31.8094C145.749 31.3405 146.164 30.8714 146.525 30.4025L147.39 31.106C146.813 31.8273 146.38 32.3326 146.092 32.6212C145.714 32.9992 145.319 33.3513 144.909 33.6775C143.936 34.4448 142.891 35.0694 141.775 35.5512C140.152 36.2007 138.444 36.5172 136.676 36.5172ZM146.429 23.0132C146.429 20.8487 146.362 18.9487 146.104 17.3315C145.591 14.115 141.901 10.9829 136.689 11.0387C131.476 11.0946 127.705 14.0899 127.273 17.3315C127.057 18.9548 126.948 20.8487 126.948 23.0132L126.948 23.0806H146.429L146.429 23.0132Z" fill="#ACACAC"/>
<path fill-rule="evenodd" clip-rule="evenodd" d="M120.44 11.0847L119.953 12.1128C118.763 11.6078 117.554 11.3553 116.328 11.3553C115.101 11.3553 114.037 11.7341 113.135 12.4916C112.269 13.2492 111.674 14.0428 111.349 14.8725C110.952 15.9908 110.754 17.6683 110.754 19.9049V36.5172H106.847V10.5436H110.754V12.4916C112.269 10.9765 114.127 10.2189 116.328 10.2189C117.121 10.2189 117.807 10.2911 118.384 10.4354C118.997 10.5797 119.683 10.7961 120.44 11.0847ZM62.4562 0.911709H66.3631V36.5172H62.4562V0.911709Z" fill="#ACACAC"/>
<path d="M24.0256 31.4307L23.1598 30.7272C22.799 31.1961 22.3842 31.6653 21.9152 32.1341C20.7969 33.2885 19.4802 34.1723 17.9651 34.7856C16.486 35.3989 14.9348 35.7054 13.3115 35.7054C12.729 35.7054 11.9537 35.5459 11.1315 35.3127C7.88183 34.3909 4.34241 32.3596 3.89605 29.0113C3.67961 27.388 3.57136 25.4942 3.57136 23.3297C3.57136 21.1652 3.67961 19.2713 3.89605 17.648C4.33691 14.3413 7.93195 12.443 11.1782 11.675C11.983 11.4846 12.74 11.3553 13.3115 11.3553C14.9348 11.3553 16.486 11.6619 17.9651 12.2751C19.4802 12.8884 20.7969 13.7722 21.9152 14.9266C22.3842 15.3956 22.799 15.8646 23.1598 16.3335L24.0256 15.6301C23.4484 14.9086 23.0155 14.4036 22.7269 14.115C21.4643 12.8524 20.0213 11.8964 18.398 11.247C16.7746 10.5616 15.0791 10.2189 13.3115 10.2189C11.5438 10.2189 9.84831 10.5616 8.22497 11.247C6.63769 11.8964 5.19473 12.8524 3.89605 14.115C2.63345 15.3776 1.65942 16.8205 0.974009 18.4439C0.324671 20.0672 0 21.7627 0 23.5304C0 25.298 0.324671 26.9935 0.974009 28.6169C1.65942 30.204 2.63345 31.6471 3.89605 32.9459C5.19473 34.2084 6.63769 35.1825 8.22497 35.8678C9.84831 36.5172 11.5438 36.8419 13.3115 36.8419C15.0791 36.8419 16.7746 36.5172 18.398 35.8678C20.0213 35.1825 21.4643 34.2084 22.7269 32.9459C23.0155 32.6573 23.4484 32.1521 24.0256 31.4307Z" fill="#ACACAC"/>
</svg>
