<svg width="429" height="429" viewBox="0 0 429 429" fill="none" xmlns="http://www.w3.org/2000/svg">
<path fill-rule="evenodd" clip-rule="evenodd" d="M211.771 233.067C211.813 233.083 211.855 233.098 211.897 233.114L211.919 233.122C211.869 233.104 211.82 233.085 211.771 233.067Z" fill="white"/>
<path fill-rule="evenodd" clip-rule="evenodd" d="M429 214.5C429 332.965 332.965 429 214.5 429C96.0349 429 0 332.965 0 214.5C0 96.0349 96.0349 0 214.5 0C332.965 0 429 96.0349 429 214.5ZM68.7002 281.813C69.7079 281.042 70.295 280.6 71.6232 279.689C66.5858 260.294 62.8503 242.756 60.297 226.796C58.8909 218.007 57.8434 209.697 57.1345 201.819L57.1325 201.797C56.7015 197.003 56.3959 192.37 56.2112 187.885C55.8833 179.928 55.9363 172.441 56.345 165.367C56.6244 160.53 57.0701 155.886 57.6741 151.416C57.9664 149.252 58.2959 147.128 58.6616 145.044C62.9182 120.777 72.0777 101.754 84.7019 84.6218C84.9263 84.3173 85.1518 84.0133 85.3784 83.71C88.1725 79.9691 91.1318 76.3163 94.2413 72.7161C95.3805 71.397 96.5399 70.0851 97.7188 68.7784L97.7224 68.7743L97.9532 68.5189L98.2248 68.2192L98.2251 68.2188L98.2294 68.2141L98.2894 68.148L98.3062 68.1295L98.3558 68.0748C78.4114 148.122 132.064 196.475 188.404 223.189C191.816 224.807 195.238 226.345 198.654 227.807C200.812 228.73 202.968 229.623 205.118 230.485L205.345 230.576L205.458 230.621L205.605 230.68C207.614 231.482 209.618 232.258 211.613 233.007L211.671 233.029L211.771 233.067L211.897 233.114L211.919 233.122C216.316 234.77 220.668 236.292 224.94 237.692L225.09 237.742L225.469 237.865L225.472 237.866C232.416 240.13 239.145 242.073 245.509 243.717C246.106 243.872 246.699 244.023 247.29 244.172C247.465 244.216 247.64 244.26 247.815 244.304C248.339 244.435 248.861 244.565 249.38 244.692L249.445 244.708L249.464 244.713C260.235 247.351 269.811 249.101 277.403 250.075C331.299 256.989 354.587 262.488 366.79 283.041C366.871 283.18 366.947 283.301 367.02 283.416C367.179 283.666 367.321 283.891 367.467 284.225C367.85 285.099 368.041 286.838 368.063 288.713C368.615 297.766 363.157 305.541 353.612 313.952C350.867 316.371 347.783 318.843 344.407 321.414C339.622 325.056 334.251 328.895 328.422 333.062C326.131 334.699 323.77 336.387 321.345 338.133L320.991 338.388C320.132 338.917 319.273 339.439 318.414 339.953L318.266 340.062C301.169 352.617 284.845 359.555 262.792 362.889C213.209 373.709 164.736 357.435 119.048 307.585C118.478 306.963 117.947 306.627 116.787 306.14C107.27 302.082 99.2838 299.423 90.6981 298.094L90.6193 298.082L90.5623 298.073C80.7967 296.579 70.2422 296.802 55.77 298.644L55.7899 298.566C56.1035 297.343 56.4452 296.223 56.9131 295.117C57.9252 292.725 59.5279 290.398 62.7147 287.227C64.1407 285.808 65.8839 284.219 68.0334 282.38C68.1694 282.264 68.3071 282.146 68.4465 282.028L68.6022 281.896L68.6511 281.854L68.6728 281.836L68.7002 281.813ZM184.748 63.0449C191.433 64.2345 203.286 67.3579 202.795 67.8017C202.655 67.928 199.925 67.5688 196.728 67.0039C185.668 65.0505 182.442 64.7199 174.6 64.7303C164.888 64.7433 155.402 66.3181 150.17 68.7856C148.332 69.6511 149.207 69.6368 155.474 68.6958C166.885 66.9844 177.356 67.7158 187.871 70.963C214.232 79.1009 237.714 94.4477 247.145 109.699C247.32 109.982 247.483 110.248 247.637 110.498L247.643 110.509L247.654 110.527L247.654 110.527C248.761 112.333 249.374 113.333 250.262 113.905C251.365 114.614 252.892 114.664 256.315 114.776L256.317 114.776C256.713 114.789 257.134 114.802 257.582 114.818C265.197 115.083 266.588 115.467 268.925 117.948L270.433 119.549L269.336 115.289C268.732 112.945 267.628 109.628 266.883 107.918C266.139 106.206 264.594 102.519 263.45 99.7225C261.037 93.8217 259.26 90.5186 255.662 85.2568C250.855 78.2238 252.965 77.3934 258.246 84.2404C264.349 92.1558 268.496 98.7659 270.59 103.916C274.226 112.863 275.224 114.119 283.856 120.626C287.5 123.372 291.217 126.314 292.115 127.161C293.014 128.007 293.584 128.357 293.381 127.938C293.179 127.518 292.848 126.745 292.647 126.217C291.856 124.153 287.255 115.975 284.592 111.9C283.048 109.541 280.236 104.348 278.339 100.361C273.367 89.9095 268.776 81.3902 266.127 77.6993C263.969 74.6903 262.255 71.1738 262.736 70.7391C262.853 70.6337 265.347 71.0853 268.277 71.7438C308.532 80.7785 332.273 106.464 338.312 147.51L338.353 147.793L338.425 148.283C339.098 152.877 339.444 155.244 340.591 157.12C341.809 159.112 343.928 160.552 348.298 163.52L348.344 163.552L348.99 163.991C354.69 167.867 355.872 169.436 359.354 177.733C362.381 184.948 364.072 187.322 367.018 188.5C377.147 192.549 377.211 200.179 367.185 208.36C361.283 213.177 359.886 215.001 354.025 225.547C348.114 236.177 347.112 237.564 341.628 242.69C336.924 247.086 334.943 250.068 334.349 253.65L333.95 256.049H330.661H327.37L329.372 251.856C331.972 246.401 332.41 245.373 332.132 245.373C331.008 245.373 328.567 246.767 325.975 248.888C319.92 253.843 317.299 253.798 298.92 248.421C295.207 247.334 289.765 245.85 286.826 245.121L286.243 244.976C277.886 242.904 276.03 242.444 276.028 241.974C276.027 241.84 276.177 241.705 276.37 241.531L276.373 241.529L276.418 241.488C278.115 239.955 277.674 233.978 275.554 229.748C270.475 219.619 246.181 204.461 223.259 197.121C212.739 193.751 198.879 191.394 208.07 194.537C212.274 195.974 237.795 207.705 241.26 209.791C255.917 218.622 266.011 229.508 266.011 236.488C266.011 237.691 258.771 237.559 258.361 236.35C257.687 234.36 255.741 230.9 254.414 229.328C252.086 226.568 239.75 218.41 235.032 216.215C234.672 216.048 234.356 215.915 234.093 215.822C233.194 215.431 232.643 215.136 231.976 214.699C230.666 213.808 228.198 212.356 225.324 210.812C217.727 206.729 211.47 203.047 205.736 199.289C202.242 196.998 198.178 195.417 196.803 195.811C192.154 197.144 157.151 189.039 145.629 183.959C138.445 180.793 131.282 174.401 126.109 166.538C125.795 166.06 125.501 165.616 125.228 165.202L125.227 165.201L125.224 165.197C123.032 161.88 122.15 160.546 122.508 159.853C122.75 159.386 123.554 159.211 124.899 158.918C125.149 158.863 125.419 158.805 125.706 158.739C132.061 157.297 134.235 155.764 136.249 151.308C138.903 145.431 140.4 143.292 144.293 139.814C148.09 136.422 158.355 128.516 163.268 125.201C171.076 119.931 167.893 100.302 157.53 89.8093C156.564 88.8306 155.769 87.874 155.763 87.684C155.737 86.6676 146.311 80.6614 142.771 79.4068C128.056 74.1893 135.87 64.7524 156.868 62.3812C159.505 62.0831 162.421 61.7461 163.348 61.6302C167.094 61.1656 178.371 61.9114 184.748 63.0449Z" fill="white"/>
<path fill-rule="evenodd" clip-rule="evenodd" d="M68.6728 281.836L68.6511 281.854C68.6348 281.868 68.6185 281.882 68.6022 281.896C68.6257 281.876 68.6492 281.856 68.6728 281.836Z" fill="black"/>
<path d="M202.795 67.8017C203.286 67.3579 191.433 64.2345 184.748 63.0449C178.371 61.9114 167.094 61.1656 163.348 61.6302C162.421 61.7461 159.505 62.0831 156.868 62.3812C135.87 64.7524 128.056 74.1893 142.771 79.4068C146.311 80.6614 155.737 86.6676 155.763 87.684C155.769 87.874 156.564 88.8306 157.53 89.8093C167.893 100.302 171.076 119.931 163.268 125.201C158.355 128.516 148.09 136.422 144.293 139.814C140.4 143.292 138.903 145.431 136.249 151.308C134.235 155.764 132.061 157.297 125.706 158.739C125.419 158.805 125.149 158.863 124.899 158.918C123.554 159.211 122.75 159.386 122.508 159.853C122.15 160.546 123.032 161.88 125.224 165.197L125.227 165.201L125.228 165.202C125.501 165.616 125.795 166.06 126.109 166.538C131.282 174.401 138.445 180.793 145.629 183.959C157.151 189.039 192.154 197.144 196.803 195.811C198.178 195.417 202.242 196.998 205.736 199.289C211.47 203.047 217.727 206.729 225.324 210.812C228.198 212.356 230.666 213.808 231.976 214.699C232.643 215.136 233.194 215.431 234.093 215.822C234.356 215.915 234.672 216.048 235.032 216.215C239.75 218.41 252.086 226.568 254.414 229.328C255.741 230.9 257.687 234.36 258.361 236.35C258.771 237.559 266.011 237.691 266.011 236.488C266.011 229.508 255.917 218.622 241.26 209.791C237.795 207.705 212.274 195.974 208.07 194.537C198.879 191.394 212.739 193.751 223.259 197.121C246.181 204.461 270.475 219.619 275.554 229.748C277.674 233.978 278.115 239.955 276.418 241.488L276.373 241.529L276.37 241.531C276.177 241.705 276.027 241.84 276.028 241.974C276.03 242.444 277.886 242.904 286.243 244.976L286.826 245.121C289.765 245.85 295.207 247.334 298.92 248.421C317.299 253.798 319.92 253.843 325.975 248.888C328.567 246.767 331.008 245.373 332.132 245.373C332.41 245.373 331.972 246.401 329.372 251.856L327.37 256.049H330.661H333.95L334.349 253.65C334.943 250.068 336.924 247.086 341.628 242.69C347.112 237.564 348.114 236.177 354.025 225.547C359.886 215.001 361.283 213.177 367.185 208.36C377.211 200.179 377.147 192.549 367.018 188.5C364.072 187.322 362.381 184.948 359.354 177.733C355.872 169.436 354.69 167.867 348.99 163.991C348.769 163.841 348.554 163.695 348.344 163.552L348.298 163.52C343.928 160.552 341.809 159.112 340.591 157.12C339.444 155.244 339.098 152.877 338.425 148.283L338.353 147.793L338.312 147.51C332.273 106.464 308.532 80.7785 268.277 71.7438C265.347 71.0853 262.853 70.6337 262.736 70.7391C262.255 71.1738 263.969 74.6903 266.127 77.6993C268.776 81.3902 273.367 89.9095 278.339 100.361C280.236 104.348 283.048 109.541 284.592 111.9C287.255 115.975 291.856 124.153 292.647 126.217C292.848 126.745 293.179 127.518 293.381 127.938C293.584 128.357 293.014 128.007 292.115 127.161C291.217 126.314 287.5 123.372 283.856 120.626C275.224 114.119 274.226 112.863 270.59 103.916C268.496 98.7659 264.349 92.1558 258.246 84.2404C252.965 77.3934 250.855 78.2238 255.662 85.2568C259.26 90.5186 261.037 93.8217 263.45 99.7225C264.594 102.519 266.139 106.206 266.883 107.918C267.628 109.628 268.732 112.945 269.336 115.289L270.433 119.549L268.925 117.948C266.588 115.467 265.197 115.083 257.582 114.818C257.134 114.802 256.713 114.789 256.317 114.776L256.315 114.776C252.892 114.664 251.365 114.614 250.262 113.905C249.374 113.333 248.761 112.333 247.654 110.527L247.654 110.527L247.643 110.509L247.637 110.498C247.483 110.248 247.32 109.982 247.145 109.699C237.714 94.4477 214.232 79.1009 187.871 70.963C177.356 67.7158 166.885 66.9844 155.474 68.6958C149.207 69.6368 148.332 69.6511 150.17 68.7856C155.402 66.3181 164.888 64.7433 174.6 64.7303C182.442 64.7199 185.668 65.0505 196.728 67.0039C199.925 67.5688 202.655 67.928 202.795 67.8017Z" fill="black"/>
<path d="M71.6232 279.689C70.295 280.6 69.7079 281.042 68.7002 281.813L68.6728 281.836L68.6511 281.854L68.6022 281.896L68.4465 282.028C68.3071 282.146 68.1694 282.264 68.0334 282.38C65.8839 284.219 64.1407 285.808 62.7147 287.227C59.5279 290.398 57.9252 292.725 56.9131 295.117C56.4452 296.223 56.1035 297.343 55.7899 298.566L55.77 298.644C70.2422 296.802 80.7967 296.579 90.5623 298.073L90.6193 298.082L90.6981 298.094C99.2838 299.423 107.27 302.082 116.787 306.14C117.947 306.627 118.478 306.963 119.048 307.585C164.736 357.435 213.209 373.709 262.792 362.889C284.845 359.555 301.169 352.617 318.266 340.062C318.315 340.025 318.365 339.989 318.414 339.953C319.273 339.439 320.132 338.917 320.991 338.388L321.345 338.133C323.77 336.387 326.131 334.699 328.422 333.062C334.251 328.895 339.622 325.056 344.407 321.414C347.783 318.843 350.867 316.371 353.612 313.952C363.157 305.541 368.615 297.766 368.063 288.713C368.041 286.838 367.85 285.099 367.467 284.225C367.321 283.891 367.179 283.666 367.02 283.416C366.947 283.301 366.871 283.18 366.79 283.041C354.587 262.488 331.299 256.989 277.403 250.075C269.811 249.101 260.235 247.351 249.464 244.713L249.445 244.708L249.38 244.692C248.861 244.565 248.339 244.435 247.815 244.304C247.64 244.26 247.465 244.216 247.29 244.172C246.699 244.023 246.106 243.872 245.509 243.717C239.145 242.073 232.416 240.13 225.472 237.866L225.469 237.865L225.09 237.742L224.94 237.692C220.668 236.292 216.316 234.77 211.919 233.122L211.897 233.114L211.771 233.067L211.671 233.029L211.613 233.007C209.618 232.258 207.614 231.482 205.605 230.68L205.458 230.621L205.345 230.576L205.118 230.485C202.968 229.623 200.812 228.73 198.654 227.807C195.238 226.345 191.816 224.807 188.404 223.189C132.064 196.475 78.4114 148.122 98.3558 68.0748L98.3062 68.1295L98.2894 68.148L98.2294 68.2141L98.2251 68.2188L98.2248 68.2192C98.1341 68.3191 98.0436 68.419 97.9532 68.5189C97.8762 68.604 97.7993 68.6892 97.7224 68.7743L97.7188 68.7784C96.5399 70.0851 95.3805 71.397 94.2413 72.7161C91.1318 76.3163 88.1725 79.9691 85.3784 83.71C85.1518 84.0133 84.9263 84.3173 84.7019 84.6218C72.0777 101.754 62.9182 120.777 58.6616 145.044C58.2959 147.128 57.9664 149.252 57.6741 151.416C57.0701 155.886 56.6244 160.53 56.345 165.367C55.9363 172.441 55.8833 179.928 56.2112 187.885C56.3959 192.37 56.7015 197.003 57.1325 201.797L57.1345 201.819C57.8434 209.697 58.8909 218.007 60.297 226.796C62.8503 242.756 66.5858 260.294 71.6232 279.689Z" fill="black"/>
</svg>
