<svg width="150" height="49" viewBox="0 0 150 49" fill="none" xmlns="http://www.w3.org/2000/svg">
<path d="M2.87414 6.97805V31.3172C11.5276 31.3172 10.4857 29.1783 10.4857 24.4211V19.9811H17.1458C19.3658 19.9811 19.3658 18.0782 19.3658 16.8096C19.3658 15.541 19.6829 13.6381 17.1458 13.6381H10.4857V6.97805C12.3886 6.97805 14.9257 6.66089 14.9257 8.24663C14.9257 9.83238 16.1943 9.51521 18.0972 9.51521C21.5858 9.51521 21.5858 9.51521 21.5858 7.29518V3.48942C21.5858 1.90368 20.9515 0.635096 16.5115 0.635096H1.60556C-0.297325 0.635096 0.0198217 1.90368 0.0198217 3.80657C0.0198217 6.66089 0.654116 6.97805 2.87414 6.97805Z" fill="#ACACAC"/>
<path fill-rule="evenodd" clip-rule="evenodd" d="M39.0289 32.0326C47.8743 31.9451 54.9738 24.7035 54.8863 15.8582C54.7987 7.0128 47.5571 -0.0867761 38.7118 0.000801606C29.9544 0.087508 22.9411 7.10081 22.8544 15.8582C22.766 24.7906 30.0964 32.1211 39.0289 32.0326ZM46.9576 15.8582C46.8671 11.2166 43.3542 7.29518 38.7118 7.29518C34.0693 7.29518 30.5471 11.2164 30.4659 15.8582C30.3817 20.675 34.2149 24.923 39.0289 24.7383C43.6745 24.56 47.0482 20.5063 46.9576 15.8582Z" fill="#ACACAC"/>
<path d="M58.0577 6.97803V31.3983C65.6693 31.3983 65.6693 30.1298 65.6693 26.324V6.97803C71.0608 6.97803 72.0122 7.92947 72.0122 10.7838C72.0122 14.3953 69.7922 13.7134 67.255 15.541C66.5187 16.0714 66.2425 17.3379 66.5036 18.7828C66.8436 20.6643 68.8407 20.2982 70.4265 24.104C72.2036 28.3692 74.2322 31.3983 77.0865 31.3983C81.8438 31.3983 81.8438 27.9097 81.8438 26.6411C81.8438 25.3726 81.5669 24.7383 80.258 24.7383C78.3551 24.7383 78.6723 20.6153 75.5008 18.7828C75.1284 18.5676 75.2039 18.1969 75.5008 18.0782C81.8438 15.541 82.7952 0.635088 69.1579 0.635088H57.7406C55.8377 0.635088 55.2034 0.952235 55.2034 3.80656C55.2034 6.34373 55.5205 6.97803 58.0577 6.97803Z" fill="#ACACAC"/>
<path d="M84.703 31.3304C84.7003 31.3671 84.7294 31.3983 84.7662 31.3983H88.5038C92.3096 31.3983 92.3096 29.4955 92.3096 26.9583C92.3096 26.3644 92.8179 19.5965 93.1877 14.3653C93.2119 14.0232 93.2354 13.6877 93.2583 13.3609C93.2588 13.3536 93.269 13.3528 93.2708 13.3598C93.3564 13.7015 93.4432 14.0367 93.5312 14.3653C98.0006 31.0605 105.383 30.7265 109.426 13.3633C109.427 13.3562 109.438 13.3553 109.438 13.3626C109.81 18.6882 110.387 26.642 110.387 26.9583C110.387 30.4469 111.021 31.3983 113.876 31.3983H118.247C118.284 31.3983 118.313 31.3667 118.31 31.3297L115.783 0.693302C115.781 0.660404 115.753 0.635088 115.72 0.635088H107.893C107.867 0.635088 107.844 0.651251 107.834 0.675747L101.565 16.9766C101.544 17.0303 101.468 17.0309 101.447 16.9775L94.8628 0.674766C94.8531 0.650787 94.8298 0.635088 94.804 0.635088H86.9771C86.9439 0.635088 86.9163 0.660778 86.9139 0.693952L84.703 31.3304Z" fill="#ACACAC"/>
<path fill-rule="evenodd" clip-rule="evenodd" d="M148.127 31.3983C150.348 31.3983 150.348 31.0812 149.396 28.2269L139.249 0.63924C139.248 0.636745 139.246 0.635088 139.243 0.635088H131.323C131.32 0.635088 131.318 0.636794 131.317 0.639341L126.563 14.2682C126.562 14.2707 126.56 14.2724 126.557 14.2724C120.853 14.2721 121.804 13.6392 120.219 17.4439C118.897 20.6153 118.316 22.2011 122.439 22.2011C125.233 22.2011 135.016 24.3282 141.377 30.962C141.746 31.3613 142.102 31.3983 142.419 31.3983H148.127ZM137.627 18.2473C137.64 18.3021 137.58 18.3451 137.532 18.3157C135.945 17.3453 134.983 16.8564 133.277 16.1967C133.246 16.1847 133.229 16.1507 133.239 16.1188L135.373 9.10689C135.392 9.04484 135.481 9.04778 135.495 9.11095L137.627 18.2473Z" fill="#ACACAC"/>
<path d="M120.548 31.3983C120.543 31.3983 120.54 31.3926 120.542 31.3884C122.638 28.2917 121.175 23.4697 125.927 23.4697C128.147 23.4697 129.733 25.6897 129.733 27.2754C129.733 28.544 129.733 31.3983 126.879 31.3983H120.548Z" fill="#ACACAC"/>
<path fill-rule="evenodd" clip-rule="evenodd" d="M116.036 39.9276C115.686 39.9276 115.402 39.6436 115.402 39.2933C115.402 38.943 115.686 38.659 116.036 38.659C116.387 38.659 116.671 38.943 116.671 39.2933C116.671 39.6436 116.387 39.9276 116.036 39.9276ZM108.736 43.5656C108.74 43.6213 108.741 43.6772 108.742 43.7333C108.738 43.6769 108.736 43.621 108.736 43.5656Z" fill="#ACACAC"/>
<path d="M108.736 43.5656L109.053 43.5462L108.419 43.5632L108.736 43.5656ZM108.742 43.7333L108.426 43.7576L109.059 43.7307L108.742 43.7333ZM28.2645 45.0244L28.5815 45.0327L28.5815 45.0327L28.2645 45.0244ZM28.4121 40.1639L28.0952 40.1512L28.0952 40.1512L28.4121 40.1639ZM35.7896 45.8485L35.4726 45.8408L35.4726 45.8408L35.7896 45.8485ZM47.2272 44.3676L46.9109 44.3439L46.9109 44.3439L47.2272 44.3676ZM56.0955 44.3676L55.9952 44.6685L55.9952 44.6685L56.0955 44.3676ZM54.8269 42.7819L54.5098 42.7784L54.5098 42.7784L54.8269 42.7819ZM61.487 44.3676L61.3867 44.6685L61.3867 44.6685L61.487 44.3676ZM60.2184 42.7819L59.9013 42.7784L59.9013 42.7784L60.2184 42.7819ZM72.8482 44.0504L73.1642 44.023L73.1642 44.023L72.8482 44.0504ZM72.9073 46.9041L72.5901 46.9026L72.5901 46.9026L72.9073 46.9041ZM72.9096 46.3196L73.2267 46.3204L73.2267 46.3204L72.9096 46.3196ZM68.761 46.3196L69.0781 46.3154L69.078 46.3065L69.0774 46.2978L68.761 46.3196ZM85.8716 44.0504L86.1876 44.023L86.1876 44.023L85.8716 44.0504ZM85.9306 46.9035L86.2478 46.905L86.2478 46.905L85.9306 46.9035ZM85.933 46.3196L86.2501 46.3204L86.2501 46.3204L85.933 46.3196ZM81.7844 46.3196L82.1015 46.3154L82.1014 46.3065L82.1008 46.2978L81.7844 46.3196ZM91.2988 41.5133L91.2955 41.8304L91.2955 41.8304L91.2988 41.5133ZM88.7616 44.6847L89.0784 44.6683L89.0784 44.6683L88.7616 44.6847ZM91.2988 47.5391L91.3022 47.2219L91.3022 47.2219L91.2988 47.5391ZM102.046 43.7346L101.731 43.7712L101.731 43.7712L102.046 43.7346ZM96.7021 44.3676L96.3859 44.3439L96.3859 44.3439L96.7021 44.3676ZM123.073 46.904L122.755 46.9025L122.755 46.9025L123.073 46.904ZM118.926 46.3196L119.243 46.3154L119.243 46.3065L119.243 46.2978L118.926 46.3196ZM52.5713 43.7346L52.8863 43.6979L52.8863 43.6979L52.5713 43.7346ZM108.736 43.5656L108.42 43.5851L109.053 43.5681L108.736 43.5656ZM115.402 39.2933H115.085C115.085 39.8188 115.511 40.2447 116.036 40.2447V39.9276V39.6105C115.861 39.6105 115.719 39.4685 115.719 39.2933H115.402ZM116.036 38.659V38.3419C115.511 38.3419 115.085 38.7678 115.085 39.2933H115.402H115.719C115.719 39.1181 115.861 38.9762 116.036 38.9762V38.659ZM116.671 39.2933H116.988C116.988 38.7678 116.562 38.3419 116.036 38.3419V38.659V38.9762C116.211 38.9762 116.353 39.1181 116.353 39.2933H116.671ZM116.036 39.9276V40.2447C116.562 40.2447 116.988 39.8188 116.988 39.2933H116.671H116.353C116.353 39.4685 116.211 39.6105 116.036 39.6105V39.9276ZM108.736 43.5656L108.42 43.5851C108.423 43.6351 108.424 43.6854 108.425 43.7359L108.742 43.7333L109.059 43.7307C109.059 43.669 109.056 43.6075 109.053 43.5462L108.736 43.5656ZM108.742 43.7333L109.058 43.709C109.054 43.6614 109.053 43.6145 109.053 43.5681L108.736 43.5656L108.419 43.5632C108.418 43.6275 108.421 43.6924 108.426 43.7576L108.742 43.7333ZM28.1866 47.8562L28.5036 47.8658C28.5311 46.9565 28.5563 45.9961 28.5815 45.0327L28.2645 45.0244L27.9474 45.0161C27.9222 45.9798 27.8971 46.9389 27.8696 47.8466L28.1866 47.8562ZM28.2645 45.0244L28.5815 45.0327C28.6259 43.3377 28.6705 41.6339 28.729 40.1766L28.4121 40.1639L28.0952 40.1512C28.0365 41.6138 27.9918 43.3223 27.9474 45.0161L28.2645 45.0244ZM28.4121 40.1639L28.729 40.1766C28.7581 39.4509 29.271 38.9998 29.9631 38.7943C30.3073 38.6921 30.6786 38.6584 31.0156 38.6863C31.3569 38.7146 31.6376 38.8036 31.8164 38.9228L31.9923 38.6589L32.1682 38.3951C31.8714 38.1971 31.4758 38.0879 31.068 38.0542C30.6559 38.0201 30.2054 38.0607 29.7825 38.1862C28.9406 38.4363 28.1392 39.0548 28.0952 40.1512L28.4121 40.1639ZM26.918 41.8304V42.1476H31.6752V41.8304V41.5133H26.918V41.8304ZM32.3095 42.4647H31.9923V47.8562H32.3095H32.6266V42.4647H32.3095ZM37.701 47.8562V47.5391C36.7322 47.5391 36.3991 47.3496 36.2597 47.1471C36.1843 47.0376 36.1371 46.8865 36.1151 46.6649C36.0929 46.4408 36.0988 46.1785 36.1067 45.8563L35.7896 45.8485L35.4726 45.8408C35.465 46.1514 35.457 46.4565 35.4839 46.7275C35.511 47.0009 35.576 47.2727 35.7372 47.5068C36.0711 47.9918 36.7091 48.1734 37.701 48.1734V47.8562ZM35.7896 45.8485L36.1067 45.8563C36.1108 45.6893 36.1152 45.5088 36.1152 45.319H35.7981H35.4809C35.4809 45.4999 35.4767 45.6728 35.4726 45.8408L35.7896 45.8485ZM35.7981 45.319H36.1152V39.6104H35.7981H35.4809V45.319H35.7981ZM34.5295 41.8304V42.1476H37.701V41.8304V41.5133H34.5295V41.8304ZM39.921 41.1961H39.6039V43.7333H39.921H40.2381V41.1961H39.921ZM39.921 43.7333H39.6039V47.8562H39.921H40.2381V43.7333H39.921ZM39.921 43.7333C40.2338 43.7854 40.2338 43.7856 40.2338 43.7858C40.2338 43.7858 40.2337 43.786 40.2337 43.786C40.2337 43.7862 40.2337 43.7864 40.2337 43.7865C40.2336 43.7867 40.2336 43.7868 40.2336 43.7869C40.2336 43.7869 40.2337 43.7865 40.2338 43.7857C40.2341 43.784 40.2347 43.7807 40.2358 43.7758C40.2378 43.766 40.2413 43.7499 40.2466 43.7285C40.2574 43.6855 40.2754 43.6216 40.3035 43.5437C40.3601 43.3871 40.4556 43.179 40.6108 42.9721C40.9127 42.5696 41.456 42.1476 42.4582 42.1476V41.8304V41.5133C41.2403 41.5133 40.5151 42.0426 40.1034 42.5916C39.9017 42.8604 39.7793 43.128 39.7069 43.3283C39.6707 43.4288 39.6466 43.5135 39.6313 43.5746C39.6236 43.6052 39.6182 43.63 39.6144 43.6481C39.6126 43.6571 39.6112 43.6644 39.6101 43.67C39.6096 43.6728 39.6092 43.6751 39.6089 43.677C39.6087 43.6779 39.6086 43.6787 39.6085 43.6794C39.6084 43.6798 39.6083 43.6801 39.6083 43.6804C39.6083 43.6805 39.6082 43.6807 39.6082 43.6808C39.6082 43.681 39.6082 43.6812 39.921 43.7333ZM42.4582 41.8304V42.1476C43.4565 42.1476 43.9066 42.5643 44.1268 42.9417C44.2429 43.1407 44.3023 43.3425 44.3322 43.4965C44.3471 43.5729 44.3543 43.6357 44.3578 43.6779C44.3596 43.6989 44.3604 43.7147 44.3608 43.7242C44.3609 43.729 44.361 43.7323 44.361 43.7338C44.3611 43.7346 44.3611 43.7349 44.3611 43.7349C44.3611 43.7348 44.3611 43.7347 44.3611 43.7344C44.3611 43.7343 44.3611 43.7341 44.3611 43.7339C44.3611 43.7338 44.3611 43.7337 44.3611 43.7336C44.3611 43.7335 44.3611 43.7333 44.6782 43.7333C44.9954 43.7333 44.9954 43.7331 44.9954 43.7329C44.9954 43.7328 44.9953 43.7326 44.9953 43.7325C44.9953 43.7322 44.9953 43.7319 44.9953 43.7315C44.9953 43.7308 44.9953 43.7299 44.9953 43.729C44.9953 43.7271 44.9953 43.7247 44.9952 43.7219C44.9951 43.7162 44.9949 43.7088 44.9946 43.6996C44.9939 43.6813 44.9925 43.6562 44.9899 43.6252C44.9848 43.5633 44.9747 43.4775 44.9548 43.3754C44.9154 43.1726 44.836 42.8987 44.6746 42.6221C44.3398 42.048 43.6799 41.5133 42.4582 41.5133V41.8304ZM44.6782 43.7333H44.3611V47.8562H44.6782H44.9954V43.7333H44.6782ZM51.9726 46.9048C51.6554 46.9048 51.6554 46.9045 51.6554 46.9043C51.6554 46.9042 51.6554 46.9039 51.6554 46.9038C51.6554 46.9035 51.6554 46.9032 51.6554 46.9029C51.6554 46.9023 51.6555 46.9017 51.6555 46.9013C51.6555 46.9003 51.6555 46.8995 51.6555 46.899C51.6555 46.8978 51.6556 46.8975 51.6555 46.8979C51.6555 46.8986 51.6553 46.9022 51.6546 46.9082C51.6531 46.9202 51.6498 46.9414 51.6422 46.9685C51.6272 47.0228 51.596 47.0992 51.5307 47.1775C51.4089 47.3237 51.1141 47.5391 50.3869 47.5391V47.8562V48.1734C51.2453 48.1734 51.7434 47.913 52.018 47.5835C52.151 47.4239 52.2189 47.2625 52.2534 47.1383C52.2706 47.0763 52.2797 47.0231 52.2844 46.9831C52.2868 46.9631 52.2881 46.9462 52.2889 46.933C52.2892 46.9264 52.2894 46.9207 52.2896 46.916C52.2896 46.9137 52.2897 46.9115 52.2897 46.9097C52.2897 46.9087 52.2897 46.9078 52.2897 46.907C52.2897 46.9066 52.2897 46.9062 52.2897 46.9058C52.2897 46.9057 52.2897 46.9054 52.2897 46.9053C52.2897 46.905 52.2897 46.9048 51.9726 46.9048ZM50.3869 47.8562V47.5391C48.9553 47.5391 47.5325 46.3922 47.5325 44.6847H47.2154H46.8982C46.8982 46.783 48.6469 48.1734 50.3869 48.1734V47.8562ZM47.2154 44.6847H47.5325C47.5325 44.5859 47.5362 44.488 47.5435 44.3912L47.2272 44.3676L46.9109 44.3439C46.9025 44.4564 46.8982 44.57 46.8982 44.6847H47.2154ZM47.2272 44.3676L47.5435 44.3912C47.6671 42.7386 48.7926 41.5133 50.0697 41.5133V41.1961V40.879C48.3534 40.879 47.0504 42.4791 46.9109 44.3439L47.2272 44.3676ZM54.1926 47.2219C53.9684 47.4462 53.9685 47.4463 53.9686 47.4464C53.9686 47.4464 53.9687 47.4466 53.9688 47.4466C53.969 47.4468 53.9692 47.447 53.9694 47.4472C53.9697 47.4475 53.9701 47.4479 53.9706 47.4484C53.9715 47.4493 53.9726 47.4503 53.9738 47.4515C53.9763 47.4539 53.9794 47.4569 53.9831 47.4604C53.9907 47.4675 54.0008 47.4767 54.0135 47.4878C54.0389 47.5101 54.0749 47.5399 54.1213 47.5747C54.214 47.6443 54.3491 47.734 54.5265 47.8227C54.8824 48.0007 55.4064 48.1734 56.0955 48.1734V47.8562V47.5391C55.516 47.5391 55.0885 47.3946 54.8102 47.2554C54.6705 47.1855 54.5677 47.1167 54.5018 47.0673C54.4689 47.0426 54.4454 47.0229 54.4312 47.0105C54.4241 47.0043 54.4194 46.9999 54.417 46.9977C54.4158 46.9965 54.4152 46.996 54.4151 46.9959C54.4151 46.9959 54.4153 46.9961 54.4156 46.9964C54.4157 46.9965 54.4159 46.9967 54.4161 46.9969C54.4162 46.997 54.4163 46.9971 54.4165 46.9972C54.4165 46.9973 54.4166 46.9974 54.4167 46.9974C54.4168 46.9975 54.4169 46.9977 54.1926 47.2219ZM56.0955 47.8562V48.1734C56.8159 48.1734 57.3794 47.9001 57.7597 47.4723C58.1348 47.0503 58.3155 46.4966 58.3155 45.9533H57.9984H57.6812C57.6812 46.3615 57.5448 46.7592 57.2856 47.0509C57.0316 47.3366 56.6437 47.5391 56.0955 47.5391V47.8562ZM57.9984 45.9533H58.3155C58.3155 45.3436 57.9986 44.938 57.5796 44.6587C57.1804 44.3925 56.6598 44.2214 56.1958 44.0667L56.0955 44.3676L55.9952 44.6685C56.4826 44.8309 56.9135 44.977 57.2278 45.1865C57.5225 45.3829 57.6812 45.6116 57.6812 45.9533H57.9984ZM56.0955 44.3676L56.1958 44.0667C55.7505 43.9183 55.4975 43.7473 55.352 43.5591C55.2105 43.3762 55.1402 43.1374 55.144 42.7853L54.8269 42.7819L54.5098 42.7784C54.5049 43.2193 54.5932 43.6148 54.8503 43.9472C55.1034 44.2744 55.489 44.4997 55.9952 44.6685L56.0955 44.3676ZM54.8269 42.7819L55.144 42.7853C55.1519 42.0687 55.6493 41.5133 56.4126 41.5133V41.1961V40.879C55.2731 40.879 54.5212 41.7436 54.5098 42.7784L54.8269 42.7819ZM56.4126 41.1961V41.5133C56.8174 41.5133 57.1595 41.6484 57.405 41.7886C57.527 41.8584 57.6225 41.9279 57.6863 41.979C57.7181 42.0044 57.7418 42.025 57.7567 42.0385C57.7641 42.0452 57.7694 42.0502 57.7723 42.0529C57.7738 42.0543 57.7747 42.0552 57.775 42.0555C57.7751 42.0557 57.7751 42.0557 57.775 42.0555C57.7749 42.0555 57.7748 42.0554 57.7747 42.0552C57.7746 42.0551 57.7745 42.0551 57.7744 42.055C57.7744 42.0549 57.7743 42.0549 57.7743 42.0548C57.7742 42.0548 57.7741 42.0547 57.9984 41.8304C58.2226 41.6062 58.2226 41.6061 58.2225 41.606C58.2224 41.606 58.2223 41.6059 58.2223 41.6058C58.2221 41.6057 58.222 41.6055 58.2219 41.6054C58.2216 41.6051 58.2212 41.6047 58.2208 41.6044C58.2201 41.6036 58.2192 41.6027 58.2181 41.6017C58.2159 41.5996 58.2132 41.5969 58.2097 41.5936C58.2029 41.5871 58.1936 41.5784 58.1818 41.5678C58.1583 41.5466 58.125 41.5177 58.0825 41.4837C57.9977 41.4158 57.8751 41.3267 57.7197 41.2379C57.4101 41.061 56.9593 40.879 56.4126 40.879V41.1961ZM59.5841 47.2219C59.3599 47.4462 59.36 47.4463 59.3601 47.4464C59.3601 47.4464 59.3602 47.4466 59.3603 47.4466C59.3605 47.4468 59.3607 47.447 59.3609 47.4472C59.3612 47.4475 59.3616 47.4479 59.3621 47.4484C59.363 47.4493 59.3641 47.4503 59.3653 47.4515C59.3678 47.4539 59.3709 47.4569 59.3746 47.4604C59.3822 47.4675 59.3923 47.4767 59.405 47.4878C59.4304 47.5101 59.4664 47.5399 59.5128 47.5747C59.6055 47.6443 59.7406 47.734 59.918 47.8227C60.2739 48.0007 60.7979 48.1734 61.487 48.1734V47.8562V47.5391C60.9075 47.5391 60.48 47.3946 60.2017 47.2554C60.062 47.1855 59.9592 47.1167 59.8933 47.0673C59.8604 47.0426 59.8369 47.0229 59.8227 47.0105C59.8156 47.0043 59.8108 46.9999 59.8085 46.9977C59.8073 46.9965 59.8067 46.996 59.8066 46.9959C59.8066 46.9959 59.8068 46.9961 59.8071 46.9964C59.8072 46.9965 59.8074 46.9967 59.8076 46.9969C59.8077 46.997 59.8078 46.9971 59.808 46.9972C59.808 46.9973 59.8081 46.9974 59.8082 46.9974C59.8083 46.9975 59.8084 46.9977 59.5841 47.2219ZM61.487 47.8562V48.1734C62.2074 48.1734 62.7709 47.9001 63.1512 47.4723C63.5263 47.0503 63.707 46.4966 63.707 45.9533H63.3899H63.0727C63.0727 46.3615 62.9363 46.7592 62.6771 47.0509C62.4231 47.3366 62.0352 47.5391 61.487 47.5391V47.8562ZM63.3899 45.9533H63.707C63.707 45.3436 63.3901 44.938 62.9711 44.6587C62.5719 44.3925 62.0513 44.2214 61.5873 44.0667L61.487 44.3676L61.3867 44.6685C61.8741 44.8309 62.305 44.977 62.6193 45.1865C62.914 45.3829 63.0727 45.6116 63.0727 45.9533H63.3899ZM61.487 44.3676L61.5873 44.0667C61.142 43.9183 60.889 43.7473 60.7435 43.5591C60.602 43.3762 60.5317 43.1374 60.5355 42.7853L60.2184 42.7819L59.9013 42.7784C59.8964 43.2193 59.9847 43.6148 60.2418 43.9472C60.4949 44.2744 60.8805 44.4997 61.3867 44.6685L61.487 44.3676ZM60.2184 42.7819L60.5355 42.7853C60.5434 42.0687 61.0408 41.5133 61.8041 41.5133V41.1961V40.879C60.6646 40.879 59.9127 41.7436 59.9013 42.7784L60.2184 42.7819ZM61.8041 41.1961V41.5133C62.2089 41.5133 62.551 41.6484 62.7965 41.7886C62.9185 41.8584 63.0139 41.9279 63.0778 41.979C63.1096 42.0044 63.1333 42.025 63.1482 42.0385C63.1556 42.0452 63.1609 42.0501 63.1638 42.0529C63.1653 42.0543 63.1662 42.0552 63.1665 42.0555C63.1666 42.0557 63.1666 42.0557 63.1665 42.0555C63.1664 42.0555 63.1663 42.0554 63.1662 42.0552C63.1661 42.0551 63.166 42.0551 63.1659 42.055C63.1659 42.0549 63.1658 42.0549 63.1658 42.0548C63.1657 42.0548 63.1656 42.0547 63.3899 41.8304C63.6141 41.6062 63.614 41.6061 63.614 41.606C63.6139 41.606 63.6138 41.6059 63.6138 41.6058C63.6136 41.6057 63.6135 41.6055 63.6134 41.6054C63.6131 41.6051 63.6127 41.6047 63.6123 41.6044C63.6116 41.6036 63.6107 41.6027 63.6096 41.6017C63.6074 41.5996 63.6047 41.5969 63.6012 41.5936C63.5944 41.5871 63.5851 41.5784 63.5733 41.5678C63.5498 41.5466 63.5165 41.5177 63.474 41.4837C63.3892 41.4158 63.2666 41.3267 63.1111 41.2379C62.8016 41.061 62.3508 40.879 61.8041 40.879V41.1961ZM72.8482 44.0504L73.1642 44.023C73.0695 42.9334 72.8409 42.0719 72.1456 41.6199C71.8013 41.3961 71.375 41.2952 70.8675 41.2863C70.3614 41.2775 69.7545 41.3598 69.0297 41.5208L69.0985 41.8304L69.1673 42.14C69.8697 41.9839 70.4215 41.9129 70.8564 41.9205C71.29 41.9281 71.5873 42.0135 71.7999 42.1517C72.2185 42.4238 72.4376 42.9895 72.5323 44.0779L72.8482 44.0504ZM72.9043 47.8562H73.2214C73.2214 47.529 73.2229 47.2122 73.2244 46.9057L72.9073 46.9041L72.5901 46.9026C72.5887 47.209 72.5871 47.5273 72.5871 47.8562H72.9043ZM72.9073 46.9041L73.2244 46.9057C73.2253 46.7061 73.2263 46.5108 73.2267 46.3204L72.9096 46.3196L72.5925 46.3188C72.592 46.5084 72.5911 46.703 72.5901 46.9026L72.9073 46.9041ZM72.9096 46.3196L73.2267 46.3204C73.2289 45.461 73.2219 44.6871 73.1642 44.023L72.8482 44.0504L72.5323 44.0779C72.5873 44.7104 72.5946 45.4581 72.5925 46.3188L72.9096 46.3196ZM72.8482 44.0504V43.7333C71.5935 43.7333 70.4833 43.882 69.6907 44.2729C69.2895 44.4707 68.9566 44.737 68.7339 45.0895C68.5095 45.4448 68.4118 45.8647 68.4446 46.3414L68.761 46.3196L69.0774 46.2978C69.0526 45.9375 69.1268 45.6553 69.2702 45.4282C69.4154 45.1984 69.6463 45.002 69.9712 44.8417C70.6307 44.5165 71.6218 44.3676 72.8482 44.3676V44.0504ZM68.761 46.3196L68.4439 46.3238C68.4557 47.2116 68.983 48.0056 69.904 48.1625C70.7996 48.315 71.9322 47.8385 73.142 46.5353L72.9096 46.3196L72.6772 46.1038C71.5251 47.3447 70.5936 47.6365 70.0105 47.5372C69.4527 47.4422 69.0867 46.9642 69.0781 46.3154L68.761 46.3196ZM79.8815 47.5391V47.2219H78.2958V47.5391V47.8562H79.8815V47.5391ZM78.2958 47.5391V47.2219C78.0452 47.2219 77.3939 47.0842 76.8104 46.6831C76.2432 46.2931 75.7586 45.6692 75.7586 44.6847H75.4415H75.1243C75.1243 45.9203 75.7498 46.7236 76.4511 47.2058C77.1362 47.6768 77.9121 47.8562 78.2958 47.8562V47.5391ZM75.4415 44.6847H75.7586C75.7586 43.6577 76.1212 42.9603 76.6722 42.5126C77.2332 42.0568 78.0265 41.8304 78.9301 41.8304V41.5133V41.1961C77.9308 41.1961 76.9798 41.4454 76.2722 42.0203C75.5546 42.6034 75.1243 43.4917 75.1243 44.6847H75.4415ZM78.9301 41.5133V41.8304H79.8815V41.5133V41.1961H78.9301V41.5133ZM85.8716 44.0504L86.1876 44.023C86.0927 42.9315 85.8584 42.071 85.1608 41.6196C84.4803 41.1792 83.4681 41.2041 82.0526 41.5209L82.1219 41.8304L82.1912 42.1399C83.6097 41.8224 84.3776 41.8683 84.8162 42.1521C85.2376 42.4248 85.4612 42.9915 85.5557 44.0779L85.8716 44.0504ZM85.9277 47.8562H86.2448C86.2448 47.5288 86.2463 47.2117 86.2478 46.905L85.9306 46.9035L85.6135 46.902C85.612 47.2085 85.6105 47.527 85.6105 47.8562H85.9277ZM85.9306 46.9035L86.2478 46.905C86.2487 46.7057 86.2497 46.5106 86.2501 46.3204L85.933 46.3196L85.6158 46.3188C85.6154 46.5082 85.6144 46.7025 85.6135 46.902L85.9306 46.9035ZM85.933 46.3196L86.2501 46.3204C86.2523 45.461 86.2453 44.6871 86.1876 44.023L85.8716 44.0504L85.5557 44.0779C85.6107 44.7104 85.618 45.4581 85.6158 46.3188L85.933 46.3196ZM85.8716 44.0504V43.7333C84.6169 43.7333 83.5067 43.882 82.7141 44.2729C82.3129 44.4707 81.98 44.737 81.7573 45.0895C81.5329 45.4448 81.4352 45.8647 81.468 46.3414L81.7844 46.3196L82.1008 46.2978C82.076 45.9375 82.1502 45.6553 82.2936 45.4282C82.4388 45.1984 82.6697 45.002 82.9946 44.8417C83.6541 44.5165 84.6452 44.3676 85.8716 44.3676V44.0504ZM81.7844 46.3196L81.4673 46.3238C81.479 47.2116 82.0064 48.0056 82.9274 48.1625C83.823 48.315 84.9556 47.8385 86.1654 46.5353L85.933 46.3196L85.7006 46.1038C84.5485 47.3447 83.617 47.6365 83.0339 47.5372C82.4761 47.4422 82.1101 46.9642 82.1015 46.3154L81.7844 46.3196ZM93.836 38.3418H93.5188V44.3676H93.836H94.1531V38.3418H93.836ZM93.836 44.3676H93.5188V47.8562H93.836H94.1531V44.3676H93.836ZM93.836 44.3676H94.1531C94.1531 42.6465 93.0035 41.214 91.3022 41.1961L91.2988 41.5133L91.2955 41.8304C92.5768 41.8439 93.5188 42.9172 93.5188 44.3676H93.836ZM91.2988 41.5133L91.3022 41.1961C90.3907 41.1866 89.6464 41.6457 89.1506 42.3089C88.6578 42.968 88.4001 43.8388 88.4449 44.7012L88.7616 44.6847L89.0784 44.6683C89.0409 43.9467 89.2588 43.2234 89.6586 42.6887C90.0555 42.1579 90.6209 41.8233 91.2955 41.8304L91.2988 41.5133ZM88.7616 44.6847L88.4449 44.7012C88.5274 46.2899 89.5763 47.8381 91.2955 47.8562L91.2988 47.5391L91.3022 47.2219C90.0388 47.2086 89.1506 46.0584 89.0784 44.6683L88.7616 44.6847ZM91.2988 47.5391L91.2955 47.8562C92.2094 47.8658 92.9336 47.4046 93.4182 46.7413C93.8988 46.0837 94.1531 45.219 94.1531 44.3676H93.836H93.5188C93.5188 45.1019 93.2976 45.8313 92.9061 46.3671C92.5186 46.8974 91.9743 47.229 91.3022 47.2219L91.2988 47.5391ZM101.448 46.9048C101.13 46.9048 101.13 46.9045 101.13 46.9043C101.13 46.9042 101.13 46.9039 101.13 46.9038C101.13 46.9035 101.13 46.9032 101.13 46.9029C101.13 46.9023 101.13 46.9017 101.13 46.9013C101.13 46.9003 101.13 46.8995 101.13 46.899C101.13 46.8978 101.13 46.8975 101.13 46.8979C101.13 46.8986 101.13 46.9022 101.13 46.9082C101.128 46.9202 101.125 46.9414 101.117 46.9685C101.102 47.0228 101.071 47.0992 101.006 47.1775C100.884 47.3237 100.589 47.5391 99.8618 47.5391V47.8562V48.1734C100.72 48.1734 101.218 47.913 101.493 47.5835C101.626 47.4239 101.694 47.2625 101.728 47.1383C101.746 47.0763 101.755 47.0231 101.759 46.9831C101.762 46.9631 101.763 46.9462 101.764 46.933C101.764 46.9264 101.764 46.9207 101.765 46.916C101.765 46.9137 101.765 46.9115 101.765 46.9097C101.765 46.9087 101.765 46.9078 101.765 46.907C101.765 46.9066 101.765 46.9062 101.765 46.9058C101.765 46.9057 101.765 46.9054 101.765 46.9053C101.765 46.905 101.765 46.9048 101.448 46.9048ZM99.8618 47.8562V47.5391C98.4302 47.5391 97.0075 46.3922 97.0075 44.6847H96.6903H96.3732C96.3732 46.783 98.1219 48.1734 99.8618 48.1734V47.8562ZM99.5446 41.1961V41.5133C100.283 41.5133 100.779 41.7752 101.114 42.166C101.459 42.5678 101.657 43.1342 101.731 43.7712L102.046 43.7346L102.361 43.6979C102.278 42.9861 102.05 42.2833 101.595 41.753C101.131 41.2119 100.455 40.879 99.5446 40.879V41.1961ZM96.6903 44.6847H97.0075C97.0075 44.5859 97.0112 44.488 97.0184 44.3912L96.7021 44.3676L96.3859 44.3439C96.3775 44.4564 96.3732 44.57 96.3732 44.6847H96.6903ZM96.7021 44.3676L97.0184 44.3912C97.142 42.7386 98.2675 41.5133 99.5446 41.5133V41.1961V40.879C97.8283 40.879 96.5254 42.4791 96.3859 44.3439L96.7021 44.3676ZM101.448 44.3676V44.0504H96.7021V44.3676V44.6847H101.448V44.3676ZM102.046 43.7346L101.731 43.7712C101.747 43.9054 101.635 44.0504 101.448 44.0504V44.3676V44.6847C101.961 44.6847 102.427 44.2597 102.361 43.6979L102.046 43.7346ZM104.302 41.1961H103.985V43.099H104.302H104.619V41.1961H104.302ZM104.302 43.099H103.985V47.8562H104.302H104.619V43.099H104.302ZM104.302 43.099C104.549 43.2971 104.549 43.2972 104.549 43.2972C104.549 43.2972 104.549 43.2973 104.549 43.2973C104.549 43.2973 104.549 43.2973 104.549 43.2973C104.549 43.2973 104.549 43.2971 104.55 43.2969C104.55 43.2965 104.551 43.2957 104.552 43.2945C104.554 43.2922 104.557 43.2884 104.561 43.2833C104.569 43.273 104.582 43.2574 104.6 43.2373C104.634 43.1969 104.686 43.1383 104.752 43.0676C104.884 42.9258 105.073 42.7374 105.298 42.5498C105.763 42.1621 106.323 41.8304 106.839 41.8304V41.5133V41.1961C106.087 41.1961 105.378 41.6573 104.892 42.0625C104.641 42.2713 104.433 42.4793 104.288 42.6348C104.215 42.7128 104.158 42.7781 104.118 42.8245C104.098 42.8477 104.083 42.8661 104.072 42.8791C104.067 42.8856 104.062 42.8907 104.059 42.8944C104.058 42.8962 104.057 42.8977 104.056 42.8988C104.055 42.8993 104.055 42.8998 104.055 42.9001C104.055 42.9003 104.055 42.9004 104.054 42.9006C104.054 42.9006 104.054 42.9007 104.054 42.9007C104.054 42.9008 104.054 42.9009 104.302 43.099ZM110.962 41.5133V41.8304C111.509 41.8304 111.89 42.031 112.141 42.3457C112.401 42.6698 112.548 43.1474 112.548 43.7333H112.865H113.182C113.182 43.0506 113.012 42.4181 112.637 41.9494C112.254 41.4712 111.684 41.1961 110.962 41.1961V41.5133ZM112.865 43.7333H112.548V47.8562H112.865H113.182V43.7333H112.865ZM108.742 43.7333H108.425V47.8562H108.742H109.059V43.7333H108.742ZM116.036 41.5133H115.719V47.8562H116.036H116.353V41.5133H116.036ZM123.014 44.0504L123.329 44.023C123.235 42.9315 123 42.071 122.303 41.6196C121.622 41.1792 120.61 41.2041 119.195 41.5209L119.264 41.8304L119.333 42.1399C120.752 41.8224 121.52 41.8683 121.958 42.1521C122.379 42.4248 122.603 42.9915 122.698 44.0779L123.014 44.0504ZM123.07 47.8562H123.387C123.387 47.5289 123.388 47.2121 123.39 46.9055L123.073 46.904L122.755 46.9025C122.754 47.2089 122.752 47.5272 122.752 47.8562H123.07ZM123.073 46.904L123.39 46.9055C123.391 46.706 123.392 46.5108 123.392 46.3204L123.075 46.3196L122.758 46.3188C122.757 46.5084 122.756 46.7029 122.755 46.9025L123.073 46.904ZM123.075 46.3196L123.392 46.3204C123.394 45.461 123.387 44.6871 123.329 44.023L123.014 44.0504L122.698 44.0779C122.753 44.7104 122.76 45.4581 122.758 46.3188L123.075 46.3196ZM123.014 44.0504V43.7333C121.759 43.7333 120.649 43.882 119.856 44.2729C119.455 44.4707 119.122 44.737 118.899 45.0895C118.675 45.4448 118.577 45.8647 118.61 46.3414L118.926 46.3196L119.243 46.2978C119.218 45.9375 119.292 45.6553 119.435 45.4282C119.581 45.1984 119.812 45.002 120.136 44.8417C120.796 44.5165 121.787 44.3676 123.014 44.3676V44.0504ZM118.926 46.3196L118.609 46.3238C118.621 47.2116 119.148 48.0056 120.069 48.1625C120.965 48.315 122.097 47.8385 123.307 46.5353L123.075 46.3196L122.842 46.1038C121.69 47.3447 120.759 47.6365 120.176 47.5372C119.618 47.4422 119.252 46.9642 119.243 46.3154L118.926 46.3196ZM52.5713 43.7346L52.8863 43.6979C52.8035 42.9861 52.5753 42.2833 52.1204 41.753C51.6562 41.2119 50.9796 40.879 50.0697 40.879V41.1961V41.5133C50.8079 41.5133 51.3037 41.7752 51.639 42.166C51.9836 42.5678 52.1821 43.1342 52.2562 43.7712L52.5713 43.7346ZM47.2272 44.3676V44.6847H51.9726V44.3676V44.0504H47.2272V44.3676ZM51.9726 44.3676V44.6847C52.4861 44.6847 52.9516 44.2597 52.8863 43.6979L52.5713 43.7346L52.2562 43.7712C52.2718 43.9054 52.1597 44.0504 51.9726 44.0504V44.3676ZM108.736 43.5656L109.053 43.5681C109.06 42.621 109.902 41.8304 110.962 41.8304V41.5133V41.1961C109.602 41.1961 108.429 42.2208 108.419 43.5632L108.736 43.5656ZM106.839 41.5133V41.8304C107.347 41.8304 107.715 42.0312 107.971 42.3384C108.234 42.6536 108.389 43.0973 108.42 43.5851L108.736 43.5656L109.053 43.5461C109.016 42.9565 108.827 42.374 108.459 41.9324C108.084 41.4828 107.538 41.1961 106.839 41.1961V41.5133ZM31.6752 41.8304V42.1476C31.8503 42.1476 31.9923 42.2896 31.9923 42.4647H32.3095H32.6266C32.6266 41.9392 32.2006 41.5133 31.6752 41.5133V41.8304Z" fill="#ACACAC"/>
</svg>
