<svg width="150" height="37" viewBox="0 0 150 37" fill="none" xmlns="http://www.w3.org/2000/svg">
<path fill-rule="evenodd" clip-rule="evenodd" d="M142.006 1.08171C146.346 2.23582 149.164 5.22747 149.886 9.44656C149.984 10.0217 150 10.8654 150 15.4154V20.7144L149.797 21.1407C149.401 21.9691 148.637 22.8504 147.833 23.405L147.407 23.6988H139.697C133.57 23.6988 131.878 23.6796 131.454 23.6037C130.764 23.4809 129.886 23.2609 129.396 23.0891C128.88 22.9079 128.71 22.9135 128.657 23.1126C128.633 23.2008 128.613 26.1042 128.613 29.5648C128.612 34.3629 128.592 35.8769 128.527 35.9421C128.359 36.1101 121.386 36.0597 121.296 35.8901C121.157 35.6313 121.197 1.1026 121.336 0.963615C121.439 0.86044 122.358 0.852338 131.372 0.871523L141.296 0.892842L142.006 1.08171ZM7.38821 3.05525C7.48115 3.11409 7.49948 3.85209 7.5306 8.75546C7.56301 13.895 7.57622 14.3904 7.68196 14.4109C7.79025 14.4318 8.79301 13.6124 11.5779 11.2283C12.1488 10.7401 12.9183 10.0852 13.2884 9.77314C13.6584 9.46148 14.5043 8.74224 15.1681 8.17435C15.8319 7.60689 16.6816 6.8868 17.0564 6.57429C17.4311 6.26135 18.4706 5.38096 19.3667 4.61738C20.2629 3.85379 21.0747 3.1742 21.1715 3.10727C21.4077 2.94398 31.7576 2.91712 31.8923 3.07955C32.0053 3.21556 31.8859 3.32001 27.1066 7.28628C24.7617 9.23254 22.6675 10.9742 22.4526 11.1571C22.0992 11.4576 18.6688 14.3145 16.26 16.315C12.703 19.2687 12.5755 19.3804 12.5755 19.5407C12.5755 19.6566 14.2395 21.0712 19.264 25.2268C19.5241 25.4417 20.4518 26.2112 21.3254 26.9369C22.1994 27.6625 23.7777 28.9722 24.8329 29.8471C25.8881 30.7224 27.2123 31.8232 27.7755 32.2939C28.3387 32.7645 29.1095 33.4053 29.4886 33.7178C29.8671 34.0308 30.5826 34.6213 31.078 35.0301C31.6284 35.485 31.9703 35.8163 31.9575 35.8828C31.9277 36.0393 21.4494 36.0853 21.2149 35.9301C21.0406 35.815 19.5117 34.5347 16.6629 32.1191C15.5339 31.1615 14.3841 30.1882 14.1078 29.9558C13.832 29.7234 12.7942 28.8443 11.8026 28.0019C10.8109 27.1594 9.86356 26.3583 9.69728 26.2215C9.53143 26.0846 9.11106 25.7303 8.76316 25.4344C7.98423 24.7706 7.7749 24.6312 7.63762 24.6836C7.54339 24.7199 7.5306 25.3961 7.5306 30.2909C7.5306 34.5253 7.51014 35.8773 7.44534 35.9421C7.2765 36.1109 0.162969 36.0598 0.0713053 35.8892C-0.0608611 35.6415 0.00735411 3.13967 0.140373 3.05525C0.283198 2.9653 7.24581 2.9653 7.38821 3.05525ZM44.0132 3.09746C44.1842 3.26842 44.1842 35.7447 44.0132 35.9157C43.8666 36.0623 36.9658 36.0875 36.8204 35.9421C36.6959 35.818 36.6959 3.19509 36.8204 3.07103C36.9658 2.92564 43.8666 2.9508 44.0132 3.09746ZM56.7779 3.05951C56.9122 3.13114 56.9152 3.28036 56.9152 9.7433C56.9152 14.164 56.9395 16.3994 56.989 16.4915C57.1045 16.7072 73.2825 16.7072 73.3981 16.4915C73.4471 16.3994 73.4714 14.164 73.4714 9.7433C73.4714 3.28036 73.4748 3.13114 73.6091 3.05951C73.8692 2.9201 80.7533 2.96188 80.8706 3.10343C81.0245 3.28889 81.0155 35.8602 80.8616 35.9579C80.6936 36.064 73.6637 36.0491 73.5567 35.9421C73.4919 35.8773 73.4714 34.3846 73.4714 29.6586C73.4714 24.1187 73.4599 23.4485 73.3597 23.3488C73.1904 23.1791 57.3151 23.1782 57.073 23.3475L56.9152 23.4583V29.6574C56.9152 34.3847 56.8948 35.8773 56.8299 35.9421C56.7072 36.0649 49.6623 36.0649 49.5395 35.9421C49.3809 35.7835 49.4197 3.15502 49.5787 3.0625C49.7505 2.96231 56.5908 2.95932 56.7779 3.05951ZM109.098 3.07699C109.175 3.13327 109.341 3.5771 109.53 4.23196C109.699 4.81647 110.142 6.35046 110.515 7.64015C110.888 8.92983 111.437 10.8322 111.737 11.8678C112.586 14.8087 113.373 17.5288 114.153 20.2173C114.414 21.116 114.735 22.2351 114.867 22.7041C114.998 23.1731 115.38 24.4999 115.715 25.6531C117.115 30.4691 117.697 32.4883 117.929 33.3273C118.064 33.8159 118.271 34.5262 118.388 34.9061C118.506 35.2864 118.593 35.6858 118.58 35.7946L118.557 35.992L114.889 36.0103C111.879 36.0252 111.207 36.0116 111.142 35.9327C111.098 35.8798 110.836 35.0404 110.56 34.0666C110.284 33.0933 109.934 31.865 109.781 31.3376C109.629 30.8098 109.277 29.5627 109 28.5663C108.242 25.8446 108.161 25.5939 108.008 25.5125C107.794 25.3978 94.9932 25.4135 94.8406 25.5287C94.7255 25.6156 94.4151 26.6508 93.4392 30.2005C93.0384 31.6595 92.6858 32.9342 92.0936 35.0681C91.9696 35.5145 91.8246 35.8879 91.756 35.9387C91.5688 36.076 84.4647 36.0666 84.35 35.9289C84.2664 35.8282 84.3163 35.6411 85.6576 31.0178C86.3389 28.6699 86.6833 27.4711 86.9021 26.6832C87.0108 26.2927 87.377 25.0136 87.7159 23.8412C88.0549 22.6687 88.7912 20.1107 89.3518 18.1563C89.9129 16.2024 90.6812 13.5322 91.0589 12.2233C91.4366 10.914 92.1619 8.38795 92.6701 6.60968C93.588 3.40016 93.672 3.14052 93.8225 3.04033C93.9734 2.93929 108.959 2.97553 109.098 3.07699ZM100.793 4.88085C100.472 4.96868 100.487 4.92818 99.7282 7.67553C98.9445 10.5137 97.8348 14.4689 97.3458 16.167C96.8316 17.9542 96.679 18.5844 96.7293 18.7153C96.7706 18.8227 97.1573 18.8312 101.448 18.8142L106.122 18.7958L106.144 18.6061C106.156 18.5017 106.002 17.8302 105.801 17.1139C105.6 16.3977 105.296 15.316 105.127 14.7102C102.927 6.84843 102.404 5.03007 102.321 4.94736C102.244 4.86977 101.028 4.81648 100.793 4.88085ZM128.932 7.22617C128.611 7.30504 128.612 7.29822 128.612 11.0824C128.612 15.1783 128.589 15.0001 129.197 15.62C129.97 16.407 130.822 16.905 131.916 17.2103C132.692 17.4269 143.352 17.5113 143.561 17.3028C143.728 17.1352 143.733 10.8752 143.566 10.1692C143.257 8.85736 142.189 7.75398 140.825 7.33744C140.452 7.22404 129.364 7.12043 128.932 7.22617Z" fill="#ACACAC"/>
</svg>
