<svg width="150" height="61" viewBox="0 0 150 61" fill="none" xmlns="http://www.w3.org/2000/svg">
<g filter="url(#filter0_d_791_92)">
<path d="M130.448 21.8158C130.977 23.0697 131.513 24.0201 134.167 24.1893C132.031 23.9479 131.439 23.0522 130.448 21.8158Z" fill="white"/>
<path d="M132.353 47.2958C137.862 46.8484 140.373 45.2377 144.199 40.8336C140.827 45.4948 138.352 47.1116 132.353 47.2958Z" fill="white"/>
<path fill-rule="evenodd" clip-rule="evenodd" d="M133.421 37.9725C132.741 37.9013 129.196 37.4902 129.196 37.4902C129.196 37.4902 125.898 37.1068 125.518 37.0694C120.493 36.4986 117.054 46.7844 127.503 48.3179C149.593 52.6753 154.14 28.4461 133.359 22.3833C129.564 21.2388 131.56 13.8462 138.846 18.0252C148.434 24.4681 152.392 9.45671 136.684 7.65681C130.24 6.91844 122.22 8.80693 120.837 18.2655C120.249 23.5499 121.286 29.9454 130.448 31.4037C139.39 32.8268 138.478 37.9389 133.421 37.9725ZM137.776 9.05961C131.308 8.76167 130.019 8.05973 125.028 13.7075C130.074 8.24721 132.644 8.91119 137.776 9.05961ZM130.448 21.8158C130.977 23.0697 131.513 24.0201 134.167 24.1893C132.031 23.9479 131.439 23.0522 130.448 21.8158ZM132.353 47.2958C137.862 46.8484 140.373 45.2377 144.199 40.8336C140.827 45.4948 138.352 47.1116 132.353 47.2958Z" fill="#ACACAC"/>
<path d="M137.776 9.05961C131.308 8.76167 130.019 8.05973 125.028 13.7075C130.074 8.24721 132.644 8.91119 137.776 9.05961Z" fill="white"/>
<path d="M130.448 21.8158C130.977 23.0697 131.513 24.0201 134.167 24.1893C132.031 23.9479 131.439 23.0522 130.448 21.8158Z" stroke="white" stroke-width="0.591387" stroke-linejoin="round"/>
<path d="M132.353 47.2958C137.862 46.8484 140.373 45.2377 144.199 40.8336C140.827 45.4948 138.352 47.1116 132.353 47.2958Z" stroke="white" stroke-width="0.591387" stroke-linejoin="round"/>
<path fill-rule="evenodd" clip-rule="evenodd" d="M133.421 37.9725C132.741 37.9013 129.196 37.4902 129.196 37.4902C129.196 37.4902 125.898 37.1068 125.518 37.0694C120.493 36.4986 117.054 46.7844 127.503 48.3179C149.593 52.6753 154.14 28.4461 133.359 22.3833C129.564 21.2388 131.56 13.8462 138.846 18.0252C148.434 24.4681 152.392 9.45671 136.684 7.65681C130.24 6.91844 122.22 8.80693 120.837 18.2655C120.249 23.5499 121.286 29.9454 130.448 31.4037C139.39 32.8268 138.478 37.9389 133.421 37.9725ZM137.776 9.05961C131.308 8.76167 130.019 8.05973 125.028 13.7075C130.074 8.24721 132.644 8.91119 137.776 9.05961ZM130.448 21.8158C130.977 23.0697 131.513 24.0201 134.167 24.1893C132.031 23.9479 131.439 23.0522 130.448 21.8158ZM132.353 47.2958C137.862 46.8484 140.373 45.2377 144.199 40.8336C140.827 45.4948 138.352 47.1116 132.353 47.2958Z" stroke="white" stroke-width="0.591387" stroke-linejoin="round"/>
<path d="M137.776 9.05961C131.308 8.76167 130.019 8.05973 125.028 13.7075C130.074 8.24721 132.644 8.91119 137.776 9.05961Z" stroke="white" stroke-width="0.591387" stroke-linejoin="round"/>
</g>
<g filter="url(#filter1_d_791_92)">
<path d="M112.955 35.6044C111.747 36.9258 111.455 37.797 112.604 39.8929C111.896 38.5042 112.026 37.5892 112.955 35.6044Z" fill="white"/>
<path d="M130.229 41.9219C130.257 41.9771 130.284 42.0316 130.311 42.0856C130.312 42.0876 130.313 42.0896 130.314 42.0916C130.314 42.0922 130.314 42.0929 130.315 42.0935C130.316 42.095 130.316 42.0965 130.317 42.098C130.914 44.2205 131.586 45.4156 129.123 48.2318C131.062 45.6187 130.838 44.3804 130.335 42.3538C130.301 42.2137 130.265 42.07 130.229 41.9219Z" fill="white"/>
<path fill-rule="evenodd" clip-rule="evenodd" d="M111.82 18.5111L113.946 17.7259L115.009 17.3334C125.476 12.7018 119.585 4.18429 109.768 8.19074L106.136 9.43115C90.3896 13.3843 103.083 60.5084 123.759 51.5027L126.561 50.2826L127.748 49.7655C137.468 45.7763 131.776 36.3638 123.299 40.9867C114.766 45.5607 107.92 36.6926 118.637 32.9852C126.438 30.1041 123.647 22.282 116.001 24.7715L116.001 24.7715L116.001 24.7716L115.997 24.7728L115.993 24.7743C115.742 24.8661 115.505 24.9534 115.279 25.0364L115.277 25.0369L115.274 25.038L115.274 25.038C111.742 26.3354 111.054 26.5879 110.048 26.5636C106.604 26.4803 106.83 20.3537 111.82 18.5111ZM109.294 9.2098C102.633 12.0023 100.844 14.319 100.175 18.945C100.206 18.6916 100.233 18.4445 100.26 18.2031L100.26 18.203C100.659 14.6259 100.918 12.2973 109.294 9.2098ZM112.955 35.6044C111.747 36.9258 111.455 37.797 112.604 39.8929C111.896 38.5042 112.026 37.5892 112.955 35.6044ZM130.315 42.0935L130.317 42.098C130.914 44.2205 131.586 45.4156 129.123 48.2318C131.062 45.6187 130.838 44.3804 130.335 42.3538C130.301 42.2137 130.265 42.07 130.229 41.9219C130.257 41.9771 130.284 42.0316 130.311 42.0856L130.314 42.0916L130.315 42.0935Z" fill="#ACACAC"/>
<path fill-rule="evenodd" clip-rule="evenodd" d="M112.955 35.6044C111.747 36.9258 111.455 37.797 112.604 39.8929C111.896 38.5042 112.026 37.5892 112.955 35.6044ZM130.317 42.098L130.315 42.0935L130.314 42.0916L130.311 42.0856C130.284 42.0316 130.257 41.9771 130.229 41.9219C130.265 42.07 130.301 42.2137 130.335 42.3538C130.838 44.3804 131.062 45.6187 129.123 48.2318C131.586 45.4156 130.914 44.2205 130.317 42.098Z" fill="white"/>
<path d="M100.175 18.945C100.844 14.319 102.633 12.0023 109.294 9.2098C100.918 12.2973 100.659 14.6259 100.26 18.203L100.26 18.2031C100.233 18.4445 100.206 18.6916 100.175 18.945Z" fill="white"/>
<path d="M123.759 51.5027C103.083 60.5084 90.3896 13.3843 106.136 9.43115L109.768 8.19074C119.585 4.18429 125.476 12.7018 115.009 17.3334L113.946 17.7259L111.82 18.5111C106.83 20.3537 106.604 26.4803 110.048 26.5636C111.054 26.5879 111.742 26.3354 115.274 25.038L115.274 25.038M123.759 51.5027L126.561 50.2826M123.759 51.5027C124.835 51.034 125.832 50.5997 126.561 50.2826M127.748 49.7655C137.468 45.7763 131.776 36.3638 123.299 40.9867C114.766 45.5607 107.92 36.6926 118.637 32.9852C126.438 30.1041 123.647 22.282 116.001 24.7715M127.748 49.7655L126.561 50.2826M127.748 49.7655C127.748 49.7655 127.289 49.9655 126.561 50.2826M115.997 24.7728C115.995 24.7733 115.994 24.7738 115.993 24.7743M115.997 24.7728C115.995 24.7733 115.994 24.7738 115.993 24.7743M115.997 24.7728L116.001 24.7716M115.997 24.7728L115.993 24.7743M115.997 24.7728C115.998 24.7724 115.999 24.772 116.001 24.7716M115.997 24.7728C115.998 24.7724 115.999 24.772 116.001 24.7716M115.274 25.038L115.277 25.0369M115.274 25.038C115.275 25.0376 115.276 25.0373 115.277 25.0369M115.277 25.0369L115.279 25.0364M115.277 25.0369C115.278 25.0367 115.278 25.0366 115.279 25.0364M115.279 25.0364C115.505 24.9534 115.742 24.8661 115.993 24.7743M130.317 42.098L130.315 42.0935M130.317 42.098C130.914 44.2205 131.586 45.4156 129.123 48.2318C131.062 45.6187 130.838 44.3804 130.335 42.3538C130.301 42.2137 130.265 42.07 130.229 41.9219C130.257 41.9771 130.284 42.0316 130.311 42.0856M130.317 42.098C130.316 42.0965 130.316 42.095 130.315 42.0935M130.315 42.0935L130.314 42.0916M130.315 42.0935C130.314 42.0929 130.314 42.0922 130.314 42.0916M116.001 24.7715L116.001 24.7715L116.001 24.7716M116.001 24.7715L116.001 24.7716M130.314 42.0916L130.311 42.0856M130.314 42.0916C130.313 42.0896 130.312 42.0876 130.311 42.0856M109.294 9.2098C102.633 12.0023 100.844 14.319 100.175 18.945C100.206 18.6916 100.233 18.4445 100.26 18.2031L100.26 18.203C100.659 14.6259 100.918 12.2973 109.294 9.2098ZM112.955 35.6044C111.747 36.9258 111.455 37.797 112.604 39.8929C111.896 38.5042 112.026 37.5892 112.955 35.6044Z" stroke="white" stroke-width="0.591387" stroke-linejoin="round"/>
</g>
<g filter="url(#filter2_d_791_92)">
<path d="M80.1379 17.3766C80.5012 15.0546 80.7074 13.7539 84.4324 12.8752C80.7727 14.3434 80.7834 15.4679 80.1379 17.3766Z" fill="white"/>
<path d="M98.7803 18.1412C99.3834 18.633 99.9001 19.3347 100.469 20.3137C99.9982 19.132 99.5367 18.3162 98.9579 17.7938C98.192 17.1288 96.5984 16.968 95.478 17.1288C96.9736 17.1896 97.9573 17.47 98.7803 18.1412Z" fill="white"/>
<path d="M89.2054 31.6793C89.9855 33.4137 90.6896 33.5619 92.9237 33.5619C90.8392 33.2521 90.2041 32.8861 89.2054 31.6793Z" fill="white"/>
<path d="M84.9325 51.7104C85.7664 53.439 86.6043 54.3347 88.7441 54.5369C85.9133 54.6755 85.2867 53.3036 84.9325 51.7104Z" fill="white"/>
<path fill-rule="evenodd" clip-rule="evenodd" d="M78.4414 16.9093C78.5406 17.5259 79.6516 24.1921 81.1452 33.1503L83.1928 49.0017C83.9505 58.7946 94.7003 58.1482 93.3582 48.4001C93.2921 47.9997 93.262 47.5932 93.1885 47.1515L92.9385 45.2158C92.2375 39.7428 94.3919 40.5598 96.1182 40.0533C96.6022 39.9113 99.6193 39.4452 100.254 39.2573C115.61 34.7098 111.04 8.45388 93.8491 9.70807C92.8306 9.78238 92.1987 9.90721 90.6493 10.1646C80.3375 11.8776 79.466 12.4147 78.4414 16.9093ZM89.8628 26.1775L90.6493 30.9059C90.8301 31.9924 91.0332 32.2438 92.167 32.0552L94.4269 31.6793L95.866 31.4399C97.5918 31.0465 98.371 30.6351 99.1974 29.3295C100.944 26.232 101.032 20.4501 96.0116 18.6244C95.3026 18.4205 94.9026 18.3866 94.1836 18.5244L93.3006 18.6712L91.4517 18.9788C90.2021 19.1866 88.8991 20.384 89.0762 21.4489L89.8628 26.1775ZM80.1379 17.3766C80.5012 15.0546 80.7074 13.7539 84.4324 12.8752C80.7727 14.3434 80.7834 15.4679 80.1379 17.3766ZM100.469 20.3137C99.9001 19.3347 99.3834 18.633 98.7803 18.1412C97.9573 17.47 96.9736 17.1896 95.478 17.1288C96.5984 16.968 98.192 17.1288 98.9579 17.7938C99.5367 18.3162 99.9982 19.132 100.469 20.3137ZM89.2054 31.6793C89.9855 33.4137 90.6896 33.5619 92.9237 33.5619C90.8392 33.2521 90.2041 32.8861 89.2054 31.6793ZM84.9325 51.7104C85.7664 53.439 86.6043 54.3347 88.7441 54.5369C85.9133 54.6755 85.2867 53.3036 84.9325 51.7104Z" fill="#ACACAC"/>
<path d="M80.1379 17.3766C80.5012 15.0546 80.7074 13.7539 84.4324 12.8752C80.7727 14.3434 80.7834 15.4679 80.1379 17.3766Z" stroke="white" stroke-width="0.591387" stroke-linejoin="round"/>
<path d="M98.7803 18.1412C99.3834 18.633 99.9001 19.3347 100.469 20.3137C99.9982 19.132 99.5367 18.3162 98.9579 17.7938C98.192 17.1288 96.5984 16.968 95.478 17.1288C96.9736 17.1896 97.9573 17.47 98.7803 18.1412Z" stroke="white" stroke-width="0.591387" stroke-linejoin="round"/>
<path d="M89.2054 31.6793C89.9855 33.4137 90.6896 33.5619 92.9237 33.5619C90.8392 33.2521 90.2041 32.8861 89.2054 31.6793Z" stroke="white" stroke-width="0.591387" stroke-linejoin="round"/>
<path d="M84.9325 51.7104C85.7664 53.439 86.6043 54.3347 88.7441 54.5369C85.9133 54.6755 85.2867 53.3036 84.9325 51.7104Z" stroke="white" stroke-width="0.591387" stroke-linejoin="round"/>
<path fill-rule="evenodd" clip-rule="evenodd" d="M78.4414 16.9093C78.5406 17.5259 79.6516 24.1921 81.1452 33.1503L83.1928 49.0017C83.9505 58.7946 94.7003 58.1482 93.3582 48.4001C93.2921 47.9997 93.262 47.5932 93.1885 47.1515L92.9385 45.2158C92.2375 39.7428 94.3919 40.5598 96.1182 40.0533C96.6022 39.9113 99.6193 39.4452 100.254 39.2573C115.61 34.7098 111.04 8.45388 93.8491 9.70807C92.8306 9.78238 92.1987 9.90721 90.6493 10.1646C80.3375 11.8776 79.466 12.4147 78.4414 16.9093ZM89.8628 26.1775L90.6493 30.9059C90.8301 31.9924 91.0332 32.2438 92.167 32.0552L94.4269 31.6793L95.866 31.4399C97.5918 31.0465 98.371 30.6351 99.1974 29.3295C100.944 26.232 101.032 20.4501 96.0116 18.6244C95.3026 18.4205 94.9026 18.3866 94.1836 18.5244L93.3006 18.6712L91.4517 18.9788C90.2021 19.1866 88.8991 20.384 89.0762 21.4489L89.8628 26.1775ZM80.1379 17.3766C80.5012 15.0546 80.7074 13.7539 84.4324 12.8752C80.7727 14.3434 80.7834 15.4679 80.1379 17.3766ZM100.469 20.3137C99.9001 19.3347 99.3834 18.633 98.7803 18.1412C97.9573 17.47 96.9736 17.1896 95.478 17.1288C96.5984 16.968 98.192 17.1288 98.9579 17.7938C99.5367 18.3162 99.9982 19.132 100.469 20.3137ZM89.2054 31.6793C89.9855 33.4137 90.6896 33.5619 92.9237 33.5619C90.8392 33.2521 90.2041 32.8861 89.2054 31.6793ZM84.9325 51.7104C85.7664 53.439 86.6043 54.3347 88.7441 54.5369C85.9133 54.6755 85.2867 53.3036 84.9325 51.7104Z" stroke="white" stroke-width="0.591387" stroke-linejoin="round"/>
</g>
<g filter="url(#filter3_d_791_92)">
<path d="M63.0382 8.1164C65.0214 5.36253 65.6398 3.24731 71.0979 4.51553C66.5606 2.5758 65.1122 4.12553 63.0382 8.1164Z" fill="white"/>
<path d="M51.5308 42.8996C51.4188 46.1372 52.465 47.0547 56.7444 46.7361C52.1019 46.5356 52.2092 45.0739 51.5308 42.8996Z" fill="white"/>
<path d="M62.5458 30.3537C62.6322 31.7963 62.8661 32.5097 64.8111 32.5097C62.9739 32.2613 62.8535 31.3824 62.5458 30.3537Z" fill="white"/>
<path d="M72.8876 44.8171C73.2329 47.1603 73.3585 48.5079 77.4552 48.9829C73.8675 48.1367 73.4772 46.9608 72.8876 44.8171Z" fill="white"/>
<path fill-rule="evenodd" clip-rule="evenodd" d="M62.8899 39.6461L66.7302 39.9573L70.4136 40.2558C71.8259 40.5089 71.5516 41.8665 71.3875 43.2219L71.3414 43.839C71.1528 50.5455 81.0417 53.934 81.4254 44.1952C83.5418 -9.52368 57.8255 -13.1717 50.1062 41.6571C48.3829 49.1412 59.6852 52.09 60.7344 42.4533C60.9784 40.2126 61.5039 39.5338 62.8899 39.6461ZM70.0986 29.6753C69.3505 13.4884 67.129 14.3621 63.9121 29.0118C63.4011 31.3389 63.8431 31.6908 66.5113 31.7531C68.8563 31.8079 70.3489 32.1842 70.0986 29.6753ZM63.0382 8.1164C65.0214 5.36253 65.6398 3.24731 71.0979 4.51553C66.5606 2.5758 65.1122 4.12553 63.0382 8.1164ZM51.5308 42.8996C51.4188 46.1372 52.465 47.0547 56.7444 46.7361C52.1019 46.5356 52.2092 45.0739 51.5308 42.8996ZM62.5458 30.3537C62.6322 31.7963 62.8661 32.5097 64.8111 32.5097C62.9739 32.2613 62.8535 31.3824 62.5458 30.3537ZM72.8876 44.8171C73.2329 47.1603 73.3585 48.5079 77.4552 48.9829C73.8675 48.1367 73.4772 46.9608 72.8876 44.8171Z" fill="#ACACAC"/>
<path d="M71.3875 43.2219C71.5516 41.8665 71.8259 40.5089 70.4136 40.2558L66.7302 39.9573L62.8899 39.6461C61.5039 39.5338 60.9784 40.2126 60.7344 42.4533C59.6852 52.09 48.3829 49.1412 50.1062 41.6571C57.8255 -13.1717 83.5418 -9.52368 81.4254 44.1952C81.0417 53.934 71.1528 50.5455 71.3414 43.839M71.3875 43.2219L71.3414 43.839M71.3875 43.2219C71.3623 43.4304 71.3471 43.6362 71.3414 43.839M71.3391 43.8706L71.3414 43.839M70.0986 29.6753C69.3505 13.4884 67.129 14.3621 63.9121 29.0118C63.4011 31.3389 63.8431 31.6908 66.5113 31.7531C68.8563 31.8079 70.3489 32.1842 70.0986 29.6753ZM63.0382 8.1164C65.0214 5.36253 65.6398 3.24731 71.0979 4.51553C66.5606 2.5758 65.1122 4.12553 63.0382 8.1164ZM51.5308 42.8996C51.4188 46.1372 52.465 47.0547 56.7444 46.7361C52.1019 46.5356 52.2092 45.0739 51.5308 42.8996ZM62.5458 30.3537C62.6322 31.7963 62.8661 32.5097 64.8111 32.5097C62.9739 32.2613 62.8535 31.3824 62.5458 30.3537ZM72.8876 44.8171C73.2329 47.1603 73.3585 48.5079 77.4552 48.9829C73.8675 48.1367 73.4772 46.9608 72.8876 44.8171Z" stroke="white" stroke-width="0.591387" stroke-linejoin="round"/>
</g>
<g filter="url(#filter4_d_791_92)">
<path d="M27.772 21.837C28.6689 19.2097 29.4351 18.1953 31.9978 18.4703C29.1241 18.4943 28.866 19.9353 27.772 21.837Z" fill="white"/>
<path d="M25.524 52.684C26.1665 56.156 27.0267 57.5099 30.905 57.1458C27.3964 57.1497 26.3488 56.0109 25.524 52.684Z" fill="white"/>
<path d="M45.1812 52.5671C45.453 55.4423 46.0206 56.858 50.8665 57.5704C46.8562 56.7096 45.9648 55.3983 45.1812 52.5671Z" fill="white"/>
<path d="M47.1214 21.0245C47.8243 18.063 48.9658 17.1344 53.2013 17.6315C49.0668 16.6812 47.4889 18.0264 47.1214 21.0245Z" fill="white"/>
<path fill-rule="evenodd" clip-rule="evenodd" d="M45.3599 22.3694L45.3058 23.111C45.276 23.5185 45.1123 26.2206 44.9419 29.1149L44.6726 33.6899C44.6213 34.5609 44.2966 34.6828 43.4792 34.6347L40.7909 34.4764L37.7142 34.2953C37.0121 34.254 36.984 34.1123 37.0353 33.2403L37.3071 28.5736L37.6178 23.2264C38.1132 14.8131 26.3539 14.1207 25.8586 22.5341L24.9805 37.449L24.1023 52.3638C23.6417 60.1875 35.3449 61.8329 35.8806 52.7333L36.1097 48.8428L36.3387 44.9528C36.3677 44.4598 36.7755 44.3307 36.978 44.3427L40.2069 44.5328L43.4352 44.7228C43.8524 44.7474 44.0183 45.1283 43.9829 45.4042L43.8356 47.9064C43.7545 49.2827 43.6732 50.7424 43.6549 51.1513L43.6216 51.8935C43.1392 60.0602 54.8238 61.7045 55.3607 52.5846L56.2298 37.823L57.099 23.0606C57.5921 14.6847 45.851 13.6746 45.3599 22.3694ZM27.772 21.837C28.6689 19.2097 29.4351 18.1953 31.9978 18.4703C29.1241 18.4943 28.866 19.9353 27.772 21.837ZM25.524 52.684C26.1665 56.156 27.0267 57.5099 30.905 57.1458C27.3964 57.1497 26.3488 56.0109 25.524 52.684ZM45.1812 52.5671C45.453 55.4423 46.0206 56.858 50.8665 57.5704C46.8562 56.7096 45.9648 55.3983 45.1812 52.5671ZM47.1214 21.0245C47.8243 18.063 48.9658 17.1344 53.2013 17.6315C49.0668 16.6812 47.4889 18.0264 47.1214 21.0245Z" fill="#ACACAC"/>
<path d="M35.8017 33.479C35.8017 34.9085 36.1376 35.549 37.9889 35.6427C36.1376 35.3928 36.1094 34.5076 35.8017 33.479Z" fill="#ACACAC"/>
<path d="M27.772 21.837C28.6689 19.2097 29.4351 18.1953 31.9978 18.4703C29.1241 18.4943 28.866 19.9353 27.772 21.837Z" stroke="white" stroke-width="0.591387" stroke-linejoin="round"/>
<path d="M25.524 52.684C26.1665 56.156 27.0267 57.5099 30.905 57.1458C27.3964 57.1497 26.3488 56.0109 25.524 52.684Z" stroke="white" stroke-width="0.591387" stroke-linejoin="round"/>
<path d="M45.1812 52.5671C45.453 55.4423 46.0206 56.858 50.8665 57.5704C46.8562 56.7096 45.9648 55.3983 45.1812 52.5671Z" stroke="white" stroke-width="0.591387" stroke-linejoin="round"/>
<path d="M47.1214 21.0245C47.8243 18.063 48.9658 17.1344 53.2013 17.6315C49.0668 16.6812 47.4889 18.0264 47.1214 21.0245Z" stroke="white" stroke-width="0.591387" stroke-linejoin="round"/>
<path fill-rule="evenodd" clip-rule="evenodd" d="M45.3599 22.3694L45.3058 23.111C45.276 23.5185 45.1123 26.2206 44.9419 29.1149L44.6726 33.6899C44.6213 34.5609 44.2966 34.6828 43.4792 34.6347L40.7909 34.4764L37.7142 34.2953C37.0121 34.254 36.984 34.1123 37.0353 33.2403L37.3071 28.5736L37.6178 23.2264C38.1132 14.8131 26.3539 14.1207 25.8586 22.5341L24.9805 37.449L24.1023 52.3638C23.6417 60.1875 35.3449 61.8329 35.8806 52.7333L36.1097 48.8428L36.3387 44.9528C36.3677 44.4598 36.7755 44.3307 36.978 44.3427L40.2069 44.5328L43.4352 44.7228C43.8524 44.7474 44.0183 45.1283 43.9829 45.4042L43.8356 47.9064C43.7545 49.2827 43.6732 50.7424 43.6549 51.1513L43.6216 51.8935C43.1392 60.0602 54.8238 61.7045 55.3607 52.5846L56.2298 37.823L57.099 23.0606C57.5921 14.6847 45.851 13.6746 45.3599 22.3694ZM27.772 21.837C28.6689 19.2097 29.4351 18.1953 31.9978 18.4703C29.1241 18.4943 28.866 19.9353 27.772 21.837ZM25.524 52.684C26.1665 56.156 27.0267 57.5099 30.905 57.1458C27.3964 57.1497 26.3488 56.0109 25.524 52.684ZM45.1812 52.5671C45.453 55.4423 46.0206 56.858 50.8665 57.5704C46.8562 56.7096 45.9648 55.3983 45.1812 52.5671ZM47.1214 21.0245C47.8243 18.063 48.9658 17.1344 53.2013 17.6315C49.0668 16.6812 47.4889 18.0264 47.1214 21.0245Z" stroke="white" stroke-width="0.591387" stroke-linejoin="round"/>
<path d="M35.8017 33.479C35.8017 34.9085 36.1376 35.549 37.9889 35.6427C36.1376 35.3928 36.1094 34.5076 35.8017 33.479Z" stroke="white" stroke-width="0.591387" stroke-linejoin="round"/>
</g>
<g filter="url(#filter5_d_791_92)">
<path d="M13.4041 21.5452C13.959 22.8608 14.6881 23.7334 17.4727 23.911C15.2316 23.6577 14.4437 22.8425 13.4041 21.5452Z" fill="white"/>
<path d="M15.5697 48.1551C21.3499 47.6856 23.9841 45.9957 27.9993 41.3747C24.4607 46.2655 21.8634 47.9619 15.5697 48.1551Z" fill="white"/>
<path fill-rule="evenodd" clip-rule="evenodd" d="M16.6906 38.3728C15.9765 38.298 12.2568 37.8667 12.2568 37.8667C12.2568 37.8667 8.79656 37.4644 8.39808 37.4252C3.12575 36.8263 -0.483179 47.6186 10.4803 49.2276C33.6581 53.7995 38.4291 28.3773 16.6255 22.016C12.6434 20.8151 14.7374 13.0586 22.3818 17.4433C32.4421 24.2035 36.5957 8.45298 20.1143 6.56446C13.353 5.78973 4.93763 7.77121 3.48654 17.6954C2.86944 23.24 3.95766 29.9505 13.571 31.4805C22.9527 32.9737 21.9961 38.3375 16.6906 38.3728ZM20.4422 8.22655C14.5211 7.57038 10.9981 7.33603 7.20171 12.6557C11.8732 7.11741 15.3804 8.10156 20.4422 8.22655ZM13.4041 21.5452C13.959 22.8608 14.6881 23.7334 17.4727 23.911C15.2316 23.6577 14.4437 22.8425 13.4041 21.5452ZM15.5697 48.1551C21.3499 47.6856 23.9841 45.9957 27.9993 41.3747C24.4607 46.2655 21.8634 47.9619 15.5697 48.1551Z" fill="#ACACAC"/>
<path d="M20.4422 8.22655C14.5211 7.57038 10.9981 7.33603 7.20171 12.6557C11.8732 7.11741 15.3804 8.10156 20.4422 8.22655Z" fill="white"/>
<path d="M13.4041 21.5452C13.959 22.8608 14.6881 23.7334 17.4727 23.911C15.2316 23.6577 14.4437 22.8425 13.4041 21.5452Z" stroke="white" stroke-width="0.591387" stroke-linejoin="round"/>
<path d="M15.5697 48.1551C21.3499 47.6856 23.9841 45.9957 27.9993 41.3747C24.4607 46.2655 21.8634 47.9619 15.5697 48.1551Z" stroke="white" stroke-width="0.591387" stroke-linejoin="round"/>
<path fill-rule="evenodd" clip-rule="evenodd" d="M16.6906 38.3728C15.9765 38.298 12.2568 37.8667 12.2568 37.8667C12.2568 37.8667 8.79656 37.4644 8.39808 37.4252C3.12575 36.8263 -0.483179 47.6186 10.4803 49.2276C33.6581 53.7995 38.4291 28.3773 16.6255 22.016C12.6434 20.8151 14.7374 13.0586 22.3818 17.4433C32.4421 24.2035 36.5957 8.45298 20.1143 6.56446C13.353 5.78973 4.93763 7.77121 3.48654 17.6954C2.86944 23.24 3.95766 29.9505 13.571 31.4805C22.9527 32.9737 21.9961 38.3375 16.6906 38.3728ZM20.4422 8.22655C14.5211 7.57038 10.9981 7.33603 7.20171 12.6557C11.8732 7.11741 15.3804 8.10156 20.4422 8.22655ZM13.4041 21.5452C13.959 22.8608 14.6881 23.7334 17.4727 23.911C15.2316 23.6577 14.4437 22.8425 13.4041 21.5452ZM15.5697 48.1551C21.3499 47.6856 23.9841 45.9957 27.9993 41.3747C24.4607 46.2655 21.8634 47.9619 15.5697 48.1551Z" stroke="white" stroke-width="0.591387" stroke-linejoin="round"/>
<path d="M20.4422 8.22655C14.5211 7.57038 10.9981 7.33603 7.20171 12.6557C11.8732 7.11741 15.3804 8.10156 20.4422 8.22655Z" stroke="white" stroke-width="0.591387" stroke-linejoin="round"/>
</g>
<defs>
<filter id="filter0_d_791_92" x="120.398" y="6.82254" width="28.7372" height="43.495" filterUnits="userSpaceOnUse" color-interpolation-filters="sRGB">
<feFlood flood-opacity="0" result="BackgroundImageFix"/>
<feColorMatrix in="SourceAlpha" type="matrix" values="0 0 0 0 0 0 0 0 0 0 0 0 0 0 0 0 0 0 127 0" result="hardAlpha"/>
<feOffset dx="0.788517" dy="0.394258"/>
<feGaussianBlur stdDeviation="0.394258"/>
<feComposite in2="hardAlpha" operator="out"/>
<feColorMatrix type="matrix" values="0 0 0 0 0 0 0 0 0 0 0 0 0 0 0 0 0 0 0.5 0"/>
<feBlend mode="normal" in2="BackgroundImageFix" result="effect1_dropShadow_791_92"/>
<feBlend mode="normal" in="SourceGraphic" in2="effect1_dropShadow_791_92" result="shape"/>
</filter>
<filter id="filter1_d_791_92" x="98.7852" y="6.45926" width="35.9364" height="47.663" filterUnits="userSpaceOnUse" color-interpolation-filters="sRGB">
<feFlood flood-opacity="0" result="BackgroundImageFix"/>
<feColorMatrix in="SourceAlpha" type="matrix" values="0 0 0 0 0 0 0 0 0 0 0 0 0 0 0 0 0 0 127 0" result="hardAlpha"/>
<feOffset dx="0.788517" dy="0.394258"/>
<feGaussianBlur stdDeviation="0.394258"/>
<feComposite in2="hardAlpha" operator="out"/>
<feColorMatrix type="matrix" values="0 0 0 0 0 0 0 0 0 0 0 0 0 0 0 0 0 0 0.5 0"/>
<feBlend mode="normal" in2="BackgroundImageFix" result="effect1_dropShadow_791_92"/>
<feBlend mode="normal" in="SourceGraphic" in2="effect1_dropShadow_791_92" result="shape"/>
</filter>
<filter id="filter2_d_791_92" x="78.1445" y="8.97488" width="33.327" height="48.5399" filterUnits="userSpaceOnUse" color-interpolation-filters="sRGB">
<feFlood flood-opacity="0" result="BackgroundImageFix"/>
<feColorMatrix in="SourceAlpha" type="matrix" values="0 0 0 0 0 0 0 0 0 0 0 0 0 0 0 0 0 0 127 0" result="hardAlpha"/>
<feOffset dx="0.788517" dy="0.394258"/>
<feGaussianBlur stdDeviation="0.394258"/>
<feComposite in2="hardAlpha" operator="out"/>
<feColorMatrix type="matrix" values="0 0 0 0 0 0 0 0 0 0 0 0 0 0 0 0 0 0 0.5 0"/>
<feBlend mode="normal" in2="BackgroundImageFix" result="effect1_dropShadow_791_92"/>
<feBlend mode="normal" in="SourceGraphic" in2="effect1_dropShadow_791_92" result="shape"/>
</filter>
<filter id="filter3_d_791_92" x="49.6328" y="1.49832" width="33.788" height="50.243" filterUnits="userSpaceOnUse" color-interpolation-filters="sRGB">
<feFlood flood-opacity="0" result="BackgroundImageFix"/>
<feColorMatrix in="SourceAlpha" type="matrix" values="0 0 0 0 0 0 0 0 0 0 0 0 0 0 0 0 0 0 127 0" result="hardAlpha"/>
<feOffset dx="0.788517" dy="0.394258"/>
<feGaussianBlur stdDeviation="0.394258"/>
<feComposite in2="hardAlpha" operator="out"/>
<feColorMatrix type="matrix" values="0 0 0 0 0 0 0 0 0 0 0 0 0 0 0 0 0 0 0.5 0"/>
<feBlend mode="normal" in2="BackgroundImageFix" result="effect1_dropShadow_791_92"/>
<feBlend mode="normal" in="SourceGraphic" in2="effect1_dropShadow_791_92" result="shape"/>
</filter>
<filter id="filter4_d_791_92" x="23.793" y="15.6077" width="35.1942" height="44.788" filterUnits="userSpaceOnUse" color-interpolation-filters="sRGB">
<feFlood flood-opacity="0" result="BackgroundImageFix"/>
<feColorMatrix in="SourceAlpha" type="matrix" values="0 0 0 0 0 0 0 0 0 0 0 0 0 0 0 0 0 0 127 0" result="hardAlpha"/>
<feOffset dx="0.788517" dy="0.394258"/>
<feGaussianBlur stdDeviation="0.394258"/>
<feComposite in2="hardAlpha" operator="out"/>
<feColorMatrix type="matrix" values="0 0 0 0 0 0 0 0 0 0 0 0 0 0 0 0 0 0 0.5 0"/>
<feBlend mode="normal" in2="BackgroundImageFix" result="effect1_dropShadow_791_92"/>
<feBlend mode="normal" in="SourceGraphic" in2="effect1_dropShadow_791_92" result="shape"/>
</filter>
<filter id="filter5_d_791_92" x="3.04297" y="5.72293" width="30.0419" height="45.5302" filterUnits="userSpaceOnUse" color-interpolation-filters="sRGB">
<feFlood flood-opacity="0" result="BackgroundImageFix"/>
<feColorMatrix in="SourceAlpha" type="matrix" values="0 0 0 0 0 0 0 0 0 0 0 0 0 0 0 0 0 0 127 0" result="hardAlpha"/>
<feOffset dx="0.788517" dy="0.394258"/>
<feGaussianBlur stdDeviation="0.394258"/>
<feComposite in2="hardAlpha" operator="out"/>
<feColorMatrix type="matrix" values="0 0 0 0 0 0 0 0 0 0 0 0 0 0 0 0 0 0 0.5 0"/>
<feBlend mode="normal" in2="BackgroundImageFix" result="effect1_dropShadow_791_92"/>
<feBlend mode="normal" in="SourceGraphic" in2="effect1_dropShadow_791_92" result="shape"/>
</filter>
</defs>
</svg>
