<svg width="200" height="34" viewBox="0 0 200 34" fill="none" xmlns="http://www.w3.org/2000/svg">
<path d="M10.347 2.87909C4.18398 3.31608 0.494371 6.66904 0.494371 11.8327C0.494371 16.2016 2.70263 18.5456 8.87817 20.7316C13.4728 22.3577 14.779 23.3982 14.677 25.3509C14.5664 27.4777 13.0671 28.2603 9.2789 28.1695C6.4913 28.1023 4.81284 27.7205 2.56005 26.6408C2.19885 26.4672 1.88717 26.3413 1.86816 26.3603C1.84865 26.3799 1.43491 27.5238 0.948631 28.903C0.462353 30.2817 0.0376096 31.4723 0.00509095 31.5486C-0.132988 31.8707 2.56706 32.9714 4.53318 33.3944C8.55248 34.2588 13.038 34.1394 16.0903 33.0873C19.8945 31.7759 21.8496 28.7716 21.6435 24.5542C21.4063 19.7036 19.2916 17.6451 11.8158 14.987C8.36788 13.7613 7.33829 12.8582 7.42083 11.1298C7.49438 9.58451 8.55598 8.84799 10.9794 8.66035C13.1531 8.49177 15.2998 8.89816 17.5096 9.89507C17.8953 10.0692 18.234 10.2172 18.262 10.2242C18.2901 10.2312 18.6823 9.22879 19.1335 7.99658C19.5843 6.76487 20.023 5.56828 20.1076 5.33849L20.2617 4.92006L19.5728 4.59395C16.8762 3.31709 13.3672 2.66486 10.347 2.87909Z" fill="white"/>
<path fill-rule="evenodd" clip-rule="evenodd" d="M98.3944 0.722217C99.396 0.560665 100.835 0.326866 101.592 0.202441C102.349 0.078517 102.99 -0.0117917 103.015 0.00125291C103.04 0.0147992 103.061 2.4436 103.061 5.3992V10.7731L103.198 10.7309C105.412 10.0561 108.388 10.0601 110.492 10.74C113.219 11.621 114.908 13.4482 115.604 16.2714C116.079 18.201 116.095 18.5321 116.096 26.4542V33.3432H109.676L109.652 26.4853L109.651 26.1808C109.629 20.2227 109.626 19.3646 109.433 18.5522C109.4 18.4156 109.362 18.2803 109.318 18.1222L109.304 18.0725C108.675 15.8304 106.833 15.2213 103.347 16.1013L103.061 16.174V33.3432H96.5738V1.01672L98.3944 0.722217ZM77.3884 5.08513L80.4481 4.58442C82.1311 4.30948 83.5699 4.0807 83.646 4.07668L83.7835 4.06916V10.6973H91.4334V16.0978H83.7835V20.3041C83.7835 25.8361 83.8871 26.6283 84.7331 27.5675C85.6331 28.5664 88.2951 28.7023 90.8451 27.88C91.1507 27.7817 91.4179 27.721 91.4399 27.7451C91.5109 27.8254 92.3564 32.6875 92.3074 32.7356C92.1083 32.9303 89.7154 33.5931 88.6793 33.7401C82.9971 34.5473 78.9843 32.6207 77.8456 28.5398C77.3678 26.8264 77.3493 26.2876 77.3699 14.995L77.3884 5.08513ZM52.4781 27.0437C52.1564 25.4502 52.1459 25.1552 52.1454 17.6476L52.1449 10.6973H58.5651L58.5876 17.5552L58.5893 18.0882V18.0886C58.6083 23.9066 58.6113 24.8065 58.844 25.6421C58.8864 25.7945 58.9365 25.9448 58.9957 26.1223L58.996 26.1231L58.9961 26.1237L58.9964 26.1244L59.0129 26.174L59.0254 26.2113C59.6467 28.0837 61.1961 28.6632 64.491 28.2568L65.1799 28.1715V10.6973H71.6056V32.6022L71.3759 32.6639C68.1121 33.5399 63.4144 34.0561 60.6873 33.8384C55.9426 33.4596 53.3386 31.3042 52.4781 27.0437Z" fill="white"/>
<path d="M140.758 2.90769C134.476 3.38582 130.671 7.37797 131.268 12.8662C131.677 16.6366 133.959 18.7764 139.687 20.7622C143.949 22.2398 145.334 23.2743 145.399 25.0278C145.482 27.2669 144.058 28.1881 140.513 28.1876C137.633 28.1876 135.627 27.7586 133.276 26.6403C132.914 26.4682 132.607 26.3388 132.594 26.3523C132.509 26.4426 130.723 31.6384 130.757 31.6946C130.849 31.8431 132.485 32.5696 133.431 32.8821C137.7 34.2904 143.733 34.3281 147.169 32.9679C150.666 31.5827 152.351 29.0204 152.35 25.089C152.347 19.8325 150.237 17.6897 142.319 14.9037C139.394 13.8747 138.241 12.9375 138.144 11.5096C138.023 9.73402 139.112 8.86053 141.697 8.66035C143.987 8.48274 146.514 9.00101 148.662 10.0882C148.866 10.1916 149.038 10.2668 149.045 10.2563C149.052 10.2458 149.477 9.0848 149.988 7.67699C150.5 6.26918 150.935 5.07409 150.955 5.02191C151.025 4.83778 149.024 3.98888 147.428 3.5258C145.49 2.96388 143.026 2.7356 140.758 2.90769Z" fill="white"/>
<path fill-rule="evenodd" clip-rule="evenodd" d="M165.171 10.2352C159.36 11.185 155.85 15.9468 156.014 22.6602C156.225 31.3379 162.394 35.3772 172.567 33.4982C174.418 33.1566 175.865 32.692 175.845 32.4471C175.828 32.2389 175.015 27.3603 174.994 27.3372C174.983 27.3251 174.734 27.4019 174.44 27.5083C171.336 28.6351 167.19 28.7159 165.159 27.6889C163.761 26.982 162.606 25.4522 162.606 24.3078C162.606 24.2045 162.958 24.199 169.82 24.199H177.034L177.074 24.061C177.251 23.4584 177.169 19.9464 176.949 18.6144C176.199 14.0874 173.451 11.1463 169.199 10.32C168.363 10.1575 165.956 10.1068 165.171 10.2352ZM170.943 19.4271C170.736 17.4659 169.573 15.9543 167.985 15.5785C165.338 14.9529 163.117 16.5644 162.638 19.4583L162.595 19.7186H170.974L170.943 19.4271Z" fill="white"/>
<path fill-rule="evenodd" clip-rule="evenodd" d="M187.696 10.2633C185.422 10.5172 182.678 11.0595 182.678 11.2552C182.678 11.3631 183.476 16.3662 183.497 16.3868C183.507 16.3973 183.637 16.3632 183.785 16.311C184.765 15.9643 186.516 15.6623 188.252 15.5409C191.998 15.2785 193.603 16.2292 193.829 18.8462C193.835 18.9141 193.84 18.9764 193.846 19.0336V19.0338C193.879 19.4092 193.893 19.5616 193.83 19.6071C193.787 19.6381 193.708 19.6193 193.575 19.5877C193.546 19.5807 193.514 19.573 193.479 19.5651C192.197 19.2751 189.091 19.2079 187.665 19.4392C182.804 20.2289 180.596 22.4129 180.597 26.4316C180.599 32.0071 184.343 34.2719 192.745 33.7787C194.671 33.6658 198.843 33.0668 199.892 32.7527C200.058 32.703 200.023 17.8111 199.855 16.8955C199.126 12.9224 197.084 10.9763 192.928 10.2944C191.962 10.1359 188.997 10.1183 187.696 10.2633ZM193.847 23.8613L193.388 23.7825C192.25 23.5869 189.746 23.6466 188.861 23.8904C186.501 24.5401 186.229 27.7461 188.468 28.5097C189.527 28.8709 192.329 28.9743 193.686 28.7023L193.879 28.6637L193.847 23.8613Z" fill="white"/>
<path fill-rule="evenodd" clip-rule="evenodd" d="M28.4422 25.8196L28.409 25.8479C28.4199 25.8386 28.4309 25.8292 28.4422 25.8196Z" fill="white"/>
<path fill-rule="evenodd" clip-rule="evenodd" d="M37.7512 17.4553C37.7543 17.4554 37.7574 17.4555 37.7606 17.4556C37.7614 17.4557 37.7621 17.4557 37.7629 17.4557L37.7606 17.4556L37.7512 17.4553ZM36.6724 22.4976C36.6688 22.4961 36.6654 22.4947 36.662 22.4933C36.6607 22.4927 36.6595 22.4922 36.6582 22.4916C36.6545 22.4901 36.651 22.4885 36.6476 22.487C36.6607 22.4917 36.6763 22.4983 36.6942 22.5066C36.6899 22.5049 36.6857 22.5031 36.6817 22.5015C36.6799 22.5007 36.6782 22.5 36.6765 22.4993C36.6751 22.4987 36.6737 22.4982 36.6724 22.4976Z" fill="white"/>
<path fill-rule="evenodd" clip-rule="evenodd" d="M28.4422 25.8196C28.4309 25.8292 28.4199 25.8386 28.409 25.8479L28.4422 25.8196ZM36.6942 22.5066C36.6763 22.4983 36.6607 22.4917 36.6476 22.487C36.651 22.4885 36.6545 22.4901 36.6582 22.4916C36.6595 22.4922 36.6607 22.4927 36.662 22.4933C36.6654 22.4947 36.6688 22.4961 36.6724 22.4976C36.6737 22.4982 36.6751 22.4987 36.6765 22.4993C36.6782 22.5 36.6799 22.5007 36.6817 22.5015C36.6857 22.5031 36.6899 22.5049 36.6942 22.5066Z" fill="white"/>
<path fill-rule="evenodd" clip-rule="evenodd" d="M34.7208 10.2244C28.3894 11.1486 24.4931 16.9263 25.4298 24.0024C26.2502 30.197 30.4584 34.003 36.4845 34C43.6749 33.996 48.2497 28.3827 47.488 20.4986C46.823 13.6186 41.3942 9.24986 34.7208 10.2244ZM28.4422 25.8196C28.4922 25.7812 28.5214 25.7592 28.5873 25.7138C28.3372 24.748 28.1516 23.8747 28.0248 23.08C27.955 22.6423 27.903 22.2285 27.8678 21.8362L27.8677 21.8351C27.8463 21.5964 27.8311 21.3657 27.8219 21.1424C27.8056 20.7461 27.8083 20.3733 27.8286 20.021C27.8424 19.7802 27.8646 19.5489 27.8946 19.3263C27.9091 19.2186 27.9255 19.1128 27.9436 19.009C28.1576 17.7857 28.6212 16.8299 29.2603 15.9685C29.2637 15.964 29.2671 15.9594 29.2705 15.9548C29.4092 15.7686 29.5562 15.5867 29.7106 15.4074C29.7672 15.3417 29.825 15.2762 29.8835 15.2111L29.943 15.1802C28.9863 19.2139 31.4113 22.8304 38.8351 24.2431C41.5117 24.5874 42.6402 24.8573 43.2462 25.8808C43.259 25.9027 43.2692 25.9154 43.2798 25.9397C43.2988 25.9833 43.3083 26.0698 43.3094 26.1632C43.3368 26.614 43.0658 27.0012 42.5918 27.42C42.4554 27.5405 42.3023 27.6636 42.1346 27.7916C41.897 27.9729 41.6302 28.1641 41.3408 28.3716L41.3407 28.3716C41.2269 28.4531 41.1097 28.5372 40.9893 28.6242L40.9717 28.6369C40.929 28.6632 40.8864 28.6892 40.8437 28.7148C40.8413 28.7166 40.8388 28.7184 40.8363 28.7202C39.9873 29.3454 39.1766 29.6909 38.0813 29.8569C35.6189 30.3957 33.2116 29.5853 30.9426 27.103C30.9143 27.072 30.8879 27.0553 30.8303 27.031C30.3577 26.829 29.961 26.6965 29.5347 26.6304L29.5279 26.6293C29.0429 26.5549 28.5187 26.566 27.8 26.6578L27.801 26.6539C27.8166 26.593 27.8335 26.5372 27.8568 26.4821C27.907 26.363 27.9866 26.2471 28.1449 26.0892C28.2157 26.0185 28.3023 25.9394 28.409 25.8479C28.4199 25.8386 28.4309 25.8292 28.4422 25.8196ZM34.1969 14.8793C34.5289 14.9386 35.1176 15.0941 35.0932 15.1162C35.0863 15.1225 34.9507 15.1046 34.7919 15.0765C34.2426 14.9792 34.0824 14.9627 33.6929 14.9633C33.2106 14.9639 32.7395 15.0423 32.4797 15.1652C32.3884 15.2083 32.4319 15.2076 32.7431 15.1607C33.3098 15.0755 33.8298 15.1119 34.3521 15.2736C35.6612 15.6789 36.8274 16.4431 37.2958 17.2025C37.2986 17.2071 37.3013 17.2115 37.304 17.2159C37.3058 17.2189 37.3077 17.2218 37.3094 17.2247L37.3156 17.2348L37.3196 17.2414L37.3202 17.2423L37.3211 17.2438C37.376 17.3337 37.4065 17.3835 37.4506 17.4119C37.5053 17.4473 37.5812 17.4498 37.7512 17.4553L37.7606 17.4556L37.7629 17.4557L37.7714 17.456L37.7837 17.4564L37.7952 17.4568L37.8141 17.4574C38.1923 17.4706 38.2614 17.4898 38.3774 17.6133L38.4523 17.693L38.3978 17.4809C38.3679 17.3642 38.313 17.199 38.276 17.1138C38.2391 17.0286 38.1623 16.845 38.1055 16.7057C37.9857 16.4119 37.8974 16.2474 37.7188 15.9854C37.48 15.6352 37.5848 15.5938 37.8471 15.9348C38.1502 16.3289 38.3561 16.6581 38.4601 16.9145C38.6407 17.3601 38.6903 17.4226 39.119 17.7467C39.2999 17.8834 39.4845 18.0299 39.5291 18.0721C39.5738 18.1142 39.6021 18.1316 39.592 18.1108C39.582 18.0898 39.5655 18.0513 39.5555 18.0251C39.5162 17.9223 39.2877 17.515 39.1555 17.3121C39.0788 17.1946 38.9392 16.9361 38.845 16.7375C38.598 16.2171 38.37 15.7928 38.2385 15.6091C38.1313 15.4592 38.0462 15.2841 38.0701 15.2625C38.0759 15.2572 38.1997 15.2797 38.3453 15.3125C40.3444 15.7624 41.5235 17.0414 41.8234 19.0854L41.8254 19.0995L41.829 19.1238C41.8624 19.3526 41.8796 19.4705 41.9366 19.5639C41.9971 19.6631 42.1023 19.7348 42.3193 19.8826L42.3216 19.8842C42.3321 19.8913 42.3427 19.8986 42.3537 19.906C42.6368 20.099 42.6955 20.1772 42.8684 20.5903C43.0188 20.9496 43.1027 21.0679 43.249 21.1265C43.752 21.3281 43.7553 21.7081 43.2573 22.1155C42.9642 22.3553 42.8948 22.4462 42.6037 22.9713C42.3102 23.5007 42.2604 23.5697 41.9881 23.825C41.7544 24.0439 41.6561 24.1923 41.6266 24.3708L41.6068 24.4902H41.28L41.3794 24.2814C41.5086 24.0098 41.5303 23.9586 41.5165 23.9586C41.4606 23.9586 41.3394 24.028 41.2107 24.1336C40.91 24.3804 40.7799 24.3781 39.8671 24.1104C39.6827 24.0563 39.4124 23.9823 39.2664 23.946L39.2375 23.9388L39.2374 23.9388L39.2373 23.9388C38.8224 23.8356 38.7303 23.8127 38.7302 23.7893C38.7301 23.7826 38.7376 23.7759 38.7472 23.7673L38.748 23.7666L38.7496 23.7651C38.8338 23.6888 38.8119 23.3911 38.7067 23.1805C38.4544 22.6761 37.2479 21.9213 36.1095 21.5558C35.5871 21.388 34.8988 21.2706 35.3552 21.4271C35.564 21.4987 36.8314 22.0829 37.0035 22.1868C37.7314 22.6265 38.2327 23.1686 38.2327 23.5161C38.2327 23.576 37.8732 23.5695 37.8528 23.5093C37.8193 23.4102 37.7227 23.2379 37.6568 23.1596C37.5411 23.0221 36.9285 22.6159 36.6942 22.5066C36.6899 22.5049 36.6857 22.5031 36.6817 22.5015C36.6799 22.5007 36.6782 22.5 36.6765 22.4993L36.6724 22.4976C36.6688 22.4961 36.6654 22.4947 36.662 22.4933L36.6582 22.4916C36.6545 22.4901 36.651 22.4885 36.6476 22.487C36.6029 22.4676 36.5755 22.4529 36.5424 22.4311C36.4774 22.3868 36.3548 22.3145 36.2121 22.2376C35.8348 22.0343 35.5241 21.8509 35.2393 21.6638C35.0658 21.5497 34.8639 21.471 34.7956 21.4906C34.5648 21.557 32.8264 21.1533 32.2542 20.9004C31.8974 20.7427 31.5417 20.4244 31.2848 20.0329L31.2413 19.9669L31.2412 19.9667L31.2408 19.9661C31.132 19.801 31.0881 19.7345 31.1059 19.7C31.1179 19.6768 31.1579 19.668 31.2247 19.6534L31.2248 19.6534C31.2372 19.6507 31.2505 19.6478 31.2647 19.6445C31.5803 19.5727 31.6883 19.4964 31.7883 19.2745C31.9201 18.9818 31.9945 18.8753 32.1878 18.7021C32.3764 18.5332 32.8862 18.1395 33.1302 17.9745C33.5179 17.7121 33.3599 16.7346 32.8452 16.2121C32.7972 16.1634 32.7578 16.1157 32.7575 16.1063C32.7562 16.0556 32.288 15.7566 32.1122 15.6941C31.3815 15.4343 31.7695 14.9644 32.8123 14.8463C32.9433 14.8314 33.0881 14.8146 33.1342 14.8089C33.3202 14.7857 33.8803 14.8229 34.1969 14.8793Z" fill="white"/>
</svg>
