<svg width="125" height="125" viewBox="0 0 125 125" fill="none" xmlns="http://www.w3.org/2000/svg">
<g clip-path="url(#clip0_396_2)">
<g filter="url(#filter0_d_396_2)">
<path d="M29.9145 92.1086C31.0301 92.173 32.0397 92.7638 32.7613 93.6144C37.2958 98.9597 35.7698 100.572 33.6752 104.47C27.7551 115.488 10.9412 109.72 10.1841 109.371C8.70426 108.688 7.39661 108.109 7.27996 108.085C6.48031 107.917 7.51833 107.187 8.82239 107C16.0108 105.97 14.9525 103.791 19.489 96.7272C21.0488 94.2983 25.2101 91.8372 29.9145 92.1086Z" fill="#1A2C54"/>
<path d="M92.3717 32.8959C96.5833 28.7175 100.977 24.3585 102.137 23.2104C110.87 14.5603 116.788 12.4568 117.859 18.2813C119.244 25.8241 91.0598 50.3181 65.5572 72.4784C56.981 79.9317 47.8763 87.8444 38.4358 96.1399C37.5488 96.9194 35.8396 96.121 35.2634 95.0917C33.81 92.495 34.6669 89.9805 36.7842 87.886L92.3717 32.8959Z" fill="#1A2C54"/>
</g>
</g>
<defs>
<filter id="filter0_d_396_2" x="-1.96442" y="6.03558" width="128.837" height="114.118" filterUnits="userSpaceOnUse" color-interpolation-filters="sRGB">
<feFlood flood-opacity="0" result="BackgroundImageFix"/>
<feColorMatrix in="SourceAlpha" type="matrix" values="0 0 0 0 0 0 0 0 0 0 0 0 0 0 0 0 0 0 127 0" result="hardAlpha"/>
<feOffset/>
<feGaussianBlur stdDeviation="4.48221"/>
<feComposite in2="hardAlpha" operator="out"/>
<feColorMatrix type="matrix" values="0 0 0 0 0 0 0 0 0 0 0 0 0 0 0 0 0 0 0.2 0"/>
<feBlend mode="normal" in2="BackgroundImageFix" result="effect1_dropShadow_396_2"/>
<feBlend mode="normal" in="SourceGraphic" in2="effect1_dropShadow_396_2" result="shape"/>
</filter>
<clipPath id="clip0_396_2">
<rect width="125" height="125" fill="white"/>
</clipPath>
</defs>
</svg>
