<svg width="125" height="125" viewBox="0 0 125 125" fill="none" xmlns="http://www.w3.org/2000/svg">
<g filter="url(#filter0_d_396_6)">
<path fill-rule="evenodd" clip-rule="evenodd" d="M49.4397 28.2912C47.2871 28.9715 46.2668 29.8326 44.4917 32.467C43.0241 34.6452 41.6317 36.1607 40.3376 36.9884L39.3928 37.593L30.3996 37.5961C19.0068 37.6001 18.1678 37.7842 16.5882 40.6268L16 41.6851V68.0351V94.3848L16.4561 95.2359C17.1131 96.4622 18.2376 97.1993 19.8613 97.4684C20.8294 97.6288 32.9879 97.6757 63.2558 97.635L105.306 97.5787L106.207 97.1628C107.278 96.6687 108.263 95.6106 108.638 94.5518C108.862 93.9223 108.91 89.1826 108.91 67.9352V42.0844L108.435 41.0381C106.989 37.849 106.445 37.7125 94.6801 37.593L84.8555 37.4932L83.7993 36.6946C82.6452 35.8222 81.0784 33.8726 80.3683 32.4251C79.2974 30.243 77.5712 28.9344 74.9511 28.3186C73.2159 27.9108 50.7191 27.8867 49.4397 28.2912ZM23.709 32.8521L23.7092 35.7964H30.5173H37.3253V32.907V30.0178L30.5171 29.9627L23.709 29.9075V32.8521ZM67.4609 46.673C77.1154 49.3299 83.3098 56.7919 83.726 66.2669C84.5733 85.5501 61.5794 95.978 47.605 82.6479C35.1215 70.7398 41.2386 50.0015 58.2751 46.4745C60.1453 46.0873 65.7748 46.2091 67.4609 46.673ZM89.4055 46.4859C91.3982 47.513 91.1365 50.349 88.9898 50.99C87.9638 51.2966 87.2416 51.0839 86.4441 50.2411C84.5643 48.2539 86.9549 45.2225 89.4055 46.4859ZM59.7846 51.3773C47.5369 53.5649 42.1108 68.1136 50.0241 77.5479C59.2826 88.5867 77.3591 82.7882 78.5002 68.4135C79.3026 58.3046 69.739 49.5993 59.7846 51.3773Z" fill="#1A2C54"/>
</g>
<defs>
<filter id="filter0_d_396_6" x="9.54231" y="21.5423" width="105.826" height="82.5638" filterUnits="userSpaceOnUse" color-interpolation-filters="sRGB">
<feFlood flood-opacity="0" result="BackgroundImageFix"/>
<feColorMatrix in="SourceAlpha" type="matrix" values="0 0 0 0 0 0 0 0 0 0 0 0 0 0 0 0 0 0 127 0" result="hardAlpha"/>
<feOffset/>
<feGaussianBlur stdDeviation="3.22885"/>
<feComposite in2="hardAlpha" operator="out"/>
<feColorMatrix type="matrix" values="0 0 0 0 0 0 0 0 0 0 0 0 0 0 0 0 0 0 0.2 0"/>
<feBlend mode="normal" in2="BackgroundImageFix" result="effect1_dropShadow_396_6"/>
<feBlend mode="normal" in="SourceGraphic" in2="effect1_dropShadow_396_6" result="shape"/>
</filter>
</defs>
</svg>
