<svg width="125" height="125" viewBox="0 0 125 125" fill="none" xmlns="http://www.w3.org/2000/svg">
<g filter="url(#filter0_d_396_8)">
<path fill-rule="evenodd" clip-rule="evenodd" d="M72.4559 15.1669C72.4559 15.2606 72.1876 15.4476 71.8599 15.5823C69.1753 16.6847 68.2231 18.454 66.6774 25.2116C64.4012 35.1645 61.1066 40.8732 53.7306 47.6446C47.2392 53.604 36.0877 60.1666 23.6824 65.3276C18.9464 67.2982 17.3956 68.8492 16.5403 72.4712C16.4077 73.0324 16.2318 73.4914 16.1496 73.4914C16.0674 73.4914 16 74.6721 16 76.1151C16 77.5659 16.0799 78.7386 16.1789 78.7386C16.2771 78.7386 16.4186 79.0964 16.4932 79.5335C16.909 81.9741 19.9478 85.846 22.7107 87.4555C26.269 89.5283 28.4174 89.731 32.3427 88.3637L34.9727 87.4474L35.7704 88.3052C36.8531 89.4698 38.2323 90.1706 40.2674 90.5904C43.4575 91.2486 42.7803 90.3265 46.8408 99.5436C50.9133 108.788 51.3635 109.574 53.1215 110.513C53.5129 110.722 53.8333 110.96 53.8333 111.043C53.8333 111.251 56.1378 111.232 56.2182 111.023C56.2542 110.93 57.3864 110.44 58.7339 109.934C60.0817 109.429 62.4634 108.537 64.0267 107.952C68.2844 106.36 69.0828 105.772 69.4171 103.985C69.7272 102.325 69.0291 101.278 66.5675 99.7113C64.4639 98.3721 64.4479 98.3486 62.1512 93.209C58.4468 84.9191 58.369 84.6936 58.7481 83.3404C59.5077 80.6288 62.4223 79.6526 69.8097 79.6353C78.9167 79.6141 84.4608 81.2697 93.5311 86.7192C102.432 92.0673 106.769 91.1885 108.298 83.7266C108.477 82.8536 108.689 82.1104 108.77 82.0747C108.976 81.984 108.955 73.2973 108.749 73.2973C108.657 73.2973 108.525 72.7017 108.457 71.9743C106.52 51.3071 90.014 21.5337 77.3915 15.9367C76.6716 15.6176 75.9292 15.2751 75.742 15.1761C75.309 14.947 72.4559 14.9389 72.4559 15.1669ZM99.3389 76.5232C101.099 62.9964 88.3896 34.5741 77.2972 27.2308C75.1231 25.7915 74.617 26.8018 74.6137 32.5846C74.6046 49.1461 84.8069 70.7834 96.0864 78.1244C98.5361 79.7187 98.9496 79.5151 99.3389 76.5232Z" fill="#1A2C54"/>
</g>
<defs>
<filter id="filter0_d_396_8" x="8.42829" y="7.42829" width="108.058" height="111.334" filterUnits="userSpaceOnUse" color-interpolation-filters="sRGB">
<feFlood flood-opacity="0" result="BackgroundImageFix"/>
<feColorMatrix in="SourceAlpha" type="matrix" values="0 0 0 0 0 0 0 0 0 0 0 0 0 0 0 0 0 0 127 0" result="hardAlpha"/>
<feOffset/>
<feGaussianBlur stdDeviation="3.78585"/>
<feComposite in2="hardAlpha" operator="out"/>
<feColorMatrix type="matrix" values="0 0 0 0 0 0 0 0 0 0 0 0 0 0 0 0 0 0 0.2 0"/>
<feBlend mode="normal" in2="BackgroundImageFix" result="effect1_dropShadow_396_8"/>
<feBlend mode="normal" in="SourceGraphic" in2="effect1_dropShadow_396_8" result="shape"/>
</filter>
</defs>
</svg>
