<svg width="1977" height="1080" viewBox="0 0 1977 1080" fill="none" xmlns="http://www.w3.org/2000/svg">
<path d="M153.283 394.806V676.654C253.49 676.654 241.424 651.885 241.424 596.797V545.381H318.548C344.256 545.381 344.256 523.345 344.256 508.655C344.256 493.965 347.928 471.93 318.548 471.93H241.424V394.806C263.459 394.806 292.84 391.133 292.84 409.496C292.84 427.859 307.53 424.186 329.566 424.186C369.964 424.186 369.964 424.186 369.964 398.478V354.407C369.964 336.045 362.619 321.354 311.203 321.354H138.592C116.557 321.354 120.23 336.045 120.23 358.08C120.23 391.133 127.575 394.806 153.283 394.806Z" fill="#ACACAC"/>
<path fill-rule="evenodd" clip-rule="evenodd" d="M571.955 684.938C674.384 683.924 756.597 600.067 755.583 497.637C754.569 395.208 670.711 312.995 568.282 314.009C466.872 315.013 385.658 396.227 384.654 497.637C383.63 601.076 468.516 685.962 571.955 684.938ZM663.769 497.637C662.721 443.888 622.042 398.478 568.282 398.478C514.523 398.478 473.736 443.886 472.796 497.637C471.82 553.416 516.208 602.609 571.955 600.469C625.751 598.404 664.818 551.463 663.769 497.637Z" fill="#ACACAC"/>
<path d="M792.308 394.806V677.593C880.45 677.593 880.45 662.903 880.45 618.832V394.806C942.883 394.806 953.901 405.823 953.901 438.876C953.901 480.697 928.193 472.801 898.813 493.965C890.286 500.107 887.088 514.773 890.112 531.505C894.049 553.292 917.176 549.053 935.538 593.124C956.118 642.515 979.609 677.593 1012.66 677.593C1067.75 677.593 1067.75 637.195 1067.75 622.504C1067.75 607.814 1064.54 600.469 1049.39 600.469C1027.35 600.469 1031.03 552.726 994.299 531.505C989.987 529.013 990.861 524.72 994.299 523.345C1067.75 493.965 1078.77 321.354 920.848 321.354H788.636C766.601 321.354 759.255 325.027 759.255 358.08C759.255 387.46 762.928 394.806 792.308 394.806Z" fill="#ACACAC"/>
<path d="M1100.86 676.805C1100.83 677.231 1101.17 677.593 1101.59 677.593H1144.87C1188.95 677.593 1188.95 655.557 1188.95 626.177C1188.95 619.3 1194.83 540.928 1199.11 480.35C1199.39 476.389 1199.67 472.503 1199.93 468.719C1199.94 468.635 1200.05 468.625 1200.08 468.706C1201.07 472.664 1202.07 476.545 1203.09 480.35C1254.85 673.681 1340.34 669.813 1387.15 468.747C1387.17 468.665 1387.29 468.655 1387.3 468.739C1391.6 530.41 1398.28 622.514 1398.28 626.177C1398.28 666.575 1405.63 677.593 1438.68 677.593H1489.3C1489.73 677.593 1490.07 677.226 1490.03 676.798L1460.77 322.028C1460.74 321.647 1460.42 321.354 1460.04 321.354H1369.41C1369.1 321.354 1368.83 321.541 1368.72 321.825L1296.12 510.588C1295.88 511.211 1295 511.218 1294.75 510.6L1218.51 321.814C1218.4 321.536 1218.13 321.354 1217.83 321.354H1127.2C1126.81 321.354 1126.49 321.652 1126.46 322.036L1100.86 676.805Z" fill="#ACACAC"/>
<path fill-rule="evenodd" clip-rule="evenodd" d="M1835.32 677.593C1861.02 677.593 1861.02 673.92 1850.01 640.867L1732.5 321.402C1732.49 321.374 1732.46 321.354 1732.43 321.354H1640.72C1640.69 321.354 1640.66 321.374 1640.65 321.404L1585.6 479.225C1585.59 479.255 1585.56 479.274 1585.53 479.274C1519.48 479.27 1530.49 471.941 1512.13 516C1496.83 552.726 1490.1 571.089 1537.84 571.089C1570.19 571.089 1683.48 595.721 1757.15 672.54C1761.42 677.164 1765.54 677.593 1769.21 677.593H1835.32ZM1713.72 525.303C1713.87 525.939 1713.17 526.436 1712.62 526.096C1694.24 514.859 1683.1 509.197 1663.35 501.558C1662.99 501.419 1662.79 501.025 1662.9 500.656L1687.62 419.458C1687.84 418.739 1688.86 418.773 1689.04 419.505L1713.72 525.303Z" fill="#ACACAC"/>
<path d="M1515.94 677.593C1515.88 677.593 1515.85 677.526 1515.88 677.478C1540.15 641.617 1523.21 585.779 1578.24 585.779C1603.94 585.779 1622.31 611.487 1622.31 629.85C1622.31 644.54 1622.31 677.593 1589.25 677.593H1515.94Z" fill="#ACACAC"/>
<path fill-rule="evenodd" clip-rule="evenodd" d="M1463.74 776.376C1459.68 776.376 1456.39 773.088 1456.39 769.031C1456.39 764.975 1459.68 761.686 1463.74 761.686C1467.8 761.686 1471.08 764.975 1471.08 769.031C1471.08 773.088 1467.8 776.376 1463.74 776.376ZM1379.2 818.505C1379.24 819.149 1379.27 819.797 1379.27 820.446C1379.22 819.793 1379.2 819.146 1379.2 818.505Z" fill="#ACACAC"/>
<path d="M1379.2 818.505L1382.87 818.279L1375.53 818.477L1379.2 818.505ZM1379.27 820.446L1375.61 820.728L1382.94 820.417L1379.27 820.446ZM447.342 835.398L451.014 835.494L447.342 835.398ZM449.052 779.112L452.721 779.259L449.052 779.112ZM534.484 844.941L538.155 845.031V845.031L534.484 844.941ZM666.931 827.791L663.269 827.517V827.517L666.931 827.791ZM769.626 827.791L768.464 831.275L769.626 827.791ZM754.936 809.429L751.263 809.388V809.388L754.936 809.429ZM832.059 827.791L830.898 831.275L832.059 827.791ZM817.369 809.429L813.697 809.388V809.388L817.369 809.429ZM964.306 857.167L960.633 857.15V857.15L964.306 857.167ZM964.333 850.395L968.006 850.404L964.333 850.395ZM916.293 850.395L919.965 850.347L919.963 850.245L919.956 850.143L916.293 850.395ZM1114.43 824.119L1118.09 823.801L1114.43 824.119ZM1115.12 857.156L1111.44 857.139V857.139L1115.12 857.156ZM1115.14 850.395L1118.82 850.404V850.404L1115.14 850.395ZM1067.1 850.395L1070.78 850.347L1070.77 850.245L1070.77 850.143L1067.1 850.395ZM1177.28 794.738L1177.24 798.411L1177.28 794.738ZM1147.9 831.464L1151.57 831.273V831.273L1147.9 831.464ZM1177.28 864.517L1177.24 868.189L1177.28 864.517ZM1301.73 820.461L1305.38 820.036V820.036L1301.73 820.461ZM1239.85 827.791L1236.19 827.517V827.517L1239.85 827.791ZM1545.22 857.156L1541.55 857.139V857.139L1545.22 857.156ZM1545.25 850.395L1548.92 850.404V850.404L1545.25 850.395ZM1497.21 850.395L1500.88 850.347L1500.88 850.244L1500.87 850.143L1497.21 850.395ZM728.815 820.461L732.463 820.036V820.036L728.815 820.461ZM1379.2 818.505L1375.54 818.731L1382.88 818.533L1379.2 818.505ZM1452.72 769.031C1452.72 775.116 1457.65 780.049 1463.74 780.049V772.704C1461.71 772.704 1460.07 771.059 1460.07 769.031H1452.72ZM1463.74 758.013C1457.65 758.013 1452.72 762.946 1452.72 769.031H1460.07C1460.07 767.003 1461.71 765.359 1463.74 765.359V758.013ZM1474.76 769.031C1474.76 762.946 1469.82 758.013 1463.74 758.013V765.359C1465.77 765.359 1467.41 767.003 1467.41 769.031H1474.76ZM1463.74 780.049C1469.82 780.049 1474.76 775.116 1474.76 769.031H1467.41C1467.41 771.059 1465.77 772.704 1463.74 772.704V780.049ZM1375.54 818.73C1375.57 819.309 1375.59 819.892 1375.6 820.476L1382.94 820.417C1382.94 819.702 1382.91 818.989 1382.87 818.279L1375.54 818.73ZM1382.93 820.165C1382.89 819.614 1382.87 819.07 1382.88 818.533L1375.53 818.477C1375.53 819.222 1375.55 819.972 1375.61 820.728L1382.93 820.165ZM450.111 868.301C450.43 857.772 450.722 846.65 451.014 835.494L443.671 835.302C443.379 846.461 443.088 857.567 442.769 868.078L450.111 868.301ZM451.014 835.494C451.528 815.865 452.045 796.135 452.721 779.259L445.382 778.965C444.703 795.902 444.185 815.687 443.671 835.302L451.014 835.494ZM452.721 779.259C453.058 770.856 458.998 765.632 467.013 763.253C470.998 762.069 475.298 761.679 479.201 762.002C483.153 762.329 486.403 763.36 488.474 764.741L492.548 758.63C489.11 756.338 484.529 755.073 479.807 754.682C475.035 754.287 469.818 754.757 464.922 756.211C455.172 759.106 445.891 766.269 445.382 778.965L452.721 779.259ZM431.75 802.083H486.838V794.738H431.75V802.083ZM490.511 805.756V868.19H497.856V805.756H490.511ZM556.617 864.517C545.399 864.517 541.541 862.323 539.927 859.979C539.054 858.71 538.507 856.961 538.253 854.394C537.995 851.799 538.064 848.761 538.155 845.031L530.813 844.851C530.724 848.448 530.632 851.98 530.943 855.119C531.258 858.285 532.01 861.432 533.877 864.144C537.744 869.76 545.132 871.862 556.617 871.862V864.517ZM538.155 845.031C538.203 843.097 538.254 841.007 538.254 838.809H530.909C530.909 840.904 530.86 842.906 530.813 844.851L538.155 845.031ZM538.254 838.809V772.703H530.909V838.809H538.254ZM519.892 802.083H556.617V794.738H519.892V802.083ZM578.652 791.066V820.446H585.998V791.066H578.652ZM578.652 820.446V868.19H585.998V820.446H578.652ZM582.325 820.446C585.948 821.05 585.947 821.052 585.947 821.054C585.947 821.054 585.947 821.056 585.946 821.057C585.946 821.059 585.946 821.061 585.946 821.062C585.945 821.065 585.945 821.066 585.945 821.067C585.945 821.067 585.946 821.062 585.947 821.053C585.951 821.034 585.958 820.995 585.97 820.938C585.993 820.824 586.034 820.638 586.096 820.39C586.22 819.893 586.429 819.153 586.755 818.251C587.409 816.438 588.516 814.028 590.313 811.632C593.809 806.971 600.1 802.083 611.706 802.083V794.738C597.603 794.738 589.204 800.868 584.437 807.225C582.102 810.338 580.684 813.437 579.846 815.756C579.426 816.92 579.147 817.901 578.97 818.609C578.882 818.963 578.818 819.25 578.775 819.459C578.754 819.564 578.737 819.649 578.725 819.713C578.719 819.745 578.715 819.772 578.711 819.794C578.709 819.805 578.707 819.814 578.706 819.822C578.705 819.826 578.705 819.83 578.704 819.833C578.704 819.835 578.703 819.837 578.703 819.838C578.703 819.84 578.702 819.842 582.325 820.446ZM611.706 802.083C623.266 802.083 628.479 806.909 631.028 811.279C632.372 813.584 633.06 815.921 633.407 817.704C633.579 818.589 633.663 819.316 633.703 819.804C633.724 820.048 633.733 820.231 633.737 820.342C633.74 820.397 633.74 820.434 633.741 820.452C633.741 820.461 633.741 820.465 633.741 820.464C633.741 820.464 633.741 820.462 633.741 820.459C633.741 820.458 633.741 820.456 633.741 820.454C633.741 820.453 633.741 820.451 633.741 820.45C633.741 820.448 633.741 820.446 637.413 820.446C641.086 820.446 641.086 820.444 641.086 820.442C641.086 820.441 641.086 820.439 641.086 820.437C641.086 820.433 641.086 820.43 641.086 820.425C641.086 820.417 641.086 820.407 641.086 820.396C641.086 820.374 641.085 820.347 641.085 820.314C641.083 820.249 641.081 820.162 641.077 820.056C641.069 819.844 641.053 819.553 641.023 819.194C640.963 818.478 640.847 817.484 640.617 816.302C640.16 813.954 639.241 810.782 637.372 807.578C633.494 800.93 625.853 794.738 611.706 794.738V802.083ZM633.741 820.446V868.19H641.086V820.446H633.741ZM721.882 857.172C718.21 857.172 718.21 857.169 718.21 857.166C718.21 857.165 718.21 857.162 718.21 857.16C718.21 857.157 718.21 857.153 718.21 857.15C718.21 857.143 718.21 857.137 718.21 857.131C718.21 857.12 718.21 857.111 718.211 857.105C718.211 857.092 718.211 857.088 718.211 857.092C718.211 857.101 718.208 857.142 718.2 857.211C718.183 857.351 718.144 857.596 718.057 857.91C717.883 858.538 717.521 859.423 716.766 860.33C715.355 862.023 711.941 864.517 703.52 864.517V871.862C713.461 871.862 719.229 868.848 722.408 865.032C723.948 863.184 724.735 861.314 725.134 859.876C725.334 859.158 725.438 858.542 725.493 858.079C725.521 857.847 725.536 857.652 725.545 857.499C725.549 857.423 725.552 857.357 725.553 857.302C725.554 857.275 725.554 857.25 725.555 857.228C725.555 857.218 725.555 857.207 725.555 857.198C725.555 857.193 725.555 857.189 725.555 857.184C725.555 857.182 725.555 857.179 725.555 857.178C725.555 857.175 725.555 857.172 721.882 857.172ZM703.52 864.517C686.942 864.517 670.467 851.236 670.467 831.464H663.121C663.121 855.762 683.371 871.862 703.52 871.862V864.517ZM670.467 831.464C670.467 830.319 670.509 829.185 670.593 828.065L663.269 827.517C663.171 828.819 663.121 830.136 663.121 831.464H670.467ZM670.593 828.065C672.025 808.927 685.058 794.738 699.847 794.738V787.393C679.972 787.393 664.884 805.923 663.269 827.517L670.593 828.065ZM747.59 860.844C744.993 863.441 744.995 863.443 744.996 863.444C744.997 863.444 744.998 863.446 744.999 863.447C745.001 863.449 745.003 863.451 745.005 863.453C745.009 863.457 745.014 863.462 745.019 863.467C745.03 863.477 745.042 863.489 745.057 863.503C745.085 863.531 745.121 863.565 745.165 863.606C745.252 863.688 745.369 863.795 745.516 863.924C745.811 864.182 746.227 864.527 746.764 864.93C747.838 865.736 749.402 866.774 751.457 867.802C755.578 869.863 761.646 871.862 769.626 871.862V864.517C762.915 864.517 757.965 862.844 754.742 861.232C753.124 860.423 751.933 859.626 751.171 859.054C750.79 858.768 750.518 858.54 750.353 858.396C750.271 858.324 750.216 858.274 750.188 858.248C750.174 858.235 750.167 858.228 750.167 858.228C750.167 858.228 750.169 858.229 750.172 858.233C750.174 858.234 750.176 858.236 750.178 858.239C750.18 858.24 750.181 858.241 750.183 858.243C750.183 858.244 750.184 858.245 750.185 858.245C750.186 858.246 750.187 858.248 747.59 860.844ZM769.626 871.862C777.967 871.862 784.494 868.697 788.897 863.743C793.241 858.857 795.334 852.446 795.334 846.154H787.989C787.989 850.881 786.409 855.487 783.407 858.864C780.466 862.173 775.974 864.517 769.626 864.517V871.862ZM795.334 846.154C795.334 839.094 791.663 834.397 786.812 831.163C782.188 828.08 776.161 826.098 770.787 824.307L768.464 831.275C774.109 833.157 779.098 834.848 782.738 837.274C786.15 839.549 787.989 842.197 787.989 846.154H795.334ZM770.787 824.307C765.631 822.589 762.701 820.608 761.016 818.429C759.377 816.311 758.563 813.546 758.608 809.469L751.263 809.388C751.207 814.494 752.229 819.075 755.206 822.923C758.137 826.712 762.603 829.322 768.464 831.275L770.787 824.307ZM758.608 809.469C758.699 801.17 764.459 794.738 773.298 794.738V787.393C760.102 787.393 751.395 797.405 751.263 809.388L758.608 809.469ZM773.298 794.738C777.985 794.738 781.947 796.303 784.789 797.927C786.203 798.735 787.308 799.54 788.047 800.131C788.416 800.426 788.69 800.665 788.862 800.821C788.949 800.899 789.009 800.955 789.043 800.988C789.06 801.004 789.071 801.014 789.074 801.018C789.076 801.019 789.076 801.019 789.074 801.018C789.073 801.017 789.072 801.016 789.071 801.014C789.07 801.013 789.069 801.012 789.068 801.011C789.067 801.011 789.066 801.01 789.066 801.01C789.065 801.009 789.064 801.008 791.661 798.411C794.258 795.814 794.257 795.813 794.256 795.812C794.256 795.812 794.255 795.811 794.254 795.81C794.252 795.808 794.251 795.807 794.249 795.805C794.246 795.802 794.242 795.798 794.237 795.793C794.228 795.785 794.218 795.774 794.205 795.762C794.181 795.738 794.148 795.707 794.109 795.669C794.03 795.594 793.922 795.493 793.786 795.37C793.514 795.124 793.128 794.789 792.636 794.395C791.653 793.61 790.233 792.578 788.433 791.55C784.849 789.501 779.629 787.393 773.298 787.393V794.738ZM810.024 860.844C807.427 863.441 807.428 863.443 807.43 863.444C807.43 863.444 807.432 863.446 807.432 863.447C807.434 863.449 807.436 863.451 807.439 863.453C807.443 863.457 807.448 863.462 807.453 863.467C807.463 863.477 807.476 863.489 807.49 863.503C807.519 863.531 807.555 863.565 807.598 863.606C807.685 863.688 807.802 863.795 807.95 863.924C808.244 864.182 808.66 864.527 809.198 864.93C810.272 865.736 811.836 866.774 813.89 867.802C818.012 869.863 824.08 871.862 832.059 871.862V864.517C825.349 864.517 820.399 862.844 817.175 861.232C815.557 860.423 814.367 859.626 813.605 859.054C813.224 858.768 812.951 858.54 812.787 858.396C812.704 858.324 812.65 858.274 812.622 858.248C812.608 858.235 812.601 858.228 812.601 858.228C812.601 858.228 812.602 858.229 812.606 858.233C812.607 858.234 812.609 858.236 812.612 858.239C812.613 858.24 812.615 858.241 812.616 858.243C812.617 858.244 812.618 858.245 812.618 858.245C812.62 858.246 812.621 858.248 810.024 860.844ZM832.059 871.862C840.401 871.862 846.927 868.697 851.331 863.743C855.674 858.857 857.767 852.446 857.767 846.154H850.422C850.422 850.881 848.843 855.487 845.841 858.864C842.899 862.173 838.408 864.517 832.059 864.517V871.862ZM857.767 846.154C857.767 839.094 854.097 834.397 849.246 831.163C844.622 828.08 838.594 826.098 833.221 824.307L830.898 831.275C836.542 833.157 841.532 834.848 845.171 837.274C848.584 839.549 850.422 842.197 850.422 846.154H857.767ZM833.221 824.307C828.065 822.589 825.135 820.608 823.45 818.429C821.811 816.311 820.997 813.546 821.041 809.469L813.697 809.388C813.641 814.494 814.663 819.075 817.64 822.923C820.57 826.712 825.036 829.322 830.898 831.275L833.221 824.307ZM821.041 809.469C821.133 801.17 826.893 794.738 835.732 794.738V787.393C822.535 787.393 813.828 797.405 813.697 809.388L821.041 809.469ZM835.732 794.738C840.419 794.738 844.38 796.303 847.223 797.927C848.636 798.735 849.741 799.54 850.481 800.131C850.849 800.426 851.123 800.665 851.296 800.821C851.382 800.899 851.443 800.955 851.477 800.988C851.494 801.004 851.504 801.014 851.508 801.018C851.509 801.019 851.509 801.019 851.508 801.018C851.507 801.017 851.506 801.016 851.504 801.014C851.503 801.013 851.502 801.012 851.501 801.011C851.501 801.011 851.5 801.01 851.5 801.01C851.499 801.009 851.498 801.008 854.095 798.411C856.692 795.814 856.691 795.813 856.69 795.812C856.689 795.812 856.688 795.811 856.687 795.81C856.686 795.808 856.684 795.807 856.683 795.805C856.679 795.802 856.675 795.798 856.671 795.793C856.662 795.785 856.651 795.774 856.639 795.762C856.614 795.738 856.582 795.707 856.542 795.669C856.463 795.594 856.355 795.493 856.219 795.37C855.947 795.124 855.561 794.789 855.069 794.395C854.087 793.61 852.667 792.578 850.867 791.55C847.282 789.501 842.063 787.393 835.732 787.393V794.738ZM967.281 823.801C966.184 811.184 963.538 801.207 955.486 795.973C951.498 793.381 946.563 792.213 940.686 792.11C934.824 792.008 927.797 792.961 919.404 794.826L920.998 801.996C929.131 800.189 935.521 799.366 940.557 799.454C945.578 799.542 949.02 800.531 951.483 802.132C956.33 805.283 958.868 811.833 959.964 824.437L967.281 823.801ZM967.944 868.19C967.944 864.401 967.962 860.734 967.978 857.184L960.633 857.15C960.617 860.696 960.599 864.381 960.599 868.19H967.944ZM967.978 857.184C967.989 854.873 968 852.611 968.006 850.404L960.661 850.386C960.655 852.583 960.644 854.836 960.633 857.15L967.978 857.184ZM968.006 850.404C968.03 840.453 967.95 831.491 967.281 823.801L959.964 824.437C960.601 831.761 960.685 840.42 960.661 850.386L968.006 850.404ZM963.622 820.446C949.093 820.446 936.237 822.168 927.058 826.694C922.413 828.985 918.557 832.069 915.979 836.151C913.38 840.266 912.248 845.127 912.629 850.648L919.956 850.143C919.669 845.971 920.528 842.703 922.189 840.073C923.87 837.412 926.544 835.138 930.306 833.282C937.944 829.516 949.42 827.791 963.622 827.791V820.446ZM912.62 850.444C912.757 860.725 918.863 869.92 929.528 871.736C939.899 873.502 953.014 867.984 967.025 852.894L961.642 847.896C948.301 862.266 937.513 865.645 930.761 864.495C924.302 863.395 920.064 857.86 919.965 850.347L912.62 850.444ZM1045.07 860.844H1026.71V868.19H1045.07V860.844ZM1026.71 860.844C1023.8 860.844 1016.26 859.25 1009.5 854.605C1002.94 850.088 997.325 842.864 997.325 831.464H989.979C989.979 845.772 997.222 855.074 1005.34 860.657C1013.28 866.112 1022.26 868.19 1026.71 868.19V860.844ZM997.325 831.464C997.325 819.571 1001.52 811.495 1007.9 806.311C1014.4 801.032 1023.59 798.411 1034.05 798.411V791.066C1022.48 791.066 1011.47 793.953 1003.27 800.61C994.962 807.362 989.979 817.649 989.979 831.464H997.325ZM1034.05 798.411H1045.07V791.066H1034.05V798.411ZM1118.09 823.801C1116.99 811.161 1114.28 801.197 1106.2 795.969C1098.32 790.87 1086.6 791.158 1070.21 794.827L1071.81 801.995C1088.24 798.318 1097.13 798.85 1102.21 802.136C1107.09 805.294 1109.68 811.856 1110.77 824.437L1118.09 823.801ZM1118.75 868.19C1118.75 864.397 1118.77 860.726 1118.79 857.174L1111.44 857.139C1111.43 860.689 1111.41 864.377 1111.41 868.19H1118.75ZM1118.79 857.174C1118.8 854.866 1118.81 852.608 1118.82 850.404L1111.47 850.386C1111.47 852.579 1111.46 854.83 1111.44 857.139L1118.79 857.174ZM1118.82 850.404C1118.84 840.453 1118.76 831.491 1118.09 823.801L1110.77 824.437C1111.41 831.761 1111.5 840.42 1111.47 850.386L1118.82 850.404ZM1114.43 820.446C1099.9 820.446 1087.05 822.168 1077.87 826.694C1073.22 828.985 1069.37 832.069 1066.79 836.151C1064.19 840.266 1063.06 845.127 1063.44 850.648L1070.77 850.143C1070.48 845.971 1071.34 842.703 1073 840.073C1074.68 837.412 1077.35 835.138 1081.12 833.282C1088.75 829.516 1100.23 827.791 1114.43 827.791V820.446ZM1063.43 850.444C1063.57 860.725 1069.67 869.92 1080.34 871.736C1090.71 873.502 1103.83 867.984 1117.84 852.894L1112.45 847.896C1099.11 862.266 1088.32 865.645 1081.57 864.495C1075.11 863.395 1070.88 857.86 1070.78 850.347L1063.43 850.444ZM1202.99 758.013V827.791H1210.33V758.013H1202.99ZM1202.99 827.791V868.19H1210.33V827.791H1202.99ZM1210.33 827.791C1210.33 807.861 1197.02 791.273 1177.32 791.066L1177.24 798.411C1192.08 798.567 1202.99 810.996 1202.99 827.791H1210.33ZM1177.32 791.066C1166.76 790.955 1158.15 796.272 1152.4 803.951C1146.7 811.584 1143.71 821.668 1144.23 831.654L1151.57 831.273C1151.13 822.917 1153.66 814.542 1158.29 808.349C1162.88 802.203 1169.43 798.329 1177.24 798.411L1177.32 791.066ZM1144.23 831.654C1145.19 850.051 1157.33 867.98 1177.24 868.189L1177.32 860.845C1162.69 860.691 1152.4 847.371 1151.57 831.273L1144.23 831.654ZM1177.24 868.189C1187.82 868.301 1196.21 862.96 1201.82 855.279C1207.39 847.664 1210.33 837.651 1210.33 827.791H1202.99C1202.99 836.294 1200.43 844.741 1195.89 850.946C1191.41 857.086 1185.1 860.927 1177.32 860.845L1177.24 868.189ZM1294.8 857.172C1291.13 857.172 1291.13 857.169 1291.13 857.166C1291.13 857.165 1291.13 857.162 1291.13 857.16C1291.13 857.157 1291.13 857.153 1291.13 857.15C1291.13 857.143 1291.13 857.137 1291.13 857.131C1291.13 857.12 1291.13 857.111 1291.13 857.105C1291.13 857.092 1291.13 857.088 1291.13 857.092C1291.13 857.101 1291.13 857.142 1291.12 857.211C1291.1 857.351 1291.06 857.596 1290.98 857.91C1290.8 858.538 1290.44 859.423 1289.69 860.33C1288.27 862.023 1284.86 864.517 1276.44 864.517V871.862C1286.38 871.862 1292.15 868.848 1295.33 865.032C1296.87 863.184 1297.65 861.314 1298.05 859.876C1298.25 859.158 1298.36 858.542 1298.41 858.079C1298.44 857.847 1298.46 857.652 1298.46 857.499C1298.47 857.423 1298.47 857.357 1298.47 857.302C1298.47 857.275 1298.47 857.25 1298.47 857.228C1298.47 857.218 1298.47 857.207 1298.47 857.198C1298.47 857.193 1298.47 857.189 1298.47 857.184C1298.47 857.182 1298.47 857.179 1298.47 857.178C1298.47 857.175 1298.47 857.172 1294.8 857.172ZM1276.44 864.517C1259.86 864.517 1243.39 851.236 1243.39 831.464H1236.04C1236.04 855.762 1256.29 871.862 1276.44 871.862V864.517ZM1272.77 794.738C1281.32 794.738 1287.06 797.771 1290.94 802.297C1294.93 806.95 1297.23 813.508 1298.09 820.885L1305.38 820.036C1304.42 811.794 1301.78 803.655 1296.51 797.515C1291.14 791.248 1283.3 787.393 1272.77 787.393V794.738ZM1243.39 831.464C1243.39 830.319 1243.43 829.185 1243.51 828.065L1236.19 827.517C1236.09 828.819 1236.04 830.136 1236.04 831.464H1243.39ZM1243.51 828.065C1244.94 808.927 1257.98 794.738 1272.77 794.738V787.393C1252.89 787.393 1237.8 805.923 1236.19 827.517L1243.51 828.065ZM1294.8 824.119H1239.85V831.464H1294.8V824.119ZM1298.09 820.885C1298.27 822.439 1296.97 824.119 1294.8 824.119V831.464C1300.75 831.464 1306.14 826.542 1305.38 820.036L1298.09 820.885ZM1324.18 791.066V813.101H1331.53V791.066H1324.18ZM1324.18 813.101V868.19H1331.53V813.101H1324.18ZM1327.86 813.101C1330.72 815.395 1330.72 815.396 1330.72 815.397C1330.72 815.397 1330.72 815.397 1330.72 815.397C1330.72 815.398 1330.72 815.398 1330.72 815.398C1330.72 815.397 1330.72 815.396 1330.72 815.393C1330.73 815.388 1330.74 815.379 1330.75 815.365C1330.77 815.338 1330.81 815.294 1330.85 815.235C1330.95 815.116 1331.1 814.936 1331.3 814.702C1331.7 814.235 1332.3 813.556 1333.07 812.738C1334.6 811.096 1336.78 808.913 1339.39 806.741C1344.78 802.251 1351.26 798.411 1357.24 798.411V791.066C1348.52 791.066 1340.32 796.407 1334.69 801.098C1331.78 803.517 1329.38 805.925 1327.7 807.726C1326.85 808.629 1326.19 809.385 1325.73 809.922C1325.5 810.191 1325.32 810.405 1325.19 810.555C1325.13 810.63 1325.08 810.69 1325.05 810.732C1325.03 810.753 1325.02 810.77 1325.01 810.783C1325 810.789 1325 810.794 1324.99 810.798C1324.99 810.8 1324.99 810.802 1324.99 810.803C1324.99 810.804 1324.99 810.805 1324.99 810.805C1324.99 810.806 1324.99 810.807 1327.86 813.101ZM1404.98 798.411C1411.31 798.411 1415.72 800.734 1418.64 804.378C1421.64 808.131 1423.34 813.661 1423.34 820.446H1430.69C1430.69 812.541 1428.72 805.217 1424.37 799.789C1419.94 794.251 1413.34 791.066 1404.98 791.066V798.411ZM1423.34 820.446V868.19H1430.69V820.446H1423.34ZM1375.6 820.446V868.19H1382.94V820.446H1375.6ZM1460.07 794.738V868.19H1467.41V794.738H1460.07ZM1548.2 823.801C1547.1 811.161 1544.38 801.197 1536.3 795.969C1528.43 790.87 1516.7 791.158 1500.31 794.827L1501.92 801.995C1518.34 798.318 1527.24 798.85 1532.31 802.136C1537.19 805.294 1539.78 811.856 1540.88 824.437L1548.2 823.801ZM1548.86 868.19C1548.86 864.397 1548.88 860.726 1548.89 857.174L1541.55 857.139C1541.53 860.689 1541.51 864.377 1541.51 868.19H1548.86ZM1548.89 857.174C1548.9 854.866 1548.91 852.608 1548.92 850.404L1541.57 850.386C1541.57 852.579 1541.56 854.829 1541.55 857.139L1548.89 857.174ZM1548.92 850.404C1548.94 840.453 1548.86 831.491 1548.2 823.801L1540.88 824.437C1541.51 831.761 1541.6 840.42 1541.57 850.386L1548.92 850.404ZM1544.54 820.446C1530.01 820.446 1517.15 822.168 1507.97 826.694C1503.33 828.985 1499.47 832.069 1496.89 836.151C1494.29 840.266 1493.16 845.127 1493.54 850.648L1500.87 850.143C1500.58 845.971 1501.44 842.703 1503.1 840.073C1504.78 837.412 1507.46 835.138 1511.22 833.282C1518.86 829.516 1530.33 827.791 1544.54 827.791V820.446ZM1493.53 850.444C1493.67 860.725 1499.78 869.92 1510.44 871.736C1520.81 873.502 1533.93 867.984 1547.94 852.894L1542.56 847.896C1529.21 862.266 1518.43 865.645 1511.68 864.495C1505.22 863.395 1500.98 857.86 1500.88 850.347L1493.53 850.444ZM732.463 820.036C731.504 811.794 728.861 803.655 723.594 797.515C718.219 791.248 710.384 787.393 699.847 787.393V794.738C708.395 794.738 714.136 797.771 718.019 802.297C722.01 806.95 724.309 813.508 725.167 820.885L732.463 820.036ZM666.931 831.464H721.882V824.119H666.931V831.464ZM721.882 831.464C727.828 831.464 733.22 826.542 732.463 820.036L725.167 820.885C725.348 822.439 724.05 824.119 721.882 824.119V831.464ZM1382.88 818.533C1382.96 807.566 1392.7 798.411 1404.98 798.411V791.066C1389.23 791.066 1375.65 802.932 1375.53 818.477L1382.88 818.533ZM1357.24 798.411C1363.11 798.411 1367.39 800.736 1370.35 804.293C1373.39 807.943 1375.19 813.082 1375.54 818.731L1382.87 818.279C1382.45 811.451 1380.25 804.706 1375.99 799.592C1371.65 794.385 1365.33 791.066 1357.24 791.066V798.411ZM486.838 802.083C488.867 802.083 490.511 803.728 490.511 805.756H497.856C497.856 799.671 492.923 794.738 486.838 794.738V802.083Z" fill="#ACACAC"/>
</svg>
