<svg width="1977" height="1080" viewBox="0 0 1977 1080" fill="none" xmlns="http://www.w3.org/2000/svg">
<path fill-rule="evenodd" clip-rule="evenodd" d="M306.011 304.273C295.812 307.798 290.659 316.211 291.232 328.397C291.957 343.851 303.149 352.274 319.213 349.45C327.457 348 345.208 346.9 347.325 347.705C348.493 348.148 349.291 349.218 349.788 351.016C350.623 354.025 350.744 763.538 349.912 766.543C349.026 769.73 347.04 770.045 335.848 768.757C312.57 766.084 304.894 767.281 298.1 774.647C288.474 785.093 288.662 802.915 298.503 811.978C306.374 819.234 310.44 819.71 338.297 816.638C369.871 813.156 368.841 813.182 491.8 812.75L608.937 812.341L612.631 810.828C624.548 805.94 635.308 793.774 637.881 782.275C639.129 776.707 643.508 719.193 643.665 706.342C643.997 679.155 609.337 669.048 596.322 692.536C593.665 697.332 593.199 709.247 594.89 729.226C596.49 748.155 597.383 763.672 596.94 764.829C596.041 767.167 591.716 767.264 495.728 767.08L400.224 766.895C400.224 766.895 398.304 766.783 397.616 765.946C397.043 765.249 397.04 763.709 397.04 763.709V556.438V349.164L398.55 347.655C400.479 345.726 401.751 345.756 427.809 348.369C450.07 350.6 453.254 350.493 458.696 347.333C475.071 337.827 472.153 309.163 454.28 303.968C450.711 302.931 449.449 302.975 432.506 304.719C397.322 308.338 363.496 308.352 329.205 304.763C309.326 302.679 310.551 302.706 306.011 304.273ZM1350.38 452.687C1302.66 457.286 1259.84 485.024 1230.33 530.445C1217.18 550.689 1217.03 550.444 1217.01 508.192L1216.99 476.728L1215.21 472.884C1210.07 461.791 1207.46 460.815 1181.34 460.215C1168.35 459.913 1153.87 459.118 1144.3 458.182C1125.14 456.3 1123.52 456.582 1116.87 462.932C1104.34 474.877 1106.9 494.292 1121.91 501.141C1126.82 503.382 1129.9 503.483 1147.77 501.997C1168.51 500.266 1169.39 500.276 1170.95 502.201C1172.26 503.821 1173.1 774.701 1171.8 778.079C1170.96 780.266 1168.39 780.377 1148.8 779.052C1138.04 778.324 1128.29 777.925 1127.14 778.166C1112.61 781.185 1106.6 801.177 1116.91 812.193C1123.87 819.64 1126.52 820.052 1150.74 817.473C1178.02 814.565 1208.75 814.471 1235.54 817.218C1259.26 819.646 1261.87 819.663 1266.33 817.402C1282.08 809.422 1282.81 787.387 1267.57 779.602C1263.99 777.77 1261.57 777.723 1241.13 779.085C1218.52 780.591 1218.15 780.544 1217.36 776.164C1217.13 774.912 1217.03 742.264 1217.15 703.618L1217.35 633.348L1220.72 624.609C1248.95 551.343 1291.49 505.368 1335.21 500.883C1345.06 499.873 1345.85 500.273 1349.82 508.263C1357.75 524.219 1372.54 531.207 1390.5 527.48C1421.28 521.093 1427.92 479.291 1401.01 461.402C1388.44 453.046 1373.44 450.467 1350.38 452.687ZM825.706 457.9C792.881 462.368 762.41 477.761 743.055 499.659C718.513 527.42 733.023 568.655 767.335 568.655C793.87 568.655 809.075 546.231 800.832 519.248C799.067 513.469 801.926 511.352 819.087 505.727C886.171 483.739 940.744 518.185 947.051 586.504C948.165 598.566 947.991 636.618 946.813 638.225C945.313 640.274 942.579 639.801 931.678 635.618C812.91 590.036 716.768 629.661 716.651 724.245C716.567 791.668 772.418 828.978 854.449 816.302C884.392 811.676 912.058 799.718 937.338 780.481C940.391 778.153 943.988 775.795 945.327 775.234L947.762 774.218L947.772 777.197C947.846 798.084 963.346 811.448 989.72 813.36C1001.86 814.242 1011.75 815.541 1022.52 817.674C1039.8 821.095 1052.24 811.988 1052.27 795.911C1052.3 777.948 1038.63 769.79 1017.6 775.228C1009.01 777.452 1003.31 778.448 998.494 778.575C991.485 778.76 992.223 789.652 991.787 679.296C991.368 573.438 991.465 575.971 987.197 556.891C974.495 500.071 933.668 465.005 871.888 457.853C860.595 456.548 835.469 456.572 825.706 457.9ZM870.231 658.552C891.411 660.676 914.239 667.68 937.664 679.232C948.088 684.371 947.759 683.65 947.746 701.519C947.729 719.216 947.88 718.807 937.543 728.82C905.596 759.754 875.854 772.464 828.175 775.56C785.268 778.344 758.518 758.473 758.629 723.892C758.783 674.63 798.53 651.357 870.231 658.552Z" fill="#ACACAC"/>
<path d="M1523.41 502.201C1525.07 504.251 1525.49 771.504 1523.84 773.765C1522.57 775.493 1519.32 776.157 1515.29 775.52C1507.12 774.225 1481.72 772.135 1479.36 772.564C1461.85 775.744 1455.03 800.013 1468.12 812.589C1475.19 819.375 1478.98 819.972 1501.47 817.838C1537.13 814.457 1556.11 814.414 1590.8 817.627C1617.08 820.066 1620.21 819.573 1627.09 811.925C1638.88 798.809 1632.03 775.191 1615.67 772.574C1613.01 772.152 1585.76 774.416 1579.52 775.58C1575.45 776.341 1573.2 775.815 1571.55 773.708C1570.18 771.971 1570.16 770.361 1570.16 632.519C1570.16 556.81 1570.24 520.502 1569.73 502.201C1569.73 442.569 1523.41 442.569 1523.41 502.201Z" fill="#ACACAC"/>
<path d="M1552.5 273.459C1557.77 293.027 1562.44 293.285 1573.24 278.153C1580.36 268.171 1580.64 253.625 1578.47 244.785C1576.72 237.663 1573.69 232.107 1572.12 225.722C1569.63 229.563 1563.55 235.609 1559.94 240.589C1558.93 241.984 1548.44 258.393 1552.5 273.459Z" fill="#ACACAC"/>
<path d="M1546.03 399.612C1542.13 379.724 1537.5 379.141 1525.67 393.484C1517.87 402.945 1516.57 417.436 1518.12 426.406C1519.37 433.633 1522.01 439.387 1523.13 445.866C1525.88 442.207 1532.37 436.599 1536.31 431.883C1537.42 430.562 1549.03 414.923 1546.03 399.612Z" fill="#ACACAC"/>
<path d="M1572.48 395.51C1560.91 378.865 1556.44 380.193 1551.37 398.08C1548.03 409.88 1552.66 423.67 1557.69 431.261C1561.74 437.376 1566.47 441.585 1570.1 447.067C1571.15 442.609 1574.83 434.87 1576.55 428.964C1577.03 427.31 1581.38 408.325 1572.48 395.51Z" fill="#ACACAC"/>
<path d="M1595.28 382.188C1578.62 370.645 1574.89 373.457 1576.41 391.986C1577.41 404.209 1586.58 415.503 1593.95 420.853C1599.88 425.163 1605.78 427.45 1611.1 431.314C1610.53 426.77 1611.27 418.231 1610.81 412.097C1610.68 410.379 1608.1 391.075 1595.28 382.188Z" fill="#ACACAC"/>
<path d="M1608.84 361.285C1589.34 355.769 1586.73 359.639 1594.17 376.674C1599.09 387.911 1611.42 395.62 1620.13 398.292C1627.14 400.444 1633.46 400.693 1639.75 402.623C1637.73 398.511 1635.66 390.194 1633.24 384.54C1632.56 382.957 1623.86 365.532 1608.84 361.285Z" fill="#ACACAC"/>
<path d="M1613.24 339.058C1593.54 343.8 1593.15 348.454 1607.99 359.66C1617.77 367.051 1632.31 367.729 1641.2 365.795C1648.37 364.238 1654.01 361.357 1660.43 359.961C1656.66 357.365 1650.78 351.127 1645.9 347.385C1644.53 346.336 1628.41 335.406 1613.24 339.058Z" fill="#ACACAC"/>
<path d="M1610.28 314.299C1593.03 324.946 1594.12 329.488 1611.71 335.512C1623.31 339.486 1637.33 335.6 1645.18 330.99C1651.5 327.277 1655.96 322.783 1661.63 319.454C1657.24 318.163 1649.71 314.068 1643.9 312.033C1642.28 311.463 1623.55 306.102 1610.28 314.299Z" fill="#ACACAC"/>
<path d="M1597.3 293.432C1586.04 310.282 1588.91 313.963 1607.41 312.133C1619.62 310.926 1630.75 301.566 1635.98 294.111C1640.19 288.106 1642.38 282.166 1646.15 276.781C1641.62 277.433 1633.07 276.838 1626.94 277.399C1625.23 277.556 1605.97 280.459 1597.3 293.432Z" fill="#ACACAC"/>
<path d="M1577.62 278.529C1573.22 298.314 1577.24 300.703 1593.82 292.296C1604.76 286.75 1611.75 273.991 1613.92 265.15C1615.67 258.028 1615.55 251.699 1617.12 245.313C1613.13 247.563 1604.94 250.106 1599.44 252.847C1597.9 253.615 1581 263.297 1577.62 278.529Z" fill="#ACACAC"/>
<path d="M1526.18 277.025C1539.72 292.105 1544 290.23 1546.8 271.852C1548.65 259.729 1542.34 246.621 1536.41 239.714C1531.63 234.15 1526.42 230.561 1522.13 225.572C1521.64 230.126 1518.95 238.263 1517.98 244.337C1517.71 246.037 1515.75 265.415 1526.18 277.025Z" fill="#ACACAC"/>
<path d="M1504.56 289.281C1522.26 299.15 1525.7 295.989 1522.39 277.695C1520.2 265.627 1509.98 255.279 1502.13 250.67C1495.8 246.957 1489.71 245.255 1484.04 241.926C1485.05 246.392 1485.14 254.963 1486.2 261.024C1486.49 262.721 1490.93 281.683 1504.56 289.281Z" fill="#ACACAC"/>
<path d="M1489.73 308.844C1509.72 312.183 1511.9 308.05 1502.62 291.936C1496.51 281.307 1483.4 275.001 1474.45 273.302C1467.25 271.933 1460.93 272.381 1454.47 271.154C1456.93 275.018 1459.9 283.058 1462.93 288.411C1463.78 289.91 1474.34 306.273 1489.73 308.844Z" fill="#ACACAC"/>
<path d="M1485.29 333.19C1505.21 329.472 1505.84 324.844 1491.6 312.887C1482.21 304.999 1467.73 303.572 1458.75 305.042C1451.51 306.227 1445.73 308.813 1439.24 309.875C1442.88 312.662 1448.43 319.196 1453.11 323.186C1454.42 324.303 1469.95 336.052 1485.29 333.19Z" fill="#ACACAC"/>
<path d="M1490.38 356.363C1506.37 343.922 1504.81 339.523 1486.67 335.427C1474.71 332.725 1461.19 338.097 1453.88 343.524C1447.99 347.896 1444.04 352.844 1438.76 356.764C1443.27 357.574 1451.2 360.835 1457.19 362.234C1458.87 362.625 1478.06 365.941 1490.38 356.363Z" fill="#ACACAC"/>
<path d="M1501.21 378.281C1512.41 361.392 1509.52 357.722 1491.03 359.616C1478.83 360.865 1467.72 370.264 1462.52 377.737C1458.33 383.757 1456.17 389.705 1452.41 395.102C1456.94 394.434 1465.5 395 1471.62 394.418C1473.33 394.255 1492.58 391.284 1501.21 378.281Z" fill="#ACACAC"/>
<path d="M1521.13 394.066C1526.65 374.566 1522.78 371.951 1505.74 379.392C1494.5 384.3 1486.79 396.637 1484.12 405.339C1481.96 412.349 1481.71 418.674 1479.78 424.959C1483.89 422.942 1492.21 420.874 1497.87 418.453C1499.45 417.775 1516.88 409.079 1521.13 394.066Z" fill="#ACACAC"/>
<path fill-rule="evenodd" clip-rule="evenodd" d="M1539.23 379.217C1563.72 384.761 1588.06 369.403 1593.61 344.915C1599.15 320.426 1583.79 296.08 1559.31 290.536C1534.82 284.991 1510.47 300.349 1504.93 324.838C1499.38 349.326 1514.74 373.673 1539.23 379.217ZM1541.73 368.187C1560.12 372.352 1578.41 360.814 1582.58 342.417C1586.74 324.02 1575.21 305.73 1556.81 301.566C1538.41 297.401 1520.12 308.938 1515.96 327.335C1511.79 345.732 1523.33 364.022 1541.73 368.187Z" fill="#ACACAC"/>
<circle cx="1548.9" cy="335.489" r="29.4038" transform="rotate(12.7564 1548.9 335.489)" fill="#ACACAC"/>
</svg>
