<svg width="1977" height="1080" viewBox="0 0 1977 1080" fill="none" xmlns="http://www.w3.org/2000/svg">
<g filter="url(#filter0_d_747_2)">
<path d="M1512.92 455.883C1517.92 467.753 1523 476.75 1548.12 478.352C1527.9 476.067 1522.3 467.588 1512.92 455.883Z" fill="white"/>
<path d="M1530.95 697.089C1583.1 692.853 1606.87 677.606 1643.09 635.915C1611.17 680.04 1587.73 695.345 1530.95 697.089Z" fill="white"/>
<path fill-rule="evenodd" clip-rule="evenodd" d="M1541.06 608.83C1534.62 608.156 1501.06 604.264 1501.06 604.264C1501.06 604.264 1469.84 600.635 1466.25 600.281C1418.68 594.877 1386.12 692.248 1485.03 706.765C1694.15 748.013 1737.19 518.649 1540.47 461.255C1504.55 450.42 1523.44 380.439 1592.41 419.999C1683.18 480.991 1720.65 338.886 1571.95 321.847C1510.95 314.857 1435.02 332.735 1421.93 422.274C1416.36 472.298 1426.18 532.842 1512.92 546.647C1597.56 560.118 1588.93 608.512 1541.06 608.83ZM1582.29 335.127C1521.05 332.306 1508.86 325.662 1461.6 379.126C1509.37 327.436 1533.7 333.722 1582.29 335.127ZM1512.92 455.883C1517.92 467.753 1523 476.75 1548.12 478.352C1527.9 476.067 1522.3 467.588 1512.92 455.883ZM1530.95 697.089C1583.1 692.853 1606.87 677.606 1643.09 635.915C1611.17 680.04 1587.73 695.345 1530.95 697.089Z" fill="#ACACAC"/>
<path d="M1582.29 335.127C1521.05 332.306 1508.86 325.662 1461.6 379.126C1509.37 327.436 1533.7 333.722 1582.29 335.127Z" fill="white"/>
<path d="M1512.92 455.883C1517.92 467.753 1523 476.75 1548.12 478.352C1527.9 476.067 1522.3 467.588 1512.92 455.883Z" stroke="white" stroke-width="5.59835" stroke-linejoin="round"/>
<path d="M1530.95 697.089C1583.1 692.853 1606.87 677.606 1643.09 635.915C1611.17 680.04 1587.73 695.345 1530.95 697.089Z" stroke="white" stroke-width="5.59835" stroke-linejoin="round"/>
<path fill-rule="evenodd" clip-rule="evenodd" d="M1541.06 608.83C1534.62 608.156 1501.06 604.264 1501.06 604.264C1501.06 604.264 1469.84 600.635 1466.25 600.281C1418.68 594.877 1386.12 692.248 1485.03 706.765C1694.15 748.013 1737.19 518.649 1540.47 461.255C1504.55 450.42 1523.44 380.439 1592.41 419.999C1683.18 480.991 1720.65 338.886 1571.95 321.847C1510.95 314.857 1435.02 332.735 1421.93 422.274C1416.36 472.298 1426.18 532.842 1512.92 546.647C1597.56 560.118 1588.93 608.512 1541.06 608.83ZM1582.29 335.127C1521.05 332.306 1508.86 325.662 1461.6 379.126C1509.37 327.436 1533.7 333.722 1582.29 335.127ZM1512.92 455.883C1517.92 467.753 1523 476.75 1548.12 478.352C1527.9 476.067 1522.3 467.588 1512.92 455.883ZM1530.95 697.089C1583.1 692.853 1606.87 677.606 1643.09 635.915C1611.17 680.04 1587.73 695.345 1530.95 697.089Z" stroke="white" stroke-width="5.59835" stroke-linejoin="round"/>
<path d="M1582.29 335.127C1521.05 332.306 1508.86 325.662 1461.6 379.126C1509.37 327.436 1533.7 333.722 1582.29 335.127Z" stroke="white" stroke-width="5.59835" stroke-linejoin="round"/>
</g>
<g filter="url(#filter1_d_747_2)">
<path d="M1347.28 586.475C1335.85 598.984 1333.08 607.232 1343.95 627.072C1337.25 613.926 1338.48 605.264 1347.28 586.475Z" fill="white"/>
<path d="M1510.8 646.28C1511.06 646.802 1511.32 647.318 1511.58 647.829C1511.58 647.848 1511.59 647.867 1511.6 647.886C1511.61 647.892 1511.61 647.898 1511.61 647.904C1511.62 647.918 1511.63 647.932 1511.63 647.946C1517.29 668.039 1523.65 679.353 1500.33 706.012C1518.69 681.276 1516.56 669.553 1511.81 650.368C1511.48 649.042 1511.14 647.682 1510.8 646.28Z" fill="white"/>
<path fill-rule="evenodd" clip-rule="evenodd" d="M1336.53 424.662L1356.66 417.229L1366.72 413.513C1465.81 369.668 1410.04 289.037 1317.11 326.964L1282.73 338.707C1133.66 376.129 1253.83 822.228 1449.56 736.976L1476.07 725.426L1487.31 720.531C1579.33 682.768 1525.44 593.664 1445.2 637.427C1364.42 680.727 1299.61 596.776 1401.07 561.68C1474.92 534.407 1448.49 460.359 1376.11 483.926L1376.11 483.926L1376.11 483.926L1376.07 483.938L1376.03 483.952C1373.66 484.821 1371.41 485.647 1369.28 486.433L1369.26 486.438L1369.23 486.448L1369.23 486.448C1335.79 498.731 1329.28 501.121 1319.76 500.89C1287.15 500.102 1289.3 442.105 1336.53 424.662ZM1312.62 336.611C1249.56 363.047 1232.63 384.978 1226.3 428.769C1226.59 426.37 1226.85 424.031 1227.1 421.746L1227.1 421.746C1230.87 387.883 1233.33 365.839 1312.62 336.611ZM1347.28 586.475C1335.85 598.984 1333.08 607.232 1343.95 627.072C1337.25 613.926 1338.48 605.264 1347.28 586.475ZM1511.61 647.904L1511.63 647.946C1517.29 668.039 1523.65 679.353 1500.33 706.012C1518.69 681.276 1516.56 669.553 1511.81 650.368C1511.48 649.042 1511.14 647.682 1510.8 646.28C1511.06 646.802 1511.32 647.318 1511.58 647.829L1511.6 647.886L1511.61 647.904Z" fill="#ACACAC"/>
<path fill-rule="evenodd" clip-rule="evenodd" d="M1347.28 586.475C1335.85 598.984 1333.08 607.232 1343.95 627.072C1337.25 613.926 1338.48 605.264 1347.28 586.475ZM1511.63 647.946L1511.61 647.904L1511.6 647.886L1511.58 647.829C1511.32 647.318 1511.06 646.802 1510.8 646.28C1511.14 647.682 1511.48 649.042 1511.81 650.368C1516.56 669.553 1518.69 681.276 1500.33 706.012C1523.65 679.353 1517.29 668.039 1511.63 647.946Z" fill="white"/>
<path d="M1226.3 428.769C1232.63 384.978 1249.56 363.047 1312.62 336.611C1233.33 365.839 1230.87 387.883 1227.1 421.746L1227.1 421.746C1226.85 424.031 1226.59 426.37 1226.3 428.769Z" fill="white"/>
<path d="M1449.56 736.976C1253.83 822.228 1133.66 376.129 1282.73 338.707L1317.11 326.964C1410.04 289.037 1465.81 369.668 1366.72 413.513L1356.66 417.229L1336.53 424.662C1289.3 442.105 1287.15 500.102 1319.76 500.89C1329.28 501.121 1335.79 498.731 1369.23 486.448L1369.23 486.448M1449.56 736.976L1476.07 725.426M1449.56 736.976C1459.74 732.539 1469.18 728.428 1476.07 725.426M1487.31 720.531C1579.33 682.768 1525.44 593.664 1445.2 637.427C1364.42 680.727 1299.61 596.776 1401.07 561.68C1474.92 534.407 1448.49 460.359 1376.11 483.926M1487.31 720.531L1476.07 725.426M1487.31 720.531C1487.31 720.531 1482.97 722.424 1476.07 725.426M1376.07 483.938C1376.06 483.943 1376.05 483.948 1376.03 483.952M1376.07 483.938C1376.06 483.943 1376.04 483.948 1376.03 483.952M1376.07 483.938L1376.11 483.926M1376.07 483.938L1376.03 483.952M1376.07 483.938C1376.08 483.934 1376.09 483.93 1376.11 483.926M1376.07 483.938C1376.08 483.934 1376.1 483.93 1376.11 483.926M1369.23 486.448L1369.26 486.438M1369.23 486.448C1369.24 486.445 1369.25 486.442 1369.26 486.438M1369.26 486.438L1369.28 486.433M1369.26 486.438C1369.27 486.437 1369.27 486.435 1369.28 486.433M1369.28 486.433C1371.41 485.647 1373.66 484.821 1376.03 483.952M1511.63 647.946L1511.61 647.904M1511.63 647.946C1517.29 668.039 1523.65 679.353 1500.33 706.012C1518.69 681.276 1516.56 669.553 1511.81 650.368C1511.48 649.042 1511.14 647.682 1510.8 646.28C1511.06 646.802 1511.32 647.318 1511.58 647.829M1511.63 647.946C1511.63 647.932 1511.62 647.918 1511.61 647.904M1511.61 647.904L1511.6 647.886M1511.61 647.904C1511.61 647.898 1511.61 647.892 1511.6 647.886M1376.11 483.926L1376.11 483.926L1376.11 483.926M1376.11 483.926L1376.11 483.926M1511.6 647.886L1511.58 647.829M1511.6 647.886C1511.59 647.867 1511.58 647.848 1511.58 647.829M1312.62 336.611C1249.56 363.047 1232.63 384.978 1226.3 428.769C1226.59 426.37 1226.85 424.031 1227.1 421.746L1227.1 421.746C1230.87 387.883 1233.33 365.839 1312.62 336.611ZM1347.28 586.475C1335.85 598.984 1333.08 607.232 1343.95 627.072C1337.25 613.926 1338.48 605.264 1347.28 586.475Z" stroke="white" stroke-width="5.59835" stroke-linejoin="round"/>
</g>
<g filter="url(#filter2_d_747_2)">
<path d="M1036.64 413.86C1040.08 391.88 1042.03 379.567 1077.29 371.248C1042.65 385.147 1042.75 395.792 1036.64 413.86Z" fill="white"/>
<path d="M1213.11 421.099C1218.82 425.755 1223.72 432.397 1229.1 441.664C1224.64 430.479 1220.27 422.755 1214.8 417.811C1207.54 411.515 1192.46 409.993 1181.85 411.515C1196.01 412.091 1205.32 414.745 1213.11 421.099Z" fill="white"/>
<path d="M1122.47 549.257C1129.86 565.676 1136.52 567.078 1157.67 567.078C1137.94 564.146 1131.93 560.681 1122.47 549.257Z" fill="white"/>
<path d="M1082.02 738.881C1089.92 755.245 1097.85 763.724 1118.11 765.638C1091.31 766.95 1085.38 753.963 1082.02 738.881Z" fill="white"/>
<path fill-rule="evenodd" clip-rule="evenodd" d="M1020.58 409.437C1021.52 415.275 1032.03 478.379 1046.17 563.182L1065.56 713.239C1072.73 805.943 1174.49 799.824 1161.79 707.544C1161.16 703.753 1160.88 699.905 1160.18 695.724L1157.81 677.4C1151.18 625.59 1171.57 633.324 1187.91 628.529C1192.5 627.185 1221.06 622.773 1227.06 620.994C1372.43 577.945 1329.17 329.394 1166.43 341.267C1156.79 341.97 1150.81 343.152 1136.14 345.589C1038.53 361.805 1030.28 366.889 1020.58 409.437ZM1128.7 497.174L1136.14 541.936C1137.85 552.221 1139.78 554.601 1150.51 552.815L1171.9 549.257L1185.53 546.991C1201.86 543.267 1209.24 539.372 1217.06 527.013C1233.59 497.69 1234.43 442.956 1186.9 425.673C1180.19 423.743 1176.41 423.422 1169.6 424.726L1161.24 426.117L1143.74 429.028C1131.91 430.996 1119.57 442.33 1121.25 452.411L1128.7 497.174ZM1036.64 413.86C1040.08 391.88 1042.03 379.567 1077.29 371.248C1042.65 385.147 1042.75 395.792 1036.64 413.86ZM1229.1 441.664C1223.72 432.397 1218.82 425.755 1213.11 421.099C1205.32 414.745 1196.01 412.091 1181.85 411.515C1192.46 409.993 1207.54 411.515 1214.8 417.811C1220.27 422.755 1224.64 430.479 1229.1 441.664ZM1122.47 549.257C1129.86 565.676 1136.52 567.078 1157.67 567.078C1137.94 564.146 1131.93 560.681 1122.47 549.257ZM1082.02 738.881C1089.92 755.245 1097.85 763.724 1118.11 765.638C1091.31 766.95 1085.38 753.963 1082.02 738.881Z" fill="#ACACAC"/>
<path d="M1036.64 413.86C1040.08 391.88 1042.03 379.567 1077.29 371.248C1042.65 385.147 1042.75 395.792 1036.64 413.86Z" stroke="white" stroke-width="5.59835" stroke-linejoin="round"/>
<path d="M1213.11 421.099C1218.82 425.755 1223.72 432.397 1229.1 441.664C1224.64 430.479 1220.27 422.755 1214.8 417.811C1207.54 411.515 1192.46 409.993 1181.85 411.515C1196.01 412.091 1205.32 414.745 1213.11 421.099Z" stroke="white" stroke-width="5.59835" stroke-linejoin="round"/>
<path d="M1122.47 549.257C1129.86 565.676 1136.52 567.078 1157.67 567.078C1137.94 564.146 1131.93 560.681 1122.47 549.257Z" stroke="white" stroke-width="5.59835" stroke-linejoin="round"/>
<path d="M1082.02 738.881C1089.92 755.245 1097.85 763.724 1118.11 765.638C1091.31 766.95 1085.38 753.963 1082.02 738.881Z" stroke="white" stroke-width="5.59835" stroke-linejoin="round"/>
<path fill-rule="evenodd" clip-rule="evenodd" d="M1020.58 409.437C1021.52 415.275 1032.03 478.379 1046.17 563.182L1065.56 713.239C1072.73 805.943 1174.49 799.824 1161.79 707.544C1161.16 703.753 1160.88 699.905 1160.18 695.724L1157.81 677.4C1151.18 625.59 1171.57 633.324 1187.91 628.529C1192.5 627.185 1221.06 622.773 1227.06 620.994C1372.43 577.945 1329.17 329.394 1166.43 341.267C1156.79 341.97 1150.81 343.152 1136.14 345.589C1038.53 361.805 1030.28 366.889 1020.58 409.437ZM1128.7 497.174L1136.14 541.936C1137.85 552.221 1139.78 554.601 1150.51 552.815L1171.9 549.257L1185.53 546.991C1201.86 543.267 1209.24 539.372 1217.06 527.013C1233.59 497.69 1234.43 442.956 1186.9 425.673C1180.19 423.743 1176.41 423.422 1169.6 424.726L1161.24 426.117L1143.74 429.028C1131.91 430.996 1119.57 442.33 1121.25 452.411L1128.7 497.174ZM1036.64 413.86C1040.08 391.88 1042.03 379.567 1077.29 371.248C1042.65 385.147 1042.75 395.792 1036.64 413.86ZM1229.1 441.664C1223.72 432.397 1218.82 425.755 1213.11 421.099C1205.32 414.745 1196.01 412.091 1181.85 411.515C1192.46 409.993 1207.54 411.515 1214.8 417.811C1220.27 422.755 1224.64 430.479 1229.1 441.664ZM1122.47 549.257C1129.86 565.676 1136.52 567.078 1157.67 567.078C1137.94 564.146 1131.93 560.681 1122.47 549.257ZM1082.02 738.881C1089.92 755.245 1097.85 763.724 1118.11 765.638C1091.31 766.95 1085.38 753.963 1082.02 738.881Z" stroke="white" stroke-width="5.59835" stroke-linejoin="round"/>
</g>
<g filter="url(#filter3_d_747_2)">
<path d="M874.682 326.199C893.456 300.13 899.31 280.106 950.979 292.112C908.027 273.749 894.315 288.42 874.682 326.199Z" fill="white"/>
<path d="M765.747 655.474C764.687 686.122 774.591 694.808 815.102 691.791C771.154 689.894 772.169 676.056 765.747 655.474Z" fill="white"/>
<path d="M870.021 536.708C870.838 550.365 873.052 557.118 891.465 557.118C874.073 554.766 872.933 546.446 870.021 536.708Z" fill="white"/>
<path d="M967.921 673.626C971.189 695.808 972.379 708.565 1011.16 713.061C977.197 705.051 973.502 693.918 967.921 673.626Z" fill="white"/>
<path fill-rule="evenodd" clip-rule="evenodd" d="M873.278 624.674L909.632 627.621L944.501 630.446C957.871 632.842 955.273 645.694 953.721 658.524L953.284 664.366C951.498 727.854 1045.11 759.931 1048.74 667.738C1068.78 159.21 825.336 124.675 752.261 643.711C735.948 714.56 842.941 742.474 852.873 651.248C855.183 630.037 860.157 623.611 873.278 624.674ZM941.519 530.286C934.437 377.053 913.407 385.324 882.955 524.005C878.118 546.034 882.302 549.366 907.56 549.956C929.759 550.474 943.889 554.037 941.519 530.286ZM874.682 326.199C893.456 300.13 899.31 280.106 950.979 292.112C908.027 273.749 894.315 288.42 874.682 326.199ZM765.747 655.474C764.687 686.122 774.591 694.808 815.102 691.791C771.154 689.894 772.169 676.056 765.747 655.474ZM870.021 536.708C870.838 550.365 873.052 557.118 891.465 557.118C874.073 554.766 872.933 546.446 870.021 536.708ZM967.921 673.626C971.189 695.808 972.379 708.565 1011.16 713.061C977.197 705.051 973.502 693.918 967.921 673.626Z" fill="#ACACAC"/>
<path d="M953.721 658.524C955.273 645.694 957.871 632.842 944.501 630.446L909.632 627.621L873.278 624.674C860.157 623.611 855.183 630.037 852.873 651.248C842.941 742.474 735.948 714.56 752.261 643.711C825.336 124.675 1068.78 159.21 1048.74 667.738C1045.11 759.931 951.498 727.854 953.284 664.366M953.721 658.524L953.284 664.366M953.721 658.524C953.482 660.498 953.338 662.446 953.284 664.366M953.262 664.665L953.284 664.366M941.519 530.286C934.437 377.053 913.407 385.324 882.955 524.005C878.118 546.034 882.302 549.366 907.56 549.956C929.759 550.474 943.889 554.037 941.519 530.286ZM874.682 326.199C893.456 300.13 899.31 280.106 950.979 292.112C908.027 273.749 894.315 288.42 874.682 326.199ZM765.747 655.474C764.687 686.122 774.591 694.808 815.102 691.791C771.154 689.894 772.169 676.056 765.747 655.474ZM870.021 536.708C870.838 550.365 873.052 557.118 891.465 557.118C874.073 554.766 872.933 546.446 870.021 536.708ZM967.921 673.626C971.189 695.808 972.379 708.565 1011.16 713.061C977.197 705.051 973.502 693.918 967.921 673.626Z" stroke="white" stroke-width="5.59835" stroke-linejoin="round"/>
</g>
<g filter="url(#filter4_d_747_2)">
<path d="M540.886 456.153C549.377 431.281 556.63 421.679 580.891 424.282C553.686 424.509 551.243 438.151 540.886 456.153Z" fill="white"/>
<path d="M519.606 748.166C525.688 781.033 533.831 793.849 570.545 790.403C537.331 790.44 527.414 779.659 519.606 748.166Z" fill="white"/>
<path d="M705.691 747.059C708.264 774.277 713.637 787.678 759.51 794.422C721.547 786.274 713.108 773.861 705.691 747.059Z" fill="white"/>
<path d="M724.057 448.461C730.711 420.426 741.517 411.636 781.612 416.342C742.473 407.345 727.536 420.08 724.057 448.461Z" fill="white"/>
<path fill-rule="evenodd" clip-rule="evenodd" d="M707.382 461.193L706.87 468.213C706.588 472.071 705.038 497.65 703.425 525.049L700.875 568.358C700.39 576.604 697.317 577.758 689.578 577.302L664.129 575.804L635.005 574.089C628.358 573.698 628.092 572.357 628.578 564.102L631.15 519.924L634.092 469.306C638.781 389.661 527.462 383.107 522.773 462.752L514.461 603.944L506.148 745.134C501.787 819.197 612.575 834.773 617.647 748.632L619.815 711.802L621.983 674.978C622.258 670.311 626.118 669.089 628.035 669.202L658.601 671.002L689.162 672.801C693.111 673.034 694.682 676.639 694.347 679.251L692.952 702.938C692.185 715.967 691.415 729.786 691.242 733.656L690.927 740.682C686.36 817.992 796.972 833.558 802.055 747.224L810.282 607.484L818.51 467.736C823.178 388.446 712.031 378.884 707.382 461.193ZM540.886 456.153C549.377 431.281 556.63 421.679 580.891 424.282C553.686 424.509 551.243 438.151 540.886 456.153ZM519.606 748.166C525.688 781.033 533.831 793.849 570.545 790.403C537.331 790.44 527.414 779.659 519.606 748.166ZM705.691 747.059C708.264 774.277 713.637 787.678 759.51 794.422C721.547 786.274 713.108 773.861 705.691 747.059ZM724.057 448.461C730.711 420.426 741.517 411.636 781.612 416.342C742.473 407.345 727.536 420.08 724.057 448.461Z" fill="#ACACAC"/>
<path d="M616.9 566.361C616.9 579.894 620.079 585.957 637.605 586.845C620.079 584.478 619.812 576.099 616.9 566.361Z" fill="#ACACAC"/>
<path d="M540.886 456.153C549.377 431.281 556.63 421.679 580.891 424.282C553.686 424.509 551.243 438.151 540.886 456.153Z" stroke="white" stroke-width="5.59835" stroke-linejoin="round"/>
<path d="M519.606 748.166C525.688 781.033 533.831 793.849 570.545 790.403C537.331 790.44 527.414 779.659 519.606 748.166Z" stroke="white" stroke-width="5.59835" stroke-linejoin="round"/>
<path d="M705.691 747.059C708.264 774.277 713.637 787.678 759.51 794.422C721.547 786.274 713.108 773.861 705.691 747.059Z" stroke="white" stroke-width="5.59835" stroke-linejoin="round"/>
<path d="M724.057 448.461C730.711 420.426 741.517 411.636 781.612 416.342C742.473 407.345 727.536 420.08 724.057 448.461Z" stroke="white" stroke-width="5.59835" stroke-linejoin="round"/>
<path fill-rule="evenodd" clip-rule="evenodd" d="M707.382 461.193L706.87 468.213C706.588 472.071 705.038 497.65 703.425 525.049L700.875 568.358C700.39 576.604 697.317 577.758 689.578 577.302L664.129 575.804L635.005 574.089C628.358 573.698 628.092 572.357 628.578 564.102L631.15 519.924L634.092 469.306C638.781 389.661 527.462 383.107 522.773 462.752L514.461 603.944L506.148 745.134C501.787 819.197 612.575 834.773 617.647 748.632L619.815 711.802L621.983 674.978C622.258 670.311 626.118 669.089 628.035 669.202L658.601 671.002L689.162 672.801C693.111 673.034 694.682 676.639 694.347 679.251L692.952 702.938C692.185 715.967 691.415 729.786 691.242 733.656L690.927 740.682C686.36 817.992 796.972 833.558 802.055 747.224L810.282 607.484L818.51 467.736C823.178 388.446 712.031 378.884 707.382 461.193ZM540.886 456.153C549.377 431.281 556.63 421.679 580.891 424.282C553.686 424.509 551.243 438.151 540.886 456.153ZM519.606 748.166C525.688 781.033 533.831 793.849 570.545 790.403C537.331 790.44 527.414 779.659 519.606 748.166ZM705.691 747.059C708.264 774.277 713.637 787.678 759.51 794.422C721.547 786.274 713.108 773.861 705.691 747.059ZM724.057 448.461C730.711 420.426 741.517 411.636 781.612 416.342C742.473 407.345 727.536 420.08 724.057 448.461Z" stroke="white" stroke-width="5.59835" stroke-linejoin="round"/>
<path d="M616.9 566.361C616.9 579.894 620.079 585.957 637.605 586.845C620.079 584.478 619.812 576.099 616.9 566.361Z" stroke="white" stroke-width="5.59835" stroke-linejoin="round"/>
</g>
<g filter="url(#filter5_d_747_2)">
<path d="M404.893 453.37C410.147 465.824 417.049 474.085 443.409 475.765C422.193 473.368 414.736 465.651 404.893 453.37Z" fill="white"/>
<path d="M425.394 705.272C480.112 700.828 505.049 684.83 543.059 641.086C509.561 687.384 484.974 703.443 425.394 705.272Z" fill="white"/>
<path fill-rule="evenodd" clip-rule="evenodd" d="M436.005 612.668C429.245 611.96 394.033 607.877 394.033 607.877C394.033 607.877 361.277 604.069 357.504 603.697C307.594 598.028 273.43 700.193 377.216 715.425C596.628 758.704 641.792 518.046 435.389 457.827C397.693 446.459 417.515 373.032 489.881 414.539C585.117 478.534 624.436 329.433 468.415 311.555C404.41 304.221 324.746 322.979 311.009 416.926C305.168 469.414 315.469 532.939 406.473 547.423C495.285 561.558 486.23 612.334 436.005 612.668ZM471.52 327.289C415.468 321.078 382.118 318.859 346.179 369.218C390.402 316.79 423.602 326.106 471.52 327.289ZM404.893 453.37C410.147 465.824 417.049 474.085 443.409 475.765C422.193 473.368 414.736 465.651 404.893 453.37ZM425.394 705.272C480.112 700.828 505.049 684.83 543.059 641.086C509.561 687.384 484.974 703.443 425.394 705.272Z" fill="#ACACAC"/>
<path d="M471.52 327.289C415.468 321.078 382.118 318.859 346.179 369.218C390.402 316.79 423.602 326.106 471.52 327.289Z" fill="white"/>
<path d="M404.893 453.37C410.147 465.824 417.049 474.085 443.409 475.765C422.193 473.368 414.736 465.651 404.893 453.37Z" stroke="white" stroke-width="5.59835" stroke-linejoin="round"/>
<path d="M425.394 705.272C480.112 700.828 505.049 684.83 543.059 641.086C509.561 687.384 484.974 703.443 425.394 705.272Z" stroke="white" stroke-width="5.59835" stroke-linejoin="round"/>
<path fill-rule="evenodd" clip-rule="evenodd" d="M436.005 612.668C429.245 611.96 394.033 607.877 394.033 607.877C394.033 607.877 361.277 604.069 357.504 603.697C307.594 598.028 273.43 700.193 377.216 715.425C596.628 758.704 641.792 518.046 435.389 457.827C397.693 446.459 417.515 373.032 489.881 414.539C585.117 478.534 624.436 329.433 468.415 311.555C404.41 304.221 324.746 322.979 311.009 416.926C305.168 469.414 315.469 532.939 406.473 547.423C495.285 561.558 486.23 612.334 436.005 612.668ZM471.52 327.289C415.468 321.078 382.118 318.859 346.179 369.218C390.402 316.79 423.602 326.106 471.52 327.289ZM404.893 453.37C410.147 465.824 417.049 474.085 443.409 475.765C422.193 473.368 414.736 465.651 404.893 453.37ZM425.394 705.272C480.112 700.828 505.049 684.83 543.059 641.086C509.561 687.384 484.974 703.443 425.394 705.272Z" stroke="white" stroke-width="5.59835" stroke-linejoin="round"/>
<path d="M471.52 327.289C415.468 321.078 382.118 318.859 346.179 369.218C390.402 316.79 423.602 326.106 471.52 327.289Z" stroke="white" stroke-width="5.59835" stroke-linejoin="round"/>
</g>
<defs>
<filter id="filter0_d_747_2" x="1417.79" y="313.952" width="272.036" height="411.74" filterUnits="userSpaceOnUse" color-interpolation-filters="sRGB">
<feFlood flood-opacity="0" result="BackgroundImageFix"/>
<feColorMatrix in="SourceAlpha" type="matrix" values="0 0 0 0 0 0 0 0 0 0 0 0 0 0 0 0 0 0 127 0" result="hardAlpha"/>
<feOffset dx="7.46447" dy="3.73224"/>
<feGaussianBlur stdDeviation="3.73224"/>
<feComposite in2="hardAlpha" operator="out"/>
<feColorMatrix type="matrix" values="0 0 0 0 0 0 0 0 0 0 0 0 0 0 0 0 0 0 0.5 0"/>
<feBlend mode="normal" in2="BackgroundImageFix" result="effect1_dropShadow_747_2"/>
<feBlend mode="normal" in="SourceGraphic" in2="effect1_dropShadow_747_2" result="shape"/>
</filter>
<filter id="filter1_d_747_2" x="1213.14" y="310.58" width="340.169" height="451.198" filterUnits="userSpaceOnUse" color-interpolation-filters="sRGB">
<feFlood flood-opacity="0" result="BackgroundImageFix"/>
<feColorMatrix in="SourceAlpha" type="matrix" values="0 0 0 0 0 0 0 0 0 0 0 0 0 0 0 0 0 0 127 0" result="hardAlpha"/>
<feOffset dx="7.46447" dy="3.73224"/>
<feGaussianBlur stdDeviation="3.73224"/>
<feComposite in2="hardAlpha" operator="out"/>
<feColorMatrix type="matrix" values="0 0 0 0 0 0 0 0 0 0 0 0 0 0 0 0 0 0 0.5 0"/>
<feBlend mode="normal" in2="BackgroundImageFix" result="effect1_dropShadow_747_2"/>
<feBlend mode="normal" in="SourceGraphic" in2="effect1_dropShadow_747_2" result="shape"/>
</filter>
<filter id="filter2_d_747_2" x="1017.78" y="334.322" width="315.476" height="459.506" filterUnits="userSpaceOnUse" color-interpolation-filters="sRGB">
<feFlood flood-opacity="0" result="BackgroundImageFix"/>
<feColorMatrix in="SourceAlpha" type="matrix" values="0 0 0 0 0 0 0 0 0 0 0 0 0 0 0 0 0 0 127 0" result="hardAlpha"/>
<feOffset dx="7.46447" dy="3.73224"/>
<feGaussianBlur stdDeviation="3.73224"/>
<feComposite in2="hardAlpha" operator="out"/>
<feColorMatrix type="matrix" values="0 0 0 0 0 0 0 0 0 0 0 0 0 0 0 0 0 0 0.5 0"/>
<feBlend mode="normal" in2="BackgroundImageFix" result="effect1_dropShadow_747_2"/>
<feBlend mode="normal" in="SourceGraphic" in2="effect1_dropShadow_747_2" result="shape"/>
</filter>
<filter id="filter3_d_747_2" x="747.77" y="263.544" width="319.87" height="475.623" filterUnits="userSpaceOnUse" color-interpolation-filters="sRGB">
<feFlood flood-opacity="0" result="BackgroundImageFix"/>
<feColorMatrix in="SourceAlpha" type="matrix" values="0 0 0 0 0 0 0 0 0 0 0 0 0 0 0 0 0 0 127 0" result="hardAlpha"/>
<feOffset dx="7.46447" dy="3.73224"/>
<feGaussianBlur stdDeviation="3.73224"/>
<feComposite in2="hardAlpha" operator="out"/>
<feColorMatrix type="matrix" values="0 0 0 0 0 0 0 0 0 0 0 0 0 0 0 0 0 0 0.5 0"/>
<feBlend mode="normal" in2="BackgroundImageFix" result="effect1_dropShadow_747_2"/>
<feBlend mode="normal" in="SourceGraphic" in2="effect1_dropShadow_747_2" result="shape"/>
</filter>
<filter id="filter4_d_747_2" x="503.223" y="397.184" width="333.157" height="423.984" filterUnits="userSpaceOnUse" color-interpolation-filters="sRGB">
<feFlood flood-opacity="0" result="BackgroundImageFix"/>
<feColorMatrix in="SourceAlpha" type="matrix" values="0 0 0 0 0 0 0 0 0 0 0 0 0 0 0 0 0 0 127 0" result="hardAlpha"/>
<feOffset dx="7.46447" dy="3.73224"/>
<feGaussianBlur stdDeviation="3.73224"/>
<feComposite in2="hardAlpha" operator="out"/>
<feColorMatrix type="matrix" values="0 0 0 0 0 0 0 0 0 0 0 0 0 0 0 0 0 0 0.5 0"/>
<feBlend mode="normal" in2="BackgroundImageFix" result="effect1_dropShadow_747_2"/>
<feBlend mode="normal" in="SourceGraphic" in2="effect1_dropShadow_747_2" result="shape"/>
</filter>
<filter id="filter5_d_747_2" x="306.799" y="303.593" width="284.419" height="431.002" filterUnits="userSpaceOnUse" color-interpolation-filters="sRGB">
<feFlood flood-opacity="0" result="BackgroundImageFix"/>
<feColorMatrix in="SourceAlpha" type="matrix" values="0 0 0 0 0 0 0 0 0 0 0 0 0 0 0 0 0 0 127 0" result="hardAlpha"/>
<feOffset dx="7.46447" dy="3.73224"/>
<feGaussianBlur stdDeviation="3.73224"/>
<feComposite in2="hardAlpha" operator="out"/>
<feColorMatrix type="matrix" values="0 0 0 0 0 0 0 0 0 0 0 0 0 0 0 0 0 0 0.5 0"/>
<feBlend mode="normal" in2="BackgroundImageFix" result="effect1_dropShadow_747_2"/>
<feBlend mode="normal" in="SourceGraphic" in2="effect1_dropShadow_747_2" result="shape"/>
</filter>
</defs>
</svg>
